<svg width="14" height="14" viewBox="0 0 14 14" fill="none" xmlns="http://www.w3.org/2000/svg">
<path d="M4.6726 6.28436L4.67261 6.28442C4.85421 7.37162 5.89885 8.25635 7.00042 8.25635C8.10249 8.25635 9.14649 7.37144 9.32758 6.28438C9.32758 6.28438 9.32759 6.28438 9.32759 6.28437L9.76455 3.66278C10.0635 1.871 8.81669 0.4 7.00026 0.4C5.18445 0.4 3.9377 1.87101 4.23613 3.66275C4.23613 3.66275 4.23613 3.66275 4.23613 3.66276L4.6726 6.28436ZM8.06171 6.07389L8.0617 6.0739C8.02362 6.30255 7.87956 6.52842 7.67915 6.69824C7.47874 6.86806 7.23224 6.97313 7.00026 6.97313C6.76828 6.97313 6.52184 6.86807 6.32139 6.69812C6.12095 6.52817 5.97671 6.30199 5.93831 6.07267L5.50185 3.45228L5.50185 3.45228C5.4196 2.95866 5.53049 2.51207 5.80413 2.18872C6.07797 1.86598 6.49993 1.68339 7.00009 1.68339C7.5003 1.68339 7.92285 1.86601 8.19648 2.18914L8.19649 2.18915C8.46982 2.51182 8.58076 2.95858 8.49851 3.45228L8.06171 6.07389Z" fill="#5B89FF" stroke="#5B89FF" stroke-width="0.2"/>
<path d="M9.30777 8.20591L9.25114 8.18704L9.20765 8.22792C8.61274 8.78723 7.82792 9.14019 7 9.14019C6.17209 9.14019 5.38726 8.78723 4.79236 8.22792L4.74887 8.18704L4.69224 8.20591L1.49621 9.27126C1.18983 9.3733 0.916753 9.59587 0.72071 9.86795C0.524669 10.14 0.4 10.4695 0.4 10.7922V13.5005V13.6005H0.5H13.5H13.6V13.5005V10.7922C13.6 10.4695 13.4753 10.14 13.2793 9.86795C13.0833 9.59588 12.8102 9.37331 12.5038 9.27126C12.5038 9.27126 12.5038 9.27126 12.5038 9.27126L9.30777 8.20591ZM12.3166 12.3172H1.68339V10.7922C1.68339 10.7786 1.68827 10.7541 1.70282 10.7203C1.71682 10.6877 1.73732 10.6521 1.76196 10.6179C1.78659 10.5838 1.81391 10.5531 1.84044 10.5295C1.86799 10.5049 1.88972 10.4925 1.90278 10.4882C1.90278 10.4882 1.90279 10.4882 1.9028 10.4882L4.4879 9.62716C5.23926 10.1437 6.10943 10.4236 7 10.4236C7.89009 10.4236 8.76073 10.1437 9.51211 9.62715L12.0976 10.4881C12.1105 10.4925 12.1322 10.5048 12.1597 10.5294C12.1862 10.553 12.2135 10.5837 12.2381 10.6179C12.2627 10.6521 12.2832 10.6877 12.2972 10.7203C12.3117 10.7541 12.3166 10.7786 12.3166 10.7922V12.3172Z" fill="#5B89FF" stroke="#5B89FF" stroke-width="0.2"/>
</svg>
