<svg width="32" height="32" viewBox="0 0 32 32" fill="none" xmlns="http://www.w3.org/2000/svg">
<path d="M13.6726 15.2844L13.6726 15.2844C13.8542 16.3716 14.8988 17.2564 16.0004 17.2564C17.1025 17.2564 18.1465 16.3714 18.3276 15.2844C18.3276 15.2844 18.3276 15.2844 18.3276 15.2844L18.7645 12.6628C19.0635 10.871 17.8167 9.4 16.0003 9.4C14.1845 9.4 12.9377 10.871 13.2361 12.6627C13.2361 12.6628 13.2361 12.6628 13.2361 12.6628L13.6726 15.2844ZM17.0617 15.0739L17.0617 15.0739C17.0236 15.3025 16.8796 15.5284 16.6791 15.6982C16.4787 15.8681 16.2322 15.9731 16.0003 15.9731C15.7683 15.9731 15.5218 15.8681 15.3214 15.6981C15.1209 15.5282 14.9767 15.302 14.9383 15.0727L14.5018 12.4523L14.5018 12.4523C14.4196 11.9587 14.5305 11.5121 14.8041 11.1887C15.078 10.866 15.4999 10.6834 16.0001 10.6834C16.5003 10.6834 16.9228 10.866 17.1965 11.1891L17.1965 11.1891C17.4698 11.5118 17.5808 11.9586 17.4985 12.4523L17.0617 15.0739Z" fill="#5B89FF" stroke="#5B89FF" stroke-width="0.2"/>
<path d="M18.3078 17.2059L18.2511 17.187L18.2076 17.2279C17.6127 17.7872 16.8279 18.1402 16 18.1402C15.1721 18.1402 14.3873 17.7872 13.7924 17.2279L13.7489 17.187L13.6922 17.2059L10.4962 18.2713C10.1898 18.3733 9.91675 18.5959 9.72071 18.868C9.52467 19.14 9.4 19.4695 9.4 19.7922V22.5005V22.6005H9.5H22.5H22.6V22.5005V19.7922C22.6 19.4695 22.4753 19.14 22.2793 18.868C22.0833 18.5959 21.8102 18.3733 21.5038 18.2713C21.5038 18.2713 21.5038 18.2713 21.5038 18.2713L18.3078 17.2059ZM21.3166 21.3172H10.6834V19.7922C10.6834 19.7786 10.6883 19.7541 10.7028 19.7203C10.7168 19.6877 10.7373 19.6521 10.762 19.6179C10.7866 19.5838 10.8139 19.5531 10.8404 19.5295C10.868 19.5049 10.8897 19.4925 10.9028 19.4882C10.9028 19.4882 10.9028 19.4882 10.9028 19.4882L13.4879 18.6272C14.2393 19.1437 15.1094 19.4236 16 19.4236C16.8901 19.4236 17.7607 19.1437 18.5121 18.6272L21.0976 19.4881C21.1105 19.4925 21.1322 19.5048 21.1597 19.5294C21.1862 19.553 21.2135 19.5837 21.2381 19.6179C21.2627 19.6521 21.2832 19.6877 21.2972 19.7203C21.3117 19.7541 21.3166 19.7786 21.3166 19.7922V21.3172Z" fill="#5B89FF" stroke="#5B89FF" stroke-width="0.2"/>
<rect x="1" y="1" width="30" height="30" rx="15" stroke="#5B89FF" stroke-width="2"/>
</svg>
