<svg width="32" height="32" viewBox="0 0 32 32" fill="none" xmlns="http://www.w3.org/2000/svg">
<rect width="32" height="32" rx="16" fill="url(#paint0_linear_3831_11581)"/>
<path d="M21.1436 12.2693C20.9625 12.3592 20.7828 12.449 20.6017 12.5403C20.1695 12.7556 19.7388 12.971 19.3067 13.1864C18.7847 13.4474 18.2627 13.7069 17.7407 13.9679C17.2872 14.1933 16.8351 14.42 16.3815 14.6454C16.1619 14.7552 15.9408 14.8607 15.7226 14.9734C15.7198 14.9748 15.7169 14.9762 15.7127 14.9777C15.9052 14.9777 16.0963 14.9777 16.2888 14.9777C16.1077 14.8878 15.928 14.798 15.7469 14.7067C15.3147 14.4913 14.884 14.276 14.4519 14.0606C13.9299 13.7996 13.4079 13.5401 12.8859 13.2791C12.4324 13.0537 11.9803 12.827 11.5267 12.6016C11.3071 12.4918 11.0903 12.3777 10.8678 12.2736C10.865 12.2722 10.8621 12.2707 10.8578 12.2693C10.8578 12.5973 10.8578 12.9268 10.8578 13.2548C11.0375 13.165 11.2173 13.0765 11.397 12.9867C11.8291 12.7728 12.2612 12.5574 12.6934 12.3435C13.2168 12.0839 13.7388 11.8243 14.2622 11.5648C14.7143 11.3408 15.1664 11.1155 15.6185 10.8916C15.8382 10.7818 16.0606 10.6777 16.2789 10.5636C16.2817 10.5621 16.2846 10.5607 16.2888 10.5593C16.0963 10.5593 15.9052 10.5593 15.7127 10.5593C15.8924 10.6491 16.0721 10.7376 16.2518 10.8274C16.6839 11.0413 17.116 11.2567 17.5482 11.4706C18.0716 11.7302 18.5936 11.9898 19.117 12.2493C19.5691 12.4733 20.0212 12.6986 20.4733 12.9225C20.693 13.0323 20.9126 13.1421 21.1337 13.2505C21.1365 13.252 21.1394 13.2534 21.1436 13.2548C21.282 13.3233 21.4303 13.3547 21.5829 13.3119C21.7156 13.2748 21.8582 13.1735 21.9238 13.0494C21.9937 12.9168 22.0293 12.7571 21.9808 12.6102C21.9366 12.4747 21.851 12.3349 21.7184 12.2693C21.5373 12.1795 21.3562 12.0896 21.175 11.9998C20.74 11.7844 20.305 11.5676 19.87 11.3523C19.3452 11.0913 18.8204 10.8303 18.2955 10.5707C17.8434 10.3468 17.3913 10.1214 16.9406 9.89753C16.7253 9.79056 16.5113 9.68074 16.2945 9.57663C16.1733 9.51816 16.0606 9.48678 15.9237 9.50532C15.8439 9.5153 15.7754 9.5424 15.7041 9.57663C15.6813 9.58804 15.6585 9.59945 15.6342 9.61086C15.5215 9.66648 15.4103 9.7221 15.2976 9.77773C14.8883 9.98167 14.4776 10.1842 14.0682 10.3881C13.5477 10.6463 13.0285 10.9044 12.508 11.1626C12.0359 11.3979 11.5652 11.6332 11.0932 11.8671C10.835 11.9955 10.5769 12.1238 10.3187 12.2522C10.3073 12.2579 10.2945 12.2636 10.2831 12.2707C9.91085 12.4561 9.91085 13.0708 10.2831 13.2562C10.4642 13.3461 10.6439 13.4359 10.825 13.5272C11.2615 13.744 11.6965 13.9622 12.1329 14.179C12.6577 14.44 13.1811 14.7024 13.706 14.9634C14.1567 15.1888 14.6088 15.4141 15.0595 15.638C15.2748 15.7464 15.4902 15.8562 15.707 15.9618C15.8282 16.0202 15.9408 16.0516 16.0778 16.0331C16.1576 16.0231 16.2261 15.9974 16.2974 15.9618C16.3216 15.9503 16.3445 15.9375 16.3687 15.9261C16.48 15.8705 16.5912 15.8149 16.7024 15.7592C17.1118 15.5553 17.5197 15.3513 17.929 15.1474C18.451 14.8878 18.9715 14.6268 19.4935 14.3673C19.967 14.1319 20.4391 13.8952 20.9126 13.6599C21.1707 13.5315 21.4275 13.4031 21.6856 13.2748C21.697 13.2691 21.7099 13.2634 21.7213 13.2562C21.8439 13.1949 21.948 13.0437 21.9837 12.9154C22.0208 12.7785 22.0037 12.5973 21.9266 12.4761C21.7469 12.2009 21.4303 12.1267 21.1436 12.2693Z" fill="#1DD6FF"/>
<path d="M16.2876 21.438C16.1064 21.3482 15.9267 21.2583 15.7456 21.1671C15.3135 20.9517 14.8828 20.7363 14.4506 20.521C13.9286 20.26 13.4066 20.0004 12.8846 19.7394C12.4311 19.5141 11.979 19.2873 11.5255 19.062C11.3058 18.9522 11.089 18.8381 10.8666 18.734C10.8637 18.7325 10.8609 18.7311 10.8566 18.7297C10.9507 18.8937 11.0448 19.0577 11.139 19.2217C11.139 19.0064 11.139 18.7924 11.139 18.5771C11.139 18.0636 11.139 17.5502 11.139 17.0368C11.139 16.4164 11.139 15.7945 11.139 15.1741C11.139 14.635 11.139 14.0959 11.139 13.5583C11.139 13.2973 11.1447 13.0363 11.139 12.7753C11.139 12.771 11.139 12.7681 11.139 12.7639C10.8523 12.9279 10.5671 13.0919 10.2804 13.2559C10.4615 13.3457 10.6412 13.4356 10.8223 13.5254C11.2545 13.7408 11.6852 13.9547 12.1173 14.1701C12.6393 14.4297 13.1613 14.6892 13.6833 14.9502C14.1368 15.1756 14.589 15.4009 15.0425 15.6263C15.2621 15.7361 15.4789 15.8502 15.7014 15.9543C15.7042 15.9557 15.7071 15.9571 15.7114 15.9586C15.6172 15.7945 15.5231 15.6305 15.429 15.4665C15.429 15.6819 15.429 15.8972 15.429 16.1112C15.429 16.6246 15.429 17.1395 15.429 17.6529C15.429 18.2747 15.429 18.8951 15.429 19.5169C15.429 20.056 15.429 20.5952 15.429 21.1343C15.429 21.3953 15.4247 21.6563 15.429 21.9187C15.429 21.923 15.429 21.9258 15.429 21.9301C15.429 22.2282 15.6914 22.5148 15.9995 22.5006C16.309 22.4863 16.57 22.2496 16.57 21.9301C16.57 21.7147 16.57 21.4994 16.57 21.2854C16.57 20.772 16.57 20.2571 16.57 19.7437C16.57 19.1219 16.57 18.5015 16.57 17.8797C16.57 17.3406 16.57 16.8014 16.57 16.2623C16.57 16.0013 16.5742 15.7403 16.57 15.4779C16.57 15.4736 16.57 15.4708 16.57 15.4665C16.57 15.2754 16.4644 15.0615 16.2876 14.9745C16.1064 14.8846 15.9267 14.7948 15.7456 14.7049C15.3135 14.4896 14.8828 14.2756 14.4506 14.0603C13.9286 13.8007 13.4066 13.5411 12.8846 13.2801C12.4311 13.0548 11.979 12.8295 11.5255 12.6041C11.3058 12.4943 11.0876 12.3845 10.8666 12.2761C10.8637 12.2747 10.8609 12.2732 10.8566 12.2718C10.6712 12.1791 10.4658 12.1634 10.2804 12.2718C10.1064 12.3731 9.998 12.5628 9.998 12.7639C9.998 12.9792 9.998 13.1931 9.998 13.4085C9.998 13.9219 9.998 14.4354 9.998 14.9488C9.998 15.5692 9.998 16.191 9.998 16.8114C9.998 17.3505 9.998 17.8896 9.998 18.4273C9.998 18.6883 9.99372 18.9493 9.998 19.2103C9.998 19.2146 9.998 19.2174 9.998 19.2217C9.998 19.4128 10.1035 19.6268 10.2804 19.7138C10.4615 19.8036 10.6412 19.8935 10.8223 19.9847C11.2545 20.2001 11.6852 20.4155 12.1173 20.6308C12.6393 20.8918 13.1613 21.1514 13.6833 21.4124C14.1368 21.6377 14.589 21.8645 15.0425 22.0898C15.2621 22.1996 15.4803 22.3109 15.7014 22.4178C15.7042 22.4193 15.7071 22.4207 15.7114 22.4221C15.8497 22.4906 15.998 22.522 16.1507 22.4792C16.2833 22.4421 16.4259 22.3408 16.4915 22.2168C16.5614 22.0841 16.5971 21.9244 16.5486 21.7775C16.5058 21.642 16.4202 21.5036 16.2876 21.438Z" fill="#1DD6FF"/>
<path d="M21.1411 18.7287C20.9599 18.8186 20.7802 18.9084 20.5991 18.9997C20.167 19.215 19.7363 19.4304 19.3041 19.6458C18.7821 19.9067 18.2601 20.1663 17.7381 20.4273C17.2846 20.6527 16.8325 20.8794 16.379 21.1048C16.1593 21.2146 15.9383 21.3187 15.7201 21.4328C15.7172 21.4342 15.7144 21.4356 15.7101 21.4371C15.9967 21.6011 16.282 21.7651 16.5686 21.9291C16.5686 21.7138 16.5686 21.4984 16.5686 21.2845C16.5686 20.771 16.5686 20.2562 16.5686 19.7427C16.5686 19.1209 16.5686 18.5005 16.5686 17.8787C16.5686 17.3396 16.5686 16.8005 16.5686 16.2614C16.5686 16.0004 16.5744 15.7379 16.5686 15.4769C16.5686 15.4727 16.5686 15.4698 16.5686 15.4655C16.4745 15.6296 16.3804 15.7936 16.2863 15.9576C16.4674 15.8677 16.6471 15.7779 16.8282 15.688C17.2604 15.4727 17.6911 15.2587 18.1232 15.0434C18.6452 14.7838 19.1672 14.5242 19.6892 14.2632C20.1427 14.0379 20.5948 13.8126 21.0484 13.5872C21.268 13.4774 21.4891 13.3733 21.7073 13.2592C21.7101 13.2578 21.713 13.2563 21.7173 13.2549C21.4306 13.0909 21.1453 12.9269 20.8587 12.7629C20.8587 12.9782 20.8587 13.1922 20.8587 13.4075C20.8587 13.921 20.8587 14.4344 20.8587 14.9478C20.8587 15.5682 20.8587 16.1901 20.8587 16.8105C20.8587 17.3496 20.8587 17.8887 20.8587 18.4263C20.8587 18.6873 20.8544 18.9483 20.8587 19.2093C20.8587 19.2136 20.8587 19.2165 20.8587 19.2207C20.8587 19.5188 21.1211 19.8055 21.4292 19.7912C21.7386 19.777 21.9996 19.5402 21.9996 19.2207C21.9996 19.0054 21.9996 18.7915 21.9996 18.5761C21.9996 18.0627 21.9996 17.5492 21.9996 17.0358C21.9996 16.4154 21.9996 15.7936 21.9996 15.1732C21.9996 14.6341 21.9996 14.095 21.9996 13.5573C21.9996 13.2963 22.0039 13.0353 21.9996 12.7743C21.9996 12.77 21.9996 12.7672 21.9996 12.7629C21.9996 12.5618 21.8913 12.3721 21.7173 12.2708C21.5318 12.1624 21.3279 12.1781 21.1411 12.2708C20.9599 12.3607 20.7802 12.4505 20.5991 12.5404C20.167 12.7557 19.7363 12.9697 19.3041 13.185C18.7821 13.4446 18.2601 13.7042 17.7381 13.9652C17.2846 14.1905 16.8325 14.4159 16.379 14.6412C16.1593 14.751 15.9368 14.8537 15.7201 14.9692C15.7172 14.9706 15.7144 14.9721 15.7101 14.9735C15.5332 15.0619 15.4277 15.2759 15.4277 15.4655C15.4277 15.6809 15.4277 15.8963 15.4277 16.1102C15.4277 16.6236 15.4277 17.1385 15.4277 17.6519C15.4277 18.2737 15.4277 18.8941 15.4277 19.516C15.4277 20.0551 15.4277 20.5942 15.4277 21.1333C15.4277 21.3943 15.4234 21.6553 15.4277 21.9177C15.4277 21.922 15.4277 21.9248 15.4277 21.9291C15.4277 22.1302 15.5361 22.3199 15.7101 22.4211C15.8955 22.5295 16.0994 22.5139 16.2863 22.4211C16.4674 22.3313 16.6471 22.2414 16.8282 22.1502C17.2604 21.9348 17.6911 21.7195 18.1232 21.5041C18.6452 21.2431 19.1672 20.9835 19.6892 20.7225C20.1427 20.4972 20.5948 20.2704 21.0484 20.0451C21.268 19.9353 21.4905 19.8312 21.7073 19.7171C21.7101 19.7156 21.713 19.7142 21.7173 19.7128C21.8399 19.6515 21.944 19.5003 21.9797 19.3719C22.0168 19.235 21.9996 19.0539 21.9226 18.9326C21.7444 18.6602 21.4277 18.5861 21.1411 18.7287Z" fill="#1DD6FF"/>
<defs>
<linearGradient id="paint0_linear_3831_11581" x1="16" y1="0" x2="16" y2="32" gradientUnits="userSpaceOnUse">
<stop stop-color="#1DD6FF" stop-opacity="0.3"/>
<stop offset="1" stop-color="#1DD6FF" stop-opacity="0"/>
</linearGradient>
</defs>
</svg>
