<svg width="32" height="32" viewBox="0 0 32 32" fill="none" xmlns="http://www.w3.org/2000/svg">
<path d="M10.7982 16.8386L10.7798 16.8569L10.7727 16.8819L9.39094 21.7457C9.32272 21.9538 9.39508 22.212 9.58172 22.3987C9.7114 22.5284 9.85804 22.577 9.97789 22.593C10.0374 22.6009 10.0904 22.6008 10.1314 22.5989C10.1518 22.598 10.1695 22.5966 10.1829 22.5955L10.1993 22.5942C10.2035 22.5939 10.2051 22.5939 10.2053 22.5939L10.2054 22.5939H10.2193L10.2327 22.59L15.086 21.2113C15.1538 21.2088 15.2134 21.1893 15.2649 21.1481C15.3123 21.1103 15.346 21.0592 15.3742 21.0052L22.3796 13.9998C22.4839 13.9239 22.5536 13.8399 22.5933 13.7508C22.6341 13.6593 22.6406 13.5685 22.6276 13.4862C22.6023 13.326 22.5038 13.1971 22.4405 13.1339L18.9018 9.59517C18.6416 9.33494 18.2465 9.33494 17.9863 9.59517L18.0564 9.66536L17.9863 9.59517L10.964 16.6174C10.9293 16.6522 10.8969 16.7007 10.8716 16.7387L10.8686 16.7432C10.8391 16.7875 10.8173 16.8194 10.7982 16.8386ZM19.5188 15.0305L15.3472 19.2556L12.7244 16.6328L16.8965 12.4607L19.5188 15.0305ZM10.9587 21.077L11.9139 17.7086L14.3271 20.1218L10.9587 21.077ZM20.4339 14.1698L17.8121 11.6004L18.4447 10.9677L21.0665 13.5371L20.4339 14.1698Z" fill="#9C1DFF" stroke="#9C1DFF" stroke-width="0.2"/>
<rect x="1" y="1" width="30" height="30" rx="15" stroke="#9C1DFF" stroke-width="2"/>
</svg>
