<svg width="43" height="44" viewBox="0 0 43 44" fill="none" xmlns="http://www.w3.org/2000/svg">
<rect width="43" height="44" fill="#E5E5E5"/>
<g id="Frame 34317">
<rect width="1440" height="3944" transform="translate(-1091 -607)" fill="#F4F4F4"/>
<g id="Frame 34080">
<g id="Frame 34080_2">
<g id="Group 1285">
<g id="Frame 1272">
<g id="Frame 1272_2">
<g id="Frame 34252">
<rect x="-10.5" y="-37.5" width="335" height="119" rx="15.5" fill="white"/>
<circle id="Ellipse 19" cx="21.5" cy="22" r="21.5" fill="url(#paint0_linear_2306_2473)"/>
<g id="Frame 34085">
<path id="Vector" d="M17.9226 24.3229L19.8847 23.888L19.7528 27.9526L19.7528 27.9528C19.7484 28.0953 19.7927 28.235 19.8783 28.349C19.9639 28.463 20.0857 28.5445 20.2238 28.5801C20.3618 28.6157 20.5079 28.6033 20.6379 28.5449C20.7679 28.4865 20.8742 28.3856 20.9394 28.2587L20.9395 28.2585L24.7722 20.7319C24.7722 20.7319 24.7722 20.7319 24.7722 20.7319C24.8263 20.6257 24.8491 20.5064 24.838 20.3878C24.8268 20.2691 24.7821 20.1561 24.7091 20.0619C24.6362 19.9677 24.5379 19.8962 24.4258 19.8558C24.3137 19.8153 24.1924 19.8076 24.0761 19.8335L24.0761 19.8338L22.0037 20.2945L22.0896 16.0406L22.0896 16.0405C22.0924 15.8971 22.046 15.7569 21.9581 15.6435C21.8703 15.53 21.7462 15.4501 21.6065 15.4169C21.4669 15.3838 21.3201 15.3995 21.1906 15.4615C21.0612 15.5234 20.9568 15.6278 20.8949 15.7573L17.2201 23.4389L17.2201 23.439C17.1694 23.5452 17.1495 23.6635 17.1628 23.7805C17.1761 23.8974 17.222 24.0083 17.2952 24.1004C17.3684 24.1926 17.4661 24.2623 17.577 24.3016C17.688 24.3409 17.8077 24.3483 17.9226 24.3229L17.9226 24.3229ZM23.0482 21.3446L21.0945 25.1788L21.1627 23.1193L21.1627 23.1191C21.1657 23.0234 21.1468 22.9283 21.1074 22.8411C21.0681 22.7538 21.0093 22.6767 20.9356 22.6156C20.8618 22.5546 20.7751 22.5111 20.6821 22.4887C20.5891 22.4663 20.4922 22.4654 20.3988 22.4861C20.3987 22.4862 20.3987 22.4862 20.3986 22.4862L18.9043 22.8114L20.7751 18.9072L20.7314 21.0627C20.7314 21.0627 20.7314 21.0627 20.7314 21.0628L20.7314 21.0629L20.8313 21.0649C20.8296 21.145 20.8461 21.2245 20.8796 21.2973C20.9132 21.3701 20.9628 21.4343 21.0249 21.4851C21.0869 21.5359 21.1597 21.5718 21.2377 21.5903C21.3157 21.6087 21.3969 21.6092 21.4751 21.5916L21.4968 21.6892L21.4969 21.6892C21.497 21.6892 21.497 21.6892 21.497 21.6892L23.0482 21.3446Z" fill="#1BD29B" stroke="#1BD29B" stroke-width="0.2"/>
<rect x="6" y="7" width="30" height="30" rx="15" stroke="#1BD29B" stroke-width="2"/>
</g>
<rect x="-10.5" y="-37.5" width="335" height="119" rx="15.5" stroke="#F0F0F0"/>
</g>
</g>
</g>
</g>
</g>
</g>
</g>
<defs>
<linearGradient id="paint0_linear_2306_2473" x1="21.5" y1="0.5" x2="21.5" y2="43.5" gradientUnits="userSpaceOnUse">
<stop stop-color="#1BD29B" stop-opacity="0.3"/>
<stop offset="1" stop-color="#1BD29B" stop-opacity="0"/>
</linearGradient>
</defs>
</svg>
