<svg width="32" height="32" viewBox="0 0 32 32" fill="none" xmlns="http://www.w3.org/2000/svg">
<path d="M12.9226 18.3229L14.8847 17.888L14.7528 21.9526L14.7528 21.9528C14.7484 22.0953 14.7927 22.235 14.8783 22.349C14.9639 22.463 15.0857 22.5445 15.2238 22.5801C15.3618 22.6157 15.5079 22.6033 15.6379 22.5449C15.7679 22.4865 15.8742 22.3856 15.9394 22.2587L15.9395 22.2585L19.7722 14.7319C19.7722 14.7319 19.7722 14.7319 19.7722 14.7319C19.8263 14.6257 19.8491 14.5064 19.838 14.3878C19.8268 14.2691 19.7821 14.1561 19.7091 14.0619C19.6362 13.9677 19.5379 13.8962 19.4258 13.8558C19.3137 13.8153 19.1924 13.8076 19.0761 13.8335L19.0761 13.8338L17.0037 14.2945L17.0896 10.0406L17.0896 10.0405C17.0924 9.89705 17.046 9.75692 16.9581 9.64346C16.8703 9.53 16.7462 9.45006 16.6065 9.41695C16.4669 9.38383 16.3201 9.39954 16.1906 9.46146C16.0612 9.52338 15.9568 9.62777 15.8949 9.75726L12.2201 17.4389L12.2201 17.439C12.1694 17.5452 12.1495 17.6635 12.1628 17.7805C12.1761 17.8974 12.222 18.0083 12.2952 18.1004C12.3684 18.1926 12.4661 18.2623 12.577 18.3016C12.688 18.3409 12.8077 18.3483 12.9226 18.3229L12.9226 18.3229ZM18.0482 15.3446L16.0945 19.1788L16.1627 17.1193L16.1627 17.1191C16.1657 17.0234 16.1468 16.9283 16.1074 16.8411C16.0681 16.7538 16.0093 16.6767 15.9356 16.6156C15.8618 16.5546 15.7751 16.5111 15.6821 16.4887C15.5891 16.4663 15.4922 16.4654 15.3988 16.4861C15.3987 16.4862 15.3987 16.4862 15.3986 16.4862L13.9043 16.8114L15.7751 12.9072L15.7314 15.0627C15.7314 15.0627 15.7314 15.0627 15.7314 15.0628L15.7314 15.0629L15.8313 15.0649C15.8296 15.145 15.8461 15.2245 15.8796 15.2973C15.9132 15.3701 15.9628 15.4343 16.0249 15.4851C16.0869 15.5359 16.1597 15.5718 16.2377 15.5903C16.3157 15.6087 16.3969 15.6092 16.4751 15.5916L16.4968 15.6892L16.4969 15.6892C16.497 15.6892 16.497 15.6892 16.497 15.6892L18.0482 15.3446Z" fill="#1BD29B" stroke="#1BD29B" stroke-width="0.2"/>
<rect x="1" y="1" width="30" height="30" rx="15" stroke="#1BD29B" stroke-width="2"/>
</svg>
