<svg width="14" height="14" viewBox="0 0 8 14" fill="none" xmlns="http://www.w3.org/2000/svg">
<path d="M0.92265 9.32285L2.88472 8.88797L2.7528 12.9526L2.75279 12.9528C2.74845 13.0953 2.79271 13.235 2.8783 13.349C2.96389 13.463 3.08572 13.5445 3.22376 13.5801C3.36181 13.6157 3.50785 13.6033 3.6379 13.5449C3.76794 13.4865 3.87425 13.3856 3.93935 13.2587L3.9395 13.2585L7.77216 5.73195C7.77217 5.73193 7.77218 5.73191 7.77219 5.73189C7.82631 5.62575 7.84913 5.5064 7.83797 5.38778C7.82681 5.26913 7.78213 5.15611 7.70915 5.06191C7.63616 4.96771 7.53788 4.89622 7.42579 4.85578C7.31369 4.81534 7.19241 4.80762 7.07609 4.83353L7.07612 4.83382L5.00366 5.29451L5.08956 1.04058L5.08956 1.04054C5.09241 0.897054 5.04603 0.756918 4.95814 0.643459C4.87025 0.53 4.74616 0.450061 4.60651 0.416947C4.46687 0.383834 4.3201 0.399543 4.19062 0.46146C4.06115 0.523378 3.95679 0.627768 3.8949 0.757258L0.220109 8.43894L0.220076 8.43901C0.169365 8.54522 0.14952 8.66355 0.162801 8.7805C0.176083 8.89744 0.221957 9.0083 0.295195 9.10044C0.368432 9.19258 0.466084 9.26228 0.57702 9.30161C0.687955 9.34093 0.807707 9.3483 0.922624 9.32286L0.92265 9.32285ZM6.04815 6.34461L4.09449 10.1788L4.16265 8.11928L4.16266 8.11913C4.16568 8.02345 4.14679 7.92834 4.10743 7.84107C4.06807 7.75381 4.00929 7.6767 3.93556 7.61563C3.86184 7.55456 3.77514 7.51115 3.68207 7.48871C3.58908 7.4663 3.49219 7.46542 3.3988 7.48614C3.39873 7.48616 3.39867 7.48617 3.3986 7.48619L1.90435 7.81144L3.77507 3.90722L3.73136 6.06271C3.73136 6.06272 3.73135 6.06274 3.73135 6.06276L3.73135 6.06286L3.83133 6.06488C3.82959 6.14502 3.84611 6.22451 3.87964 6.29731C3.91318 6.37012 3.96285 6.43433 4.02489 6.48509C4.08693 6.53585 4.15971 6.57182 4.23771 6.59028C4.31572 6.60873 4.3969 6.60919 4.4751 6.59161L4.49679 6.68923L4.49692 6.6892C4.49696 6.68919 4.497 6.68918 4.49704 6.68917L6.04815 6.34461Z" fill="#1BD29B" stroke="#1BD29B" stroke-width="0.2"/>
</svg>
