<svg width="12" height="14" viewBox="0 0 12 14" fill="none" xmlns="http://www.w3.org/2000/svg">
<path id="Vector" d="M8.75 4.03936C8.64045 3.92156 8.49194 3.85539 8.33711 3.85539C8.18228 3.85539 8.03377 3.92156 7.92422 4.03936L6 6.11097C5.37432 6.78457 4.24717 6.34185 4.24717 5.42249V1.08428C4.24717 0.76159 3.98558 0.5 3.66289 0.5C3.3402 0.5 3.07861 0.76159 3.07861 1.08428V6.18793C3.07861 6.83406 2.28644 7.14521 1.84671 6.6718L1.76909 6.58823C1.52972 6.33053 1.12183 6.33053 0.882471 6.58823C0.666827 6.82039 0.666827 7.17961 0.882471 7.41177L3.25 9.96065C3.35955 10.0784 3.50806 10.1446 3.66289 10.1446C3.81772 10.1446 3.96623 10.0784 4.07578 9.96065L6 7.88903C6.62568 7.21543 7.75283 7.65815 7.75283 8.57751V12.9157C7.75283 13.2384 8.01442 13.5 8.33711 13.5C8.6598 13.5 8.92139 13.2384 8.92139 12.9157V7.81207C8.92139 7.16594 9.71356 6.85479 10.1533 7.3282L10.2309 7.41177C10.4703 7.66947 10.8782 7.66947 11.1175 7.41177C11.3332 7.17961 11.3332 6.82039 11.1175 6.58823L8.75 4.03936Z" fill="#FF891D"/>
</svg>
