<svg width="32" height="32" viewBox="0 0 32 32" fill="none" xmlns="http://www.w3.org/2000/svg">
<path d="M18.75 13.0394C18.6404 12.9216 18.4919 12.8554 18.3371 12.8554C18.1823 12.8554 18.0338 12.9216 17.9242 13.0394L16 15.111C15.3743 15.7846 14.2472 15.3419 14.2472 14.4225V10.0843C14.2472 9.76159 13.9856 9.5 13.6629 9.5C13.3402 9.5 13.0786 9.76159 13.0786 10.0843V15.1879C13.0786 15.8341 12.2864 16.1452 11.8467 15.6718L11.7691 15.5882C11.5297 15.3305 11.1218 15.3305 10.8825 15.5882C10.6668 15.8204 10.6668 16.1796 10.8825 16.4118L13.25 18.9606C13.3596 19.0784 13.5081 19.1446 13.6629 19.1446C13.8177 19.1446 13.9662 19.0784 14.0758 18.9606L16 16.889C16.6257 16.2154 17.7528 16.6581 17.7528 17.5775V21.9157C17.7528 22.2384 18.0144 22.5 18.3371 22.5C18.6598 22.5 18.9214 22.2384 18.9214 21.9157V16.8121C18.9214 16.1659 19.7136 15.8548 20.1533 16.3282L20.2309 16.4118C20.4703 16.6695 20.8782 16.6695 21.1175 16.4118C21.3332 16.1796 21.3332 15.8204 21.1175 15.5882L18.75 13.0394Z" fill="#FF891D"/>
<rect x="1" y="1" width="30" height="30" rx="15" stroke="#FF891D" stroke-width="2"/>
</svg>
