<svg width="26" height="27" viewBox="0 0 26 27" fill="none" xmlns="http://www.w3.org/2000/svg">
<path d="M11.0522 15.527H12.0682L11.5586 14.3419L11.0522 15.527Z" fill="white"/>
<path fill-rule="evenodd" clip-rule="evenodd" d="M18.2059 0.834839H7.12746C1.90879 0.834839 0 2.74364 0 7.96233V19.0409C0 24.2594 1.90879 26.1682 7.12746 26.1682H18.2024C23.4211 26.1682 25.3333 24.2594 25.3333 19.0409V7.96233C25.3333 2.74364 23.4245 0.834839 18.2059 0.834839ZM10.8021 16.1244L10.5008 16.814H9.81464L11.2738 13.5037H11.8666L13.32 16.814H12.6154L12.3178 16.1244H10.8021ZM21.8429 16.8117H22.5061V13.5037H21.8429V16.8117ZM19.2037 15.3903H20.4258V14.7875H19.2037V14.1093H20.9778V13.5058H18.5408V16.8137H21.0418V16.2104H19.2037V15.3903ZM16.5688 15.7812L15.8168 13.5036H15.2685L14.5165 15.7812L13.7848 13.5052H13.0696L14.224 16.8156H14.7802L15.5333 14.6411L16.2861 16.8156H16.8474L17.9989 13.5052H17.3021L16.5688 15.7812ZM8.80237 15.3994C8.80237 15.938 8.53491 16.2257 8.04931 16.2257C7.56105 16.2257 7.29224 15.9298 7.29224 15.3765V13.5056H6.62024V15.3994C6.62024 16.3312 7.13784 16.8654 8.04024 16.8654C8.95144 16.8654 9.47411 16.321 9.47411 15.372V13.5036H8.80237V15.3994ZM5.01678 13.5037H5.68851V16.8158H5.01678V15.4708H3.49917V16.8158H2.82718V13.5037H3.49917V14.8398H5.01678V13.5037ZM8.44986 5.06978C8.44986 7.39484 10.3416 9.2866 12.6667 9.2866C14.9917 9.2866 16.8835 7.39484 16.8835 5.06978H16.2877C16.2877 7.06642 14.6635 8.6909 12.6667 8.6909C10.6699 8.6909 9.04559 7.06642 9.04559 5.06978H8.44986Z" fill="white"/>
</svg>
