<svg width="19" height="23" viewBox="0 0 19 23" fill="none" xmlns="http://www.w3.org/2000/svg">
<path d="M15.4008 12.1939C15.4225 10.5129 16.3253 8.92229 17.7574 8.04182C16.8539 6.7515 15.3406 5.9334 13.7662 5.88414C12.087 5.70788 10.459 6.88897 9.60333 6.88897C8.73106 6.88897 7.41356 5.90164 5.99483 5.93083C4.14558 5.99058 2.42161 7.04196 1.52191 8.6587C-0.412092 12.0071 1.0305 16.9282 2.88311 19.6348C3.81001 20.9601 4.89329 22.4406 6.31074 22.3881C7.6978 22.3306 8.21584 21.5036 9.89014 21.5036C11.5489 21.5036 12.0349 22.3881 13.4811 22.3547C14.9695 22.3305 15.9073 21.0235 16.8016 19.6856C17.4676 18.7412 17.9801 17.6975 18.3201 16.5931C16.5709 15.8533 15.4029 14.093 15.4008 12.1939Z" fill="white"/>
<path d="M12.6692 4.10415C13.4807 3.12994 13.8805 1.87776 13.7837 0.613525C12.5439 0.743746 11.3986 1.3363 10.5761 2.27314C9.77182 3.18847 9.35326 4.41861 9.43239 5.63453C10.6727 5.6473 11.892 5.0708 12.6692 4.10415Z" fill="white"/>
</svg>
