<svg width="24" height="24" viewBox="0 0 24 24" fill="none" xmlns="http://www.w3.org/2000/svg">
<path fill-rule="evenodd" clip-rule="evenodd" d="M16.335 2L7.666 2C4.26222 2 2 4.4295 2 7.916L2 16.084C2 19.5705 4.26221 22 7.666 22L16.335 22C19.7319 22 22 19.567 22 16.084L22 7.916C22 4.42931 19.7386 2 16.335 2ZM7.666 3.5L16.335 3.5C18.8852 3.5 20.5 5.23468 20.5 7.916L20.5 16.084C20.5 18.7612 18.879 20.5 16.335 20.5L7.666 20.5C5.1155 20.5 3.5 18.765 3.5 16.084L3.5 7.916C3.5 5.23496 5.1155 3.5 7.666 3.5ZM8.69945 9.884C8.4063 9.66552 7.98959 9.68884 7.72275 9.95453C7.42924 10.2468 7.42823 10.7217 7.72049 11.0152L11.4685 14.7792L11.5527 14.8522C11.8468 15.0712 12.2649 15.0468 12.5314 14.7792L16.2794 11.0152L16.3518 10.9309C16.5691 10.6368 16.544 10.2202 16.2772 9.95454L16.1929 9.8821C15.8988 9.66487 15.4822 9.68996 15.2165 9.95679L11.9991 13.1867L8.78341 9.95679L8.69945 9.884Z" fill="white"/>
</svg>
