<svg width="24" height="24" viewBox="0 0 24 24" fill="none" xmlns="http://www.w3.org/2000/svg">
<path fill-rule="evenodd" clip-rule="evenodd" d="M15.577 22.332H6.753C3.312 22.332 1 19.917 1 16.323L1 8.009C1 4.415 3.312 2 6.753 2H10.492C10.906 2 11.242 2.336 11.242 2.75C11.242 3.164 10.906 3.5 10.492 3.5L6.753 3.5C4.169 3.5 2.5 5.27 2.5 8.009L2.5 16.323C2.5 19.062 4.169 20.832 6.753 20.832H15.577C18.161 20.832 19.831 19.062 19.831 16.323V12.295C19.831 11.881 20.167 11.545 20.581 11.545C20.995 11.545 21.331 11.881 21.331 12.295V16.323C21.331 19.917 19.018 22.332 15.577 22.332Z" fill="white"/>
<path d="M16.6176 4.26632L18.5957 4.27806L11.4508 11.4228C11.1533 11.7203 11.1533 12.2026 11.4508 12.5001C11.7482 12.7976 12.2305 12.7976 12.528 12.5001L19.6196 5.40853L19.6308 7.27945C19.6333 7.70013 19.9763 8.03911 20.397 8.03663C20.8177 8.03413 21.1567 7.69106 21.1542 7.2704L21.141 5.04357C21.1424 4.43097 20.9054 3.85592 20.4733 3.42381C20.0412 2.99171 19.4661 2.75469 18.8535 2.75612L16.6267 2.74289C16.206 2.74042 15.863 3.0794 15.8605 3.50008C15.858 3.9208 16.1969 4.26384 16.6176 4.26632Z" fill="white"/>
</svg>
