<svg width="20" height="20" viewBox="0 0 20 20" fill="none" xmlns="http://www.w3.org/2000/svg">
<path fill-rule="evenodd" clip-rule="evenodd" d="M13.6118 18.3333H6.38766C3.5513 18.3333 1.66683 16.3088 1.66683 13.4033V6.59659C1.66683 3.69405 3.55691 1.66658 6.38766 1.66658H13.6118C16.4483 1.66658 18.3335 3.69117 18.3335 6.59659V13.4033C18.3335 16.3087 16.4483 18.3333 13.6118 18.3333ZM6.38766 17.0833H13.6118C15.7372 17.0833 17.0835 15.6374 17.0835 13.4033V6.59658C17.0835 4.36239 15.7372 2.91658 13.6118 2.91658L6.38766 2.91658C4.26763 2.91658 2.91683 4.36557 2.91683 6.59658L2.91683 13.4033C2.91683 15.6377 4.26246 17.0833 6.38766 17.0833ZM10.0002 14.0299C9.68375 14.0299 9.42225 13.7948 9.38087 13.4897L9.37516 13.4049L9.37516 8.10892L7.31971 10.1723C7.0983 10.3947 6.75112 10.4156 6.50606 10.2346L6.43583 10.1742C6.21347 9.9528 6.19256 9.60562 6.37358 9.36056L6.43395 9.29033L9.55728 6.15367C9.77936 5.93064 10.1278 5.91036 10.3729 6.09284L10.3755 6.09509C10.3987 6.11255 10.4206 6.13158 10.4412 6.15204L10.443 6.15367L13.5664 9.29033C13.8099 9.53493 13.8091 9.93066 13.5645 10.1742C13.3421 10.3956 12.9949 10.4151 12.7506 10.233L12.6806 10.1723L10.6252 8.10777V13.4049C10.6252 13.7501 10.3453 14.0299 10.0002 14.0299Z" fill="#4EBC87"/>
</svg>
