<svg width="17" height="16" viewBox="0 0 17 16" fill="none" xmlns="http://www.w3.org/2000/svg">
<path fill-rule="evenodd" clip-rule="evenodd" d="M4.01637 11.5214C3.85403 11.7356 3.8727 12.0445 4.07086 12.2426C4.28703 12.4588 4.63496 12.4613 4.84797 12.2483L11.6276 5.46871L11.6539 10.3932L11.6603 10.4744C11.701 10.7398 11.9305 10.9452 12.2064 10.9479C12.5098 10.9507 12.7546 10.707 12.753 10.4035L12.7199 4.15897C12.7204 4.12248 12.7173 4.0859 12.7106 4.04981C12.6629 3.79183 12.436 3.59462 12.1651 3.59321L5.90998 3.56062L5.82884 3.56615C5.56424 3.60402 5.3631 3.83137 5.36572 4.10726C5.36861 4.41075 5.61697 4.65805 5.92044 4.65963L10.8454 4.68527L4.06514 11.4655L4.01637 11.5214Z" fill="#37DD72"/>
</svg>
