<svg width="17" height="17" viewBox="0 0 17 17" fill="none" xmlns="http://www.w3.org/2000/svg">
<path fill-rule="evenodd" clip-rule="evenodd" d="M12.6106 4.79231C12.7729 4.57813 12.7543 4.26927 12.5561 4.07111C12.3399 3.85494 11.992 3.85237 11.779 4.06539L4.99936 10.845L4.97301 5.92054L4.96662 5.83929C4.92597 5.57394 4.69649 5.36847 4.4206 5.36587C4.11711 5.363 3.87239 5.6067 3.874 5.91017L3.90705 12.1548C3.90653 12.1913 3.90963 12.2278 3.91634 12.2639C3.96407 12.5219 4.19091 12.7191 4.46184 12.7205L10.717 12.7531L10.7981 12.7476C11.0627 12.7097 11.2639 12.4824 11.2612 12.2065C11.2583 11.903 11.01 11.6557 10.7065 11.6541L5.78158 11.6285L12.5618 4.84822L12.6106 4.79231Z" fill="#FF4681"/>
</svg>
