<svg width="17" height="19" viewBox="0 0 17 19" fill="none" xmlns="http://www.w3.org/2000/svg">
<path fill-rule="evenodd" clip-rule="evenodd" d="M16.2222 8.25366H1.3689C1.0239 8.25366 0.743896 7.97366 0.743896 7.62866C0.743896 7.28366 1.0239 7.00366 1.3689 7.00366H16.2222C16.5672 7.00366 16.8472 7.28366 16.8472 7.62866C16.8472 7.97366 16.5672 8.25366 16.2222 8.25366Z" fill="#AA33B5"/>
<path fill-rule="evenodd" clip-rule="evenodd" d="M12.5011 11.5081C12.1561 11.5081 11.8728 11.2281 11.8728 10.8831C11.8728 10.5381 12.1486 10.2581 12.4936 10.2581H12.5011C12.8461 10.2581 13.1261 10.5381 13.1261 10.8831C13.1261 11.2281 12.8461 11.5081 12.5011 11.5081Z" fill="#AA33B5"/>
<path fill-rule="evenodd" clip-rule="evenodd" d="M8.80314 11.5081C8.45814 11.5081 8.1748 11.2281 8.1748 10.8831C8.1748 10.5381 8.45064 10.2581 8.79564 10.2581H8.80314C9.14814 10.2581 9.42814 10.5381 9.42814 10.8831C9.42814 11.2281 9.14814 11.5081 8.80314 11.5081Z" fill="#AA33B5"/>
<path fill-rule="evenodd" clip-rule="evenodd" d="M5.09743 11.5081C4.75243 11.5081 4.46826 11.2281 4.46826 10.8831C4.46826 10.5381 4.74493 10.2581 5.08993 10.2581H5.09743C5.44243 10.2581 5.72243 10.5381 5.72243 10.8831C5.72243 11.2281 5.44243 11.5081 5.09743 11.5081Z" fill="#AA33B5"/>
<path fill-rule="evenodd" clip-rule="evenodd" d="M12.5011 14.7469C12.1561 14.7469 11.8728 14.4669 11.8728 14.1219C11.8728 13.7769 12.1486 13.4969 12.4936 13.4969H12.5011C12.8461 13.4969 13.1261 13.7769 13.1261 14.1219C13.1261 14.4669 12.8461 14.7469 12.5011 14.7469Z" fill="#AA33B5"/>
<path fill-rule="evenodd" clip-rule="evenodd" d="M8.80314 14.7469C8.45814 14.7469 8.1748 14.4669 8.1748 14.1219C8.1748 13.7769 8.45064 13.4969 8.79564 13.4969H8.80314C9.14814 13.4969 9.42814 13.7769 9.42814 14.1219C9.42814 14.4669 9.14814 14.7469 8.80314 14.7469Z" fill="#AA33B5"/>
<path fill-rule="evenodd" clip-rule="evenodd" d="M5.09743 14.7469C4.75243 14.7469 4.46826 14.4669 4.46826 14.1219C4.46826 13.7769 4.74493 13.4969 5.08993 13.4969H5.09743C5.44243 13.4969 5.72243 13.7769 5.72243 14.1219C5.72243 14.4669 5.44243 14.7469 5.09743 14.7469Z" fill="#AA33B5"/>
<path fill-rule="evenodd" clip-rule="evenodd" d="M12.1614 4.82587C11.8164 4.82587 11.5364 4.54587 11.5364 4.20087V1.45837C11.5364 1.11337 11.8164 0.833374 12.1614 0.833374C12.5064 0.833374 12.7864 1.11337 12.7864 1.45837V4.20087C12.7864 4.54587 12.5064 4.82587 12.1614 4.82587Z" fill="#AA33B5"/>
<path fill-rule="evenodd" clip-rule="evenodd" d="M5.42944 4.82587C5.08444 4.82587 4.80444 4.54587 4.80444 4.20087V1.45837C4.80444 1.11337 5.08444 0.833374 5.42944 0.833374C5.77444 0.833374 6.05444 1.11337 6.05444 1.45837V4.20087C6.05444 4.54587 5.77444 4.82587 5.42944 4.82587Z" fill="#AA33B5"/>
<mask id="mask0_865_637" style="mask-type:alpha" maskUnits="userSpaceOnUse" x="0" y="2" width="17" height="17">
<path fill-rule="evenodd" clip-rule="evenodd" d="M0.666748 2.14929H16.9167V18.75H0.666748V2.14929Z" fill="white"/>
</mask>
<g mask="url(#mask0_865_637)">
<path fill-rule="evenodd" clip-rule="evenodd" d="M5.26758 3.39929C3.10675 3.39929 1.91675 4.55179 1.91675 6.64429V14.1851C1.91675 16.3235 3.10675 17.5001 5.26758 17.5001H12.3159C14.4767 17.5001 15.6667 16.3451 15.6667 14.2485V6.64429C15.6701 5.61513 15.3934 4.81513 14.8442 4.26513C14.2792 3.69846 13.4084 3.39929 12.3234 3.39929H5.26758ZM12.3159 18.7501H5.26758C2.43008 18.7501 0.666748 17.001 0.666748 14.1851V6.64429C0.666748 3.87096 2.43008 2.14929 5.26758 2.14929H12.3234C13.7476 2.14929 14.9251 2.57596 15.7292 3.38179C16.5101 4.16596 16.9209 5.29346 16.9167 6.64596V14.2485C16.9167 17.0251 15.1534 18.7501 12.3159 18.7501Z" fill="#AA33B5"/>
</g>
</svg>
