<svg width="14" height="14" viewBox="0 0 14 14" fill="none" xmlns="http://www.w3.org/2000/svg">
<path fill-rule="evenodd" clip-rule="evenodd" d="M2.02683 0.333344H4.28016C5.22016 0.333344 5.9735 1.10001 5.9735 2.04068V4.31334C5.9735 5.26001 5.22016 6.02001 4.28016 6.02001H2.02683C1.0935 6.02001 0.333496 5.26001 0.333496 4.31334V2.04068C0.333496 1.10001 1.0935 0.333344 2.02683 0.333344ZM2.02683 7.97981H4.28016C5.22016 7.97981 5.9735 8.74048 5.9735 9.68714V11.9598C5.9735 12.8998 5.22016 13.6665 4.28016 13.6665H2.02683C1.0935 13.6665 0.333496 12.8998 0.333496 11.9598V9.68714C0.333496 8.74048 1.0935 7.97981 2.02683 7.97981ZM11.9736 0.333344H9.72023C8.78023 0.333344 8.0269 1.10001 8.0269 2.04068V4.31334C8.0269 5.26001 8.78023 6.02001 9.72023 6.02001H11.9736C12.9069 6.02001 13.6669 5.26001 13.6669 4.31334V2.04068C13.6669 1.10001 12.9069 0.333344 11.9736 0.333344ZM9.72023 7.97981H11.9736C12.9069 7.97981 13.6669 8.74048 13.6669 9.68714V11.9598C13.6669 12.8998 12.9069 13.6665 11.9736 13.6665H9.72023C8.78023 13.6665 8.0269 12.8998 8.0269 11.9598V9.68714C8.0269 8.74048 8.78023 7.97981 9.72023 7.97981Z" fill="#646693"/>
</svg>
