<svg width="24" height="24" viewBox="0 0 24 24" fill="none" xmlns="http://www.w3.org/2000/svg">
<g id="Certified">
<g id="Discount">
<path id="Discount_2" fill-rule="evenodd" clip-rule="evenodd" d="M20.3992 9.14538L21.1194 9.86538C21.6897 10.4254 21.9998 11.1854 21.9998 11.9854C22.0098 12.7854 21.6997 13.5464 21.1395 14.1154C21.1328 14.1227 21.1261 14.1292 21.1194 14.1356C21.1161 14.1388 21.1128 14.142 21.1094 14.1454L20.3992 14.8554C20.1191 15.1354 19.959 15.5154 19.959 15.9164V16.9454C19.959 18.6054 18.6085 19.9564 16.9479 19.9564H15.9176C15.5174 19.9564 15.1373 20.1154 14.8572 20.3954L14.1369 21.1154C13.5467 21.7064 12.7764 21.9954 12.0061 21.9954C11.2359 21.9954 10.4656 21.7064 9.87537 21.1264L9.14511 20.3954C8.865 20.1154 8.48487 19.9564 8.08472 19.9564H7.05435C5.39375 19.9564 4.04326 18.6054 4.04326 16.9454V15.9164C4.04326 15.5154 3.8832 15.1354 3.6031 14.8454L2.88284 14.1354C1.71241 12.9664 1.70241 11.0554 2.87283 9.87638L3.6031 9.14538C3.8832 8.86538 4.04326 8.48538 4.04326 8.07538V7.05538C4.04326 5.39538 5.39375 4.04638 7.05435 4.04638H8.08472C8.48487 4.04638 8.865 3.88538 9.14511 3.60538L9.86537 2.88538C11.0358 1.70638 12.9465 1.70638 14.1269 2.87638L14.8572 3.60538C15.1373 3.88538 15.5174 4.04638 15.9176 4.04638H16.9479C18.6085 4.04638 19.959 5.39538 19.959 7.05538V8.08638C19.959 8.48538 20.1191 8.86538 20.3992 9.14538ZM11.865 15.245L16.615 10.495C16.955 10.155 16.955 9.605 16.615 9.255C16.275 8.915 15.715 8.915 15.375 9.255L11.245 13.385L9.495 11.635C9.155 11.295 8.595 11.295 8.255 11.635C7.915 11.975 7.915 12.525 8.255 12.875L10.635 15.245C10.805 15.415 11.025 15.495 11.245 15.495C11.475 15.495 11.695 15.415 11.865 15.245Z" fill="#1890FF"/>
<path class="st1" d="M11.9,15.2l4.8-4.8c0.3-0.3,0.3-0.9,0-1.2c-0.3-0.3-0.9-0.3-1.2,0l-4.1,4.1l-1.8-1.8c-0.3-0.3-0.9-0.3-1.2,0
	s-0.3,0.9,0,1.2l2.4,2.4c0.2,0.2,0.4,0.2,0.6,0.2C11.5,15.5,11.7,15.4,11.9,15.2z"/>
<style type="text/css">
	.st1{fill-rule:evenodd;clip-rule:evenodd;fill:#FFFFFF;}
</style>
</g>
</g>
</svg>
