<svg width="16" height="16" viewBox="0 0 16 16" fill="none" xmlns="http://www.w3.org/2000/svg">
<path fill-rule="evenodd" clip-rule="evenodd" d="M1.33325 8.00007C1.33325 4.32007 4.31325 1.3334 7.99992 1.3334C11.6799 1.3334 14.6666 4.32007 14.6666 8.00007C14.6666 11.6867 11.6799 14.6667 7.99992 14.6667C4.31325 14.6667 1.33325 11.6867 1.33325 8.00007ZM9.48658 9.22007L10.5666 5.80674C10.6399 5.5734 10.4266 5.3534 10.1933 5.42674L6.77992 6.4934C6.63992 6.54007 6.52659 6.64674 6.48659 6.78674L5.41992 10.2067C5.34659 10.4334 5.56659 10.6534 5.79325 10.5801L9.19325 9.5134C9.33325 9.4734 9.44658 9.36007 9.48658 9.22007Z" fill="#646693"/>
</svg>
