<svg width="24" height="24" viewBox="0 0 24 24" fill="none" xmlns="http://www.w3.org/2000/svg">
<g id="Copy">
<g id="Group 7">
<path id="Subtract" d="M4.81042 5.31616C4.80049 5.42592 4.79541 5.53708 4.79541 5.64943V7.16211C4.52307 7.56688 4.35953 8.04645 4.3471 8.56052V18.0383C4.32107 19.4795 5.49432 20.6625 6.96112 20.687L7.09397 20.6862H14.2861C14.7319 20.6814 15.1529 20.5695 15.5231 20.3756H17.5215C16.79 21.3471 15.6156 21.9852 14.2933 21.9988L6.94855 21.9996C4.72861 21.962 2.96289 20.1795 3.00059 18.0269V8.54477C3.03222 7.20263 3.74692 6.02202 4.81042 5.31616Z" fill="#7B7DB2"/>
<path id="Fill 1" fill-rule="evenodd" clip-rule="evenodd" d="M9.79672 3.32233C8.30928 3.32233 7.07498 4.49666 7.03998 5.94488V15.4226C7.01394 16.8638 8.1872 18.0469 9.65399 18.0714L9.78685 18.0705H16.979C18.453 18.0548 19.6549 16.8673 19.6531 15.4235V7.54885L15.4924 3.32233H9.80839H9.79672ZM9.64191 19.3845C7.42197 19.3469 5.65625 17.5644 5.69395 15.4117V5.92963C5.74512 3.75862 7.58355 2.01025 9.79451 2.01025H9.81157H15.7793C15.9624 2.01025 16.1375 2.08288 16.2649 2.21152L20.8125 6.83094C20.9328 6.95257 21.0001 7.1162 21.0001 7.28509V15.4231C21.0037 17.5836 19.203 19.3609 16.9866 19.3836L9.64191 19.3845Z" fill="#7B7DB2"/>
<path id="Fill 3" fill-rule="evenodd" clip-rule="evenodd" d="M20.3222 8.11139H17.85C16.2063 8.10702 14.8706 6.80143 14.8706 5.20183V2.65629C14.8706 2.29402 15.1722 2 15.5439 2C15.9155 2 16.2171 2.29402 16.2171 2.65629V5.20183C16.2171 6.08039 16.9505 6.79618 17.8518 6.79881H20.3222C20.6938 6.79881 20.9954 7.09283 20.9954 7.4551C20.9954 7.81737 20.6938 8.11139 20.3222 8.11139Z" fill="#7B7DB2"/>
</g>
</g>
</svg>
