<svg width="24" height="24" viewBox="0 0 24 24" fill="none" xmlns="http://www.w3.org/2000/svg">
<path fill-rule="evenodd" clip-rule="evenodd" d="M12 3.5C7.313 3.5 3.5 7.313 3.5 12C3.5 16.687 7.313 20.5 12 20.5C16.687 20.5 20.5 16.687 20.5 12C20.5 7.313 16.687 3.5 12 3.5ZM12 22C6.486 22 2 17.514 2 12C2 6.486 6.486 2 12 2C17.514 2 22 6.486 22 12C22 17.514 17.514 22 12 22Z" fill="white"/>
<path d="M12.0001 6.25C12.4143 6.25 12.7501 6.58579 12.7501 7V7.32167C12.9984 7.37263 13.2373 7.45259 13.4665 7.56721C13.9185 7.79319 14.2851 8.12998 14.6001 8.55C14.8486 8.88137 14.7815 9.35147 14.4501 9.6C14.1187 9.84853 13.6486 9.78137 13.4001 9.45C13.1912 9.17143 12.9944 9.00822 12.7957 8.90885C12.5969 8.80948 12.3483 8.75 12.0001 8.75C11.6267 8.75 11.3532 8.80268 11.1491 8.89678C10.9593 8.98431 10.7932 9.12373 10.6513 9.3721C10.5095 9.62023 10.4595 9.82362 10.4595 10C10.4595 10.1764 10.5095 10.3798 10.6513 10.6279C10.8997 11.0626 11.302 11.25 12.0001 11.25C13.0407 11.25 13.9727 11.6068 14.6241 12.584C14.9553 13.0807 15.1293 13.5717 15.0971 14.0963C15.0666 14.5925 14.8544 15.0167 14.6513 15.3721C14.36 15.8819 13.9626 16.2425 13.4791 16.4654C13.2442 16.5737 12.9991 16.6449 12.7501 16.689V17C12.7501 17.4142 12.4143 17.75 12.0001 17.75C11.5859 17.75 11.2501 17.4142 11.2501 17V16.6783C11.0018 16.6274 10.763 16.5474 10.5337 16.4328C10.0817 16.2068 9.71512 15.87 9.4001 15.45C9.15158 15.1186 9.21873 14.6485 9.5501 14.4C9.88147 14.1515 10.3516 14.2186 10.6001 14.55C10.809 14.8286 11.0058 14.9918 11.2045 15.0912C11.4033 15.1905 11.6519 15.25 12.0001 15.25C12.3735 15.25 12.647 15.1973 12.8511 15.1032C13.0409 15.0157 13.207 14.8763 13.3489 14.6279C13.5333 14.3052 13.5919 14.1355 13.5999 14.0044C13.6062 13.9016 13.5865 13.7317 13.3761 13.416C13.0587 12.94 12.6491 12.75 12.0001 12.75C11.0086 12.75 9.96699 12.4537 9.34892 11.3721C9.1032 10.9421 8.95947 10.4845 8.95947 10C8.95947 9.51545 9.1032 9.05791 9.34892 8.6279C9.64024 8.11808 10.0376 7.7575 10.5211 7.53458C10.756 7.42627 11.0012 7.35508 11.2501 7.31099V7C11.2501 6.58579 11.5859 6.25 12.0001 6.25Z" fill="white"/>
</svg>
