<svg width="20" height="19" viewBox="0 0 20 19" fill="none" xmlns="http://www.w3.org/2000/svg">
<g id="Edit">
<path id="Fill 1" fill-rule="evenodd" clip-rule="evenodd" d="M18.751 18.9397H11.498C11.084 18.9397 10.748 18.6037 10.748 18.1897C10.748 17.7757 11.084 17.4397 11.498 17.4397H18.751C19.165 17.4397 19.501 17.7757 19.501 18.1897C19.501 18.6037 19.165 18.9397 18.751 18.9397Z" fill="#F0F0F0"/>
<g id="Group 5">
<mask id="mask0_293_705" style="mask-type:luminance" maskUnits="userSpaceOnUse" x="0" y="0" width="18" height="19">
<path id="Clip 4" fill-rule="evenodd" clip-rule="evenodd" d="M0.000488281 0.00012207H17.1811V18.9397H0.000488281V0.00012207Z" fill="white"/>
</mask>
<g mask="url(#mask0_293_705)">
<path id="Fill 3" fill-rule="evenodd" clip-rule="evenodd" d="M11.1109 2.01678L1.69589 13.7918C1.52489 14.0058 1.46189 14.2818 1.52489 14.5468L2.20589 17.4318L5.24489 17.3938C5.53389 17.3908 5.80089 17.2618 5.97789 17.0418C9.19489 13.0168 15.3279 5.34278 15.5019 5.11778C15.6659 4.85178 15.7299 4.47578 15.6439 4.11378C15.5559 3.74278 15.3249 3.42778 14.9919 3.22678C14.9209 3.17778 13.2359 1.86978 13.1839 1.82878C12.5499 1.32078 11.6249 1.40878 11.1109 2.01678ZM1.61376 18.9398C1.26676 18.9398 0.964763 18.7018 0.883763 18.3628L0.0647626 14.8918C-0.104237 14.1728 0.0637626 13.4308 0.524763 12.8548L9.94476 1.07276C9.94876 1.06876 9.95176 1.06376 9.95576 1.05976C10.9888 -0.175235 12.8568 -0.357235 14.1168 0.653765C14.1668 0.692765 15.8398 1.99276 15.8398 1.99276C16.4478 2.35476 16.9228 3.00176 17.1028 3.76776C17.2818 4.52576 17.1518 5.30777 16.7348 5.96876C16.7038 6.01776 16.6768 6.05976 7.14876 17.9798C6.68976 18.5518 6.00176 18.8848 5.26276 18.8938L1.62376 18.9398H1.61376Z" fill="#F0F0F0"/>
</g>
</g>
<path id="Fill 6" fill-rule="evenodd" clip-rule="evenodd" d="M14.2234 8.68474C14.0634 8.68474 13.9034 8.63375 13.7664 8.52975L8.31442 4.34175C7.98642 4.08975 7.92442 3.61975 8.17642 3.28975C8.42942 2.96175 8.89942 2.90075 9.22842 3.15275L14.6814 7.33975C15.0094 7.59174 15.0714 8.06275 14.8184 8.39175C14.6714 8.58375 14.4484 8.68474 14.2234 8.68474Z" fill="#F0F0F0"/>
</g>
</svg>
