<svg width="40" height="40" viewBox="0 0 40 40" fill="none" xmlns="http://www.w3.org/2000/svg">
<rect width="40" height="40" rx="8" fill="#404264"/>
<path fill-rule="evenodd" clip-rule="evenodd" d="M24.335 28.5C26.865 28.5 28.5 26.767 28.5 24.084L28.5 15.916C28.5 13.233 26.865 11.5 24.335 11.5L15.667 11.5C13.136 11.5 11.5 13.233 11.5 15.916L11.5 24.084C11.5 26.767 13.136 28.5 15.666 28.5L24.335 28.5ZM15.667 10L24.335 10C27.724 10 30 12.378 30 15.916L30 24.084C30 27.622 27.724 30 24.335 30L15.666 30C12.277 30 10 27.622 10 24.084L10 15.916C10 12.378 12.277 10 15.667 10Z" fill="white"/>
<path d="M29.5 25L11 25" stroke="white" stroke-width="1.5"/>
<path d="M17 25L17 11" stroke="white" stroke-width="1.5"/>
</svg>
