<svg width="24" height="27" viewBox="0 0 24 27" fill="none" xmlns="http://www.w3.org/2000/svg">
<path fill-rule="evenodd" clip-rule="evenodd" d="M16.4903 7.73389L4.96871 1.05211C4.53361 0.791512 4.02581 0.641113 3.48241 0.641113C2.36123 0.641113 1.37524 1.32039 0.902392 2.26998L0.988983 2.35655L11.4289 12.7943L16.4903 7.73389ZM0.608445 3.39016C0.606468 3.43249 0.605469 3.47501 0.605469 3.51768V23.4853C0.605469 23.5279 0.606467 23.5704 0.608441 23.6127L10.7218 13.5013L0.608445 3.39016ZM0.902417 24.7329C1.37534 25.6825 2.36147 26.3618 3.48241 26.3618C4.01411 26.3618 4.51331 26.218 4.94141 25.9657L4.97541 25.9458L16.5101 19.2884L11.429 14.2083L0.988987 24.6463L0.902417 24.7329ZM17.4068 18.7709L22.1039 16.0599C23.0062 15.5728 23.6187 14.6216 23.6187 13.5247C23.6187 12.4357 23.0144 11.4892 22.1211 11.0005L22.1109 10.9935L17.3854 8.25301L12.1361 13.5013L17.4068 18.7709Z" fill="white"/>
</svg>
