<svg width="16" height="16" viewBox="0 0 16 16" fill="none" xmlns="http://www.w3.org/2000/svg">
<path fill-rule="evenodd" clip-rule="evenodd" d="M8.21775 1.47312C8.32421 1.37756 8.46504 1.32747 8.60919 1.33389C11.6564 1.42511 14.2031 3.63721 14.6646 6.59376C14.6676 6.61142 14.6676 6.62942 14.6646 6.64707C14.6746 6.78696 14.6273 6.92497 14.5333 7.03058C14.4392 7.13618 14.3062 7.20067 14.1635 7.20978L9.04388 7.54741C8.87457 7.56242 8.70666 7.50671 8.58139 7.39396C8.45613 7.28121 8.38512 7.12187 8.38581 6.95508L8.04168 1.92622V1.8433C8.04794 1.70186 8.11129 1.56868 8.21775 1.47312ZM7.8666 8.86238L12.304 8.57806L12.3342 8.58991C12.5248 8.59302 12.7063 8.67029 12.8387 8.80471C12.9712 8.93912 13.0438 9.11967 13.0406 9.30662C12.8657 11.8547 10.9976 13.9837 8.45534 14.5322C5.91308 15.0807 3.30695 13.917 2.05868 11.6759C1.69164 11.0305 1.4597 10.3196 1.37647 9.58502C1.34418 9.36735 1.33005 9.14746 1.3342 8.92753C1.34262 6.21805 3.27168 3.87939 5.97087 3.30634C6.29763 3.24518 6.62524 3.40833 6.7678 3.7032C6.80329 3.75671 6.83169 3.81443 6.85232 3.87498C6.90292 4.65603 6.95541 5.42969 7.00767 6.20008C7.04894 6.8085 7.09008 7.41489 7.13004 8.02127C7.12798 8.16412 7.15043 8.30629 7.19645 8.44183C7.30479 8.7085 7.57441 8.8777 7.8666 8.86238Z" fill="#646693"/>
</svg>
