<svg width="25" height="24" viewBox="0 0 25 24" fill="none" xmlns="http://www.w3.org/2000/svg">
<mask id="mask0_2311_3677" style="mask-type:luminance" maskUnits="userSpaceOnUse" x="2" y="2" width="21" height="20">
<path fill-rule="evenodd" clip-rule="evenodd" d="M2.97998 2H22.9799V22H2.97998V2Z" fill="white"/>
</mask>
<g mask="url(#mask0_2311_3677)">
<path fill-rule="evenodd" clip-rule="evenodd" d="M8.64398 3.5C6.11498 3.5 4.47998 5.233 4.47998 7.916V16.084C4.47998 18.767 6.11498 20.5 8.64398 20.5H17.312C19.844 20.5 21.48 18.767 21.48 16.084V7.916C21.48 5.233 19.844 3.5 17.314 3.5H8.64398ZM17.312 22H8.64398C5.25598 22 2.97998 19.622 2.97998 16.084V7.916C2.97998 4.378 5.25598 2 8.64398 2H17.314C20.703 2 22.98 4.378 22.98 7.916V16.084C22.98 19.622 20.703 22 17.312 22Z" fill="white"/>
</g>
<path fill-rule="evenodd" clip-rule="evenodd" d="M12.9741 16.75C12.5601 16.75 12.2241 16.414 12.2241 16V12C12.2241 11.586 12.5601 11.25 12.9741 11.25C13.3881 11.25 13.7241 11.586 13.7241 12V16C13.7241 16.414 13.3881 16.75 12.9741 16.75Z" fill="white"/>
<path fill-rule="evenodd" clip-rule="evenodd" d="M12.9791 9.2041C12.4261 9.2041 11.9741 8.7571 11.9741 8.2041C11.9741 7.6511 12.4171 7.2041 12.9691 7.2041H12.9791C13.5321 7.2041 13.9791 7.6511 13.9791 8.2041C13.9791 8.7571 13.5321 9.2041 12.9791 9.2041Z" fill="white"/>
</svg>
