<svg width="24" height="24" viewBox="0 0 24 24" fill="none" xmlns="http://www.w3.org/2000/svg">
<path fill-rule="evenodd" clip-rule="evenodd" d="M7.665 22H16.334C19.7378 22 22 19.5705 22 16.084L22 7.916C22 4.4295 19.7378 2 16.334 2H7.665C4.2681 2 2 4.43296 2 7.916V16.084C2 19.5707 4.26137 22 7.665 22ZM16.334 20.5H7.665C5.11476 20.5 3.5 18.7653 3.5 16.084V7.916C3.5 5.23878 5.12096 3.5 7.665 3.5H16.334C18.8845 3.5 20.5 5.23496 20.5 7.916V16.084C20.5 18.765 18.8845 20.5 16.334 20.5ZM15.3006 14.116C15.5937 14.3345 16.0104 14.3112 16.2772 14.0455C16.5708 13.7532 16.5718 13.2783 16.2795 12.9848L12.5315 9.22081L12.4473 9.14782C12.1532 8.92884 11.7351 8.95317 11.4686 9.22081L7.72059 12.9848L7.64815 13.0691C7.43092 13.3632 7.45601 13.7798 7.72285 14.0455L7.80712 14.1179C8.1012 14.3351 8.51781 14.31 8.78351 14.0432L12.0009 10.8133L15.2166 14.0432L15.3006 14.116Z" fill="white"/>
</svg>
