<svg width="16" height="16" viewBox="0 0 16 16" fill="none" xmlns="http://www.w3.org/2000/svg">
<path fill-rule="evenodd" clip-rule="evenodd" d="M7.26037 0.418139H3.45372C1.54962 0.418139 0 1.96775 0 3.87342V12.5439C0 14.4496 1.54962 16 3.45372 16H7.2518C9.15746 16 10.7079 14.4496 10.7079 12.5439V11.8178C10.7079 11.4953 10.4461 11.2335 10.1235 11.2335C9.80099 11.2335 9.53922 11.4953 9.53922 11.8178V12.5439C9.53922 13.8061 8.51315 14.8314 7.2518 14.8314H3.45372C2.19393 14.8314 1.16864 13.8061 1.16864 12.5439V3.87342C1.16864 2.61206 2.19393 1.58678 3.45372 1.58678H7.26037C8.51627 1.58678 9.53922 2.60895 9.53922 3.86485V4.59953C9.53922 4.92208 9.80099 5.18385 10.1235 5.18385C10.4461 5.18385 10.7079 4.92208 10.7079 4.59953V3.86485C10.7079 1.96386 9.16058 0.418139 7.26037 0.418139Z" fill="#F84960"/>
<mask id="mask0_505_1289" style="mask-type:luminance" maskUnits="userSpaceOnUse" x="5" y="7" width="11" height="2">
<path fill-rule="evenodd" clip-rule="evenodd" d="M5.45026 8.7934H15.9999V7.62476H5.45026V8.7934Z" fill="white"/>
</mask>
<g mask="url(#mask0_505_1289)">
<path fill-rule="evenodd" clip-rule="evenodd" d="M15.4156 7.62476H6.03458C5.71203 7.62476 5.45026 7.88653 5.45026 8.20908C5.45026 8.53162 5.71203 8.7934 6.03458 8.7934H15.4156C15.7382 8.7934 16 8.53162 16 8.20908C16 7.88653 15.7382 7.62476 15.4156 7.62476Z" fill="#F84960"/>
</g>
<mask id="mask1_505_1289" style="mask-type:luminance" maskUnits="userSpaceOnUse" x="12" y="5" width="4" height="7">
<path fill-rule="evenodd" clip-rule="evenodd" d="M12.5507 11.0643H16V5.35292H12.5507V11.0643Z" fill="white"/>
</mask>
<g mask="url(#mask1_505_1289)">
<path fill-rule="evenodd" clip-rule="evenodd" d="M13.1348 5.35292C12.9853 5.35292 12.8349 5.40979 12.7211 5.5251C12.4937 5.75415 12.4944 6.12344 12.7227 6.35094L14.5879 8.20907L12.7227 10.0664C12.4944 10.2939 12.4929 10.6632 12.7211 10.8923C12.9486 11.1213 13.3179 11.1213 13.547 10.8938L15.8282 8.62277C15.9388 8.5137 16.0004 8.36411 16.0004 8.20907C16.0004 8.05403 15.9388 7.90445 15.8282 7.79537L13.547 5.52354C13.4332 5.40979 13.2837 5.35292 13.1348 5.35292Z" fill="#F84960"/>
</g>
</svg>
