<svg width="24" height="24" viewBox="0 0 24 24" fill="none" xmlns="http://www.w3.org/2000/svg">
<path fill-rule="evenodd" clip-rule="evenodd" d="M11.2604 4.41814H7.45372C5.54962 4.41814 4 5.96775 4 7.87342V16.5439C4 18.4496 5.54962 20 7.45372 20H11.2518C13.1575 20 14.7079 18.4496 14.7079 16.5439V15.8178C14.7079 15.4953 14.4461 15.2335 14.1235 15.2335C13.801 15.2335 13.5392 15.4953 13.5392 15.8178V16.5439C13.5392 17.8061 12.5131 18.8314 11.2518 18.8314H7.45372C6.19393 18.8314 5.16864 17.8061 5.16864 16.5439V7.87342C5.16864 6.61206 6.19393 5.58678 7.45372 5.58678H11.2604C12.5163 5.58678 13.5392 6.60895 13.5392 7.86485V8.59953C13.5392 8.92208 13.801 9.18385 14.1235 9.18385C14.4461 9.18385 14.7079 8.92208 14.7079 8.59953V7.86485C14.7079 5.96386 13.1606 4.41814 11.2604 4.41814Z" fill="#F84960"/>
<mask id="mask0_41_1576" style="mask-type:luminance" maskUnits="userSpaceOnUse" x="9" y="11" width="11" height="2">
<path fill-rule="evenodd" clip-rule="evenodd" d="M9.45026 12.7934H19.9999V11.6247H9.45026V12.7934Z" fill="white"/>
</mask>
<g mask="url(#mask0_41_1576)">
<path fill-rule="evenodd" clip-rule="evenodd" d="M19.4156 11.6247H10.0346C9.71203 11.6247 9.45026 11.8865 9.45026 12.2091C9.45026 12.5316 9.71203 12.7934 10.0346 12.7934H19.4156C19.7382 12.7934 20 12.5316 20 12.2091C20 11.8865 19.7382 11.6247 19.4156 11.6247Z" fill="#F84960"/>
</g>
<mask id="mask1_41_1576" style="mask-type:luminance" maskUnits="userSpaceOnUse" x="16" y="9" width="4" height="7">
<path fill-rule="evenodd" clip-rule="evenodd" d="M16.5507 15.0643H20V9.35293H16.5507V15.0643Z" fill="white"/>
</mask>
<g mask="url(#mask1_41_1576)">
<path fill-rule="evenodd" clip-rule="evenodd" d="M17.1348 9.35293C16.9853 9.35293 16.8349 9.4098 16.7211 9.5251C16.4937 9.75416 16.4944 10.1234 16.7227 10.3509L18.5879 12.2091L16.7227 14.0664C16.4944 14.2939 16.4929 14.6632 16.7211 14.8923C16.9486 15.1213 17.3179 15.1213 17.547 14.8938L19.8282 12.6228C19.9388 12.5137 20.0004 12.3641 20.0004 12.2091C20.0004 12.054 19.9388 11.9045 19.8282 11.7954L17.547 9.52355C17.4332 9.4098 17.2837 9.35293 17.1348 9.35293Z" fill="#F84960"/>
</g>
</svg>
