<svg xmlns="http://www.w3.org/2000/svg" width="18" height="20" viewBox="0 0 18 20" fill="none">
  <mask id="mask0_391_319" style="mask-type:luminance" maskUnits="userSpaceOnUse" x="0" y="0" width="18" height="20">
    <path fill-rule="evenodd" clip-rule="evenodd" d="M0 0.0117035H17.0522V19.8652H0V0.0117035Z" fill="white"/>
  </mask>
  <g mask="url(#mask0_391_319)">
    <path fill-rule="evenodd" clip-rule="evenodd" d="M4.5732 1.5117C2.9162 1.5117 1.5402 2.8537 1.5012 4.5087V15.2277C1.4652 16.9287 2.8052 18.3287 4.4902 18.3657H12.5732C14.2422 18.3057 15.5632 16.9287 15.5522 15.2327V6.3397L10.9182 1.5117H4.5852H4.5732ZM4.58507 19.8657H4.45907C1.94707 19.8117 -0.0529317 17.7237 0.00106828 15.2117V4.4907C0.0600683 2.0097 2.10807 0.0117035 4.57007 0.0117035H4.58807H11.2371C11.4411 0.0117035 11.6361 0.0947035 11.7781 0.241703L16.8441 5.5187C16.9771 5.6577 17.0521 5.8447 17.0521 6.0377V15.2277C17.0681 17.7367 15.1121 19.7757 12.5991 19.8657H4.58507Z" fill="white"/>
  </g>
  <path fill-rule="evenodd" clip-rule="evenodd" d="M16.2977 6.98431H13.5437C11.7127 6.97931 10.2257 5.48731 10.2257 3.65931V0.750305C10.2257 0.336305 10.5617 0.000305176 10.9757 0.000305176C11.3897 0.000305176 11.7257 0.336305 11.7257 0.750305V3.65931C11.7257 4.66331 12.5417 5.48131 13.5457 5.48431H16.2977C16.7117 5.48431 17.0477 5.82031 17.0477 6.23431C17.0477 6.64831 16.7117 6.98431 16.2977 6.98431Z" fill="white"/>
  <path fill-rule="evenodd" clip-rule="evenodd" d="M8.14258 14.7002C7.72858 14.7002 7.39258 14.3642 7.39258 13.9502V7.90921C7.39258 7.49521 7.72858 7.15921 8.14258 7.15921C8.55658 7.15921 8.89258 7.49521 8.89258 7.90921V13.9502C8.89258 14.3642 8.55658 14.7002 8.14258 14.7002Z" fill="white"/>
  <path fill-rule="evenodd" clip-rule="evenodd" d="M8.14125 14.6992C7.94225 14.6992 7.75025 14.6202 7.61025 14.4782L5.26525 12.1242C4.97325 11.8302 4.97425 11.3552 5.26725 11.0632C5.56125 10.7712 6.03625 10.7712 6.32825 11.0652L8.14125 12.8872L9.95425 11.0652C10.2463 10.7712 10.7213 10.7712 11.0153 11.0632C11.3083 11.3552 11.3093 11.8302 11.0173 12.1242L8.67225 14.4782C8.53225 14.6202 8.34025 14.6992 8.14125 14.6992Z" fill="white"/>
</svg>