<svg width="20" height="21" viewBox="0 0 20 21" fill="none" xmlns="http://www.w3.org/2000/svg">
<g id="API">
<g id="Group 37">
<g id="Volume Down">
<g id="Group 3">
<mask id="mask0_473_8359" style="mask-type:luminance" maskUnits="userSpaceOnUse" x="5" y="4" width="11" height="14">
<path id="Clip 2" fill-rule="evenodd" clip-rule="evenodd" d="M5.00293 4.30334H15.0196V17.2216H5.00293V4.30334Z" fill="white"/>
</mask>
<g mask="url(#mask0_473_8359)">
<path id="Fill 1" fill-rule="evenodd" clip-rule="evenodd" d="M12.6761 5.55829C11.9528 5.55829 11.0278 6.29246 10.2578 6.90413C9.51696 7.49163 8.93196 7.95663 8.34863 7.99996C8.09029 8.01829 7.86863 8.02663 7.67363 8.03329C7.05113 8.05413 6.89363 8.06829 6.61279 8.29996C6.24446 8.60246 6.25029 9.83829 6.25363 10.5758L6.25446 10.76V10.7633L6.25363 10.9475C6.25029 11.6858 6.24446 12.9216 6.61279 13.2241C6.89279 13.4558 7.05029 13.4691 7.67113 13.4916C7.86696 13.4975 8.08946 13.5058 8.34863 13.525C8.93196 13.5675 9.51696 14.0325 10.2578 14.62C11.177 15.3491 12.3161 16.2533 13.0703 15.8775C13.702 15.33 13.7695 13.8783 13.7695 10.7616C13.7695 7.64496 13.702 6.19413 13.0703 5.64579C12.9478 5.58496 12.8153 5.55829 12.6761 5.55829ZM12.6846 17.2216C11.5254 17.2216 10.3762 16.3091 9.48125 15.5991C9.07708 15.2783 8.46625 14.7933 8.25542 14.7716C8.01625 14.7533 7.80958 14.7458 7.62708 14.7408C6.96208 14.7166 6.43625 14.6991 5.81792 14.1891C4.99125 13.5083 4.99875 12.085 5.00375 10.9416L5.00458 10.7616L5.00375 10.5816C4.99875 9.43829 4.99125 8.01579 5.81792 7.33496C6.43708 6.82496 6.96375 6.80662 7.63042 6.78412C7.81208 6.77746 8.01792 6.77079 8.25708 6.75329C8.46625 6.73079 9.07708 6.24579 9.48125 5.92496C10.6462 4.99912 12.2438 3.73496 13.7312 4.58246C13.7571 4.59829 13.7829 4.61496 13.8062 4.63412C14.9679 5.54662 15.0196 7.26746 15.0196 10.7616C15.0196 14.2566 14.9679 15.9775 13.8062 16.8908C13.7829 16.9091 13.7571 16.9266 13.7304 16.9416C13.3854 17.1383 13.0346 17.2216 12.6846 17.2216Z" fill="#C6C7EB"/>
</g>
</g>
</g>
<path id="Vector 86" d="M4.99038 10.8569C3.93113 10.7009 1.85169 10.8595 2.00795 12.7418C2.20328 15.0948 8.36707 16.7464 4.80589 17.7093" stroke="#C6C7EB" stroke-width="1.5" stroke-linecap="round"/>
<rect id="Rectangle 435" x="14.1694" y="7.63647" width="5" height="1.25" rx="0.625" fill="#C6C7EB"/>
<rect id="Rectangle 436" x="14.1694" y="12.6365" width="5" height="1.25" rx="0.625" fill="#C6C7EB"/>
</g>
</g>
</svg>
