<svg width="24" height="24" viewBox="0 0 24 24" fill="none" xmlns="http://www.w3.org/2000/svg">
<path fill-rule="evenodd" clip-rule="evenodd" d="M12.25 7.84573C12.664 7.84573 13 8.18173 13 8.59573L13 15.9227C13 16.3367 12.664 16.6727 12.25 16.6727C11.836 16.6727 11.5 16.3367 11.5 15.9227L11.5 8.59573C11.5 8.18173 11.836 7.84573 12.25 7.84573Z" fill="#AA33B5"/>
<path fill-rule="evenodd" clip-rule="evenodd" d="M8.5835 11.5098L15.9165 11.5098C16.3315 11.5098 16.6665 11.8458 16.6665 12.2598C16.6665 12.6738 16.3315 13.0098 15.9165 13.0098L8.5835 13.0098C8.1695 13.0098 7.8335 12.6738 7.8335 12.2598C7.8335 11.8458 8.1695 11.5098 8.5835 11.5098Z" fill="#AA33B5"/>
<path fill-rule="evenodd" clip-rule="evenodd" d="M16.936 21.5C19.708 21.5 21.5 19.603 21.5 16.665L21.5 7.835C21.5 4.897 19.708 3 16.936 3L7.564 3C4.791 3 3 4.897 3 7.835L3 16.665C3 19.603 4.791 21.5 7.564 21.5L16.936 21.5ZM7.564 1.5L16.936 1.5C20.563 1.5 23 4.046 23 7.835L23 16.665C23 20.454 20.563 23 16.936 23L7.564 23C3.937 23 1.5 20.454 1.5 16.665L1.5 7.835C1.5 4.046 3.937 1.5 7.564 1.5Z" fill="#AA33B5"/>
</svg>
