<svg width="14" height="14" viewBox="0 0 14 14" fill="none" xmlns="http://www.w3.org/2000/svg">
<path fill-rule="evenodd" clip-rule="evenodd" d="M3.88683 0.333496H10.1068C12.3735 0.333496 13.6668 1.6135 13.6668 3.88683V10.1135C13.6668 12.3735 12.3802 13.6668 10.1135 13.6668H3.88683C1.6135 13.6668 0.333496 12.3735 0.333496 10.1135V3.88683C0.333496 1.6135 1.6135 0.333496 3.88683 0.333496ZM7.54683 7.5535H9.44016C9.74683 7.54683 9.9935 7.30016 9.9935 6.9935C9.9935 6.68683 9.74683 6.44016 9.44016 6.44016H7.54683V4.56016C7.54683 4.2535 7.30016 4.00683 6.9935 4.00683C6.68683 4.00683 6.44016 4.2535 6.44016 4.56016V6.44016H4.5535C4.40683 6.44016 4.26683 6.50016 4.16016 6.60016C4.06016 6.70683 4.00016 6.84616 4.00016 6.9935C4.00016 7.30016 4.24683 7.54683 4.5535 7.5535H6.44016V9.44016C6.44016 9.74683 6.68683 9.9935 6.9935 9.9935C7.30016 9.9935 7.54683 9.74683 7.54683 9.44016V7.5535Z" fill="white"/>
</svg>
