<svg width="16" height="16" viewBox="0 0 24 24" fill="none" xmlns="http://www.w3.org/2000/svg">
<path fill-rule="evenodd" clip-rule="evenodd" d="M17.9586 22.4649L23.195 15.6932C23.4795 15.3281 23.5807 14.9059 23.4859 14.476C23.4037 14.0852 23.1633 13.7136 22.8029 13.4318L21.9238 12.7334C21.1586 12.1248 20.21 12.1889 19.6661 12.8872L19.0779 13.6502C19.002 13.7457 19.021 13.8866 19.1159 13.9635C19.1159 13.9635 20.602 15.1551 20.6337 15.1807C20.7349 15.2768 20.8107 15.405 20.8298 15.5587C20.8613 15.8598 20.6526 16.1417 20.3428 16.1801C20.1973 16.1994 20.0582 16.1545 19.957 16.0712L18.3949 14.8284C18.319 14.7713 18.2052 14.7835 18.142 14.8604L14.4297 19.6653C14.1894 19.9664 14.1072 20.3571 14.1894 20.7352L14.6637 22.7916C14.689 22.9005 14.7838 22.9774 14.8977 22.9774L16.9846 22.9518C17.3641 22.9454 17.7183 22.7724 17.9586 22.4649Z" fill="#646693"/>
<path fill-rule="evenodd" clip-rule="evenodd" d="M20.7656 12.3221C20.7961 12.3211 20.8271 12.3243 20.8578 12.3251C20.8428 12.3247 20.8275 12.3168 20.8126 12.3168C20.7966 12.3168 20.7815 12.3216 20.7656 12.3221Z" fill="#646693"/>
<path fill-rule="evenodd" clip-rule="evenodd" d="M18.2764 14.7975C18.3179 14.7954 18.3607 14.8026 18.3949 14.8284C18.3632 14.8046 18.3249 14.7928 18.2864 14.7928C18.2827 14.7928 18.2801 14.7972 18.2764 14.7975Z" fill="#646693"/>
<path fill-rule="evenodd" clip-rule="evenodd" d="M12.8214 21.0326C12.648 20.2352 12.8354 19.4185 13.3218 18.8093L14.4805 17.31H8.08002C7.78003 17.35 7.48999 17.2 7.33002 16.95C7.16999 16.69 7.16999 16.36 7.33002 16.11C7.48999 15.85 7.78003 15.71 8.08002 15.74H15.6937L17.0609 13.9708C17.2221 13.7751 17.4242 13.6238 17.65 13.5251C17.6911 13.2644 17.7967 13.0124 17.9691 12.7955L18.5616 12.0269C19.1111 11.3215 19.9315 10.9168 20.8126 10.9168C20.8756 10.9168 20.9373 10.9294 21 10.9334V6.83002C21 3.78003 19.28 2 16.191 2H7.81C4.77002 2 3 3.78003 3 6.83002V17.16C3 20.26 4.77002 22 7.81 22H13.0445L12.8214 21.0326ZM8.08002 6.65997V6.65002H11.069C11.5 6.65002 11.85 7 11.85 7.42902C11.85 7.87 11.5 8.21997 11.069 8.21997H8.08002C7.64899 8.21997 7.29999 7.87 7.29999 7.44C7.29999 7.01 7.64899 6.65997 8.08002 6.65997ZM8.08002 11.179H15.92C16.35 11.179 16.7 11.53 16.7 11.96C16.7 12.39 16.35 12.74 15.92 12.74H8.08002C7.64899 12.74 7.29999 12.39 7.29999 11.96C7.29999 11.53 7.64899 11.179 8.08002 11.179Z" fill="#646693"/>
</svg>
