<svg width="33" height="33" viewBox="0 0 33 33" fill="none" xmlns="http://www.w3.org/2000/svg">
<g id="Qrcode">
<path id="Vector" d="M14.8367 2.78284H3.83671C3.20456 2.78284 2.69385 3.29355 2.69385 3.92569V14.9257C2.69385 15.0828 2.82242 15.2114 2.97956 15.2114H14.8367C14.9939 15.2114 15.1224 15.0828 15.1224 14.9257V3.06855C15.1224 2.91141 14.9939 2.78284 14.8367 2.78284ZM12.8367 12.9257H4.97956V5.06855H12.8367V12.9257ZM7.90813 10.2828H9.90814C10.0653 10.2828 10.1938 10.1543 10.1938 9.99712V7.99712C10.1938 7.83998 10.0653 7.71141 9.90814 7.71141H7.90813C7.75099 7.71141 7.62242 7.83998 7.62242 7.99712V9.99712C7.62242 10.1543 7.75099 10.2828 7.90813 10.2828ZM14.8367 17.7828H2.97956C2.82242 17.7828 2.69385 17.9114 2.69385 18.0686V29.0686C2.69385 29.7007 3.20456 30.2114 3.83671 30.2114H14.8367C14.9939 30.2114 15.1224 30.0828 15.1224 29.9257V18.0686C15.1224 17.9114 14.9939 17.7828 14.8367 17.7828ZM12.8367 27.9257H4.97956V20.0686H12.8367V27.9257ZM7.90813 25.2828H9.90814C10.0653 25.2828 10.1938 25.1543 10.1938 24.9971V22.9971C10.1938 22.84 10.0653 22.7114 9.90814 22.7114H7.90813C7.75099 22.7114 7.62242 22.84 7.62242 22.9971V24.9971C7.62242 25.1543 7.75099 25.2828 7.90813 25.2828ZM28.9796 2.78284H17.9796C17.8224 2.78284 17.6939 2.91141 17.6939 3.06855V14.9257C17.6939 15.0828 17.8224 15.2114 17.9796 15.2114H29.8367C29.9939 15.2114 30.1224 15.0828 30.1224 14.9257V3.92569C30.1224 3.29355 29.6117 2.78284 28.9796 2.78284ZM27.8367 12.9257H19.9796V5.06855H27.8367V12.9257ZM22.9081 10.2828H24.9081C25.0653 10.2828 25.1939 10.1543 25.1939 9.99712V7.99712C25.1939 7.83998 25.0653 7.71141 24.9081 7.71141H22.9081C22.751 7.71141 22.6224 7.83998 22.6224 7.99712V9.99712C22.6224 10.1543 22.751 10.2828 22.9081 10.2828ZM29.8367 17.7828H28.1224C27.9653 17.7828 27.8367 17.9114 27.8367 18.0686V22.8543H25.051V18.0686C25.051 17.9114 24.9224 17.7828 24.7653 17.7828H17.9796C17.8224 17.7828 17.6939 17.9114 17.6939 18.0686V29.9257C17.6939 30.0828 17.8224 30.2114 17.9796 30.2114H19.6939C19.851 30.2114 19.9796 30.0828 19.9796 29.9257V21.2114H22.7653V24.8543C22.7653 25.0114 22.8939 25.14 23.051 25.14H29.8367C29.9939 25.14 30.1224 25.0114 30.1224 24.8543V18.0686C30.1224 17.9114 29.9939 17.7828 29.8367 17.7828ZM24.7653 27.9257H23.051C22.8939 27.9257 22.7653 28.0543 22.7653 28.2114V29.9257C22.7653 30.0828 22.8939 30.2114 23.051 30.2114H24.7653C24.9224 30.2114 25.051 30.0828 25.051 29.9257V28.2114C25.051 28.0543 24.9224 27.9257 24.7653 27.9257ZM29.8367 27.9257H28.1224C27.9653 27.9257 27.8367 28.0543 27.8367 28.2114V29.9257C27.8367 30.0828 27.9653 30.2114 28.1224 30.2114H29.8367C29.9939 30.2114 30.1224 30.0828 30.1224 29.9257V28.2114C30.1224 28.0543 29.9939 27.9257 29.8367 27.9257Z" fill="white"/>
</g>
</svg>
