<svg width="24" height="24" viewBox="0 0 16 16" fill="none" xmlns="http://www.w3.org/2000/svg">
<path fill-rule="evenodd" clip-rule="evenodd" d="M4.16634 2.33337C2.33301 2.33337 2.33301 2.47204 2.33301 4.16671V4.18337C2.33301 4.92137 2.33301 5.45471 2.51367 5.68004C2.69034 5.89871 3.21501 6.00004 4.16634 6.00004C5.11767 6.00004 5.64234 5.89804 5.81901 5.67937C5.99967 5.45471 5.99967 4.92137 5.99967 4.18271C5.99967 2.47204 5.99967 2.33337 4.16634 2.33337M4.16634 7.00004C3.04234 7.00004 2.19901 6.88204 1.73567 6.30671C1.33301 5.80737 1.33301 5.12604 1.33301 4.18337L1.83301 4.16671H1.33301C1.33301 2.25337 1.45367 1.33337 4.16634 1.33337C6.87901 1.33337 6.99967 2.25337 6.99967 4.16671C6.99967 5.12537 6.99967 5.80737 6.59701 6.30671C6.13367 6.88204 5.29034 7.00004 4.16634 7.00004" fill="#7B7DB2"/>
<path fill-rule="evenodd" clip-rule="evenodd" d="M11.4993 2.33337C9.66602 2.33337 9.66602 2.47204 9.66602 4.16671V4.18337C9.66602 4.92137 9.66602 5.45471 9.84668 5.68004C10.0233 5.89871 10.548 6.00004 11.4993 6.00004C12.4507 6.00004 12.9753 5.89804 13.152 5.67937C13.3327 5.45471 13.3327 4.92137 13.3327 4.18271C13.3327 2.47204 13.3327 2.33337 11.4993 2.33337M11.4993 7.00004C10.3753 7.00004 9.53202 6.88204 9.06868 6.30671C8.66602 5.80737 8.66602 5.12604 8.66602 4.18337L9.16602 4.16671H8.66602C8.66602 2.25337 8.78668 1.33337 11.4993 1.33337C14.212 1.33337 14.3327 2.25337 14.3327 4.16671C14.3327 5.12537 14.3327 5.80737 13.93 6.30671C13.4667 6.88204 12.6233 7.00004 11.4993 7.00004" fill="#7B7DB2"/>
<path fill-rule="evenodd" clip-rule="evenodd" d="M4.16634 9.66675C2.33301 9.66675 2.33301 9.80541 2.33301 11.5001V11.5167C2.33301 12.2547 2.33301 12.7881 2.51367 13.0134C2.69034 13.2321 3.21501 13.3334 4.16634 13.3334C5.11767 13.3334 5.64234 13.2314 5.81901 13.0127C5.99967 12.7881 5.99967 12.2547 5.99967 11.5161C5.99967 9.80541 5.99967 9.66675 4.16634 9.66675M4.16634 14.3334C3.04234 14.3334 2.19901 14.2154 1.73567 13.6401C1.33301 13.1407 1.33301 12.4594 1.33301 11.5167L1.83301 11.5001H1.33301C1.33301 9.58675 1.45367 8.66675 4.16634 8.66675C6.87901 8.66675 6.99967 9.58675 6.99967 11.5001C6.99967 12.4587 6.99967 13.1407 6.59701 13.6401C6.13367 14.2154 5.29034 14.3334 4.16634 14.3334" fill="#7B7DB2"/>
<path fill-rule="evenodd" clip-rule="evenodd" d="M13.9306 13.64C13.5388 14.1265 12.8752 14.286 11.9999 14.3236C11.9999 14.3236 11.6667 14.3123 11.6667 13.8228C11.6667 13.3333 11.9999 13.322 11.9999 13.322C12.6394 13.29 13.0098 13.1895 13.1526 13.0126C13.291 12.8406 13.3234 12.4876 13.331 12C13.331 12 13.3333 11.6666 13.8309 11.6666C14.3284 11.6666 14.3308 12 14.3308 12C14.3197 12.7026 14.2594 13.2322 13.9306 13.64ZM14.3284 11C14.2923 9.53947 14.0099 8.78029 11.9999 8.67849C11.9999 8.67849 11.6667 8.66665 11.6667 9.17541C11.6667 9.68417 11.9999 9.67233 11.9999 9.67233C13.1678 9.70578 13.3127 9.91483 13.3307 11C13.3307 11 13.3333 11.3333 13.8295 11.3333C14.3258 11.3333 14.3284 11 14.3284 11ZM9.66897 11C9.68615 9.91501 9.82803 9.70575 10.9999 9.67231C10.9999 9.67231 11.3333 9.68416 11.3333 9.1754C11.3333 8.66665 10.9999 8.67849 10.9999 8.67849C8.98999 8.78029 8.70755 9.53947 8.67153 11C8.67153 11 8.66667 11.3333 9.17025 11.3333C9.67383 11.3333 9.66897 11 9.66897 11ZM9.66893 12C9.66893 12 9.67121 11.6666 9.16894 11.6666C8.66667 11.6666 8.66895 12 8.66895 12C8.67961 12.6983 8.73897 13.2304 9.06928 13.64C9.4611 14.1265 10.1247 14.286 10.9999 14.3236C10.9999 14.3236 11.3333 14.3236 11.3333 13.8228C11.3333 13.3221 10.9999 13.3221 10.9999 13.3221C10.3605 13.2902 9.99012 13.1901 9.84728 13.0133C9.7089 12.8407 9.67651 12.4875 9.66893 12Z" fill="#7B7DB2"/>
<path fill-rule="evenodd" clip-rule="evenodd" d="M4.66667 4.16667C4.66667 3.89052 4.44281 3.66667 4.16667 3.66667V3.66667C3.89052 3.66667 3.66667 3.89052 3.66667 4.16667V4.16667C3.66667 4.44281 3.89052 4.66667 4.16667 4.66667V4.66667C4.44281 4.66667 4.66667 4.44281 4.66667 4.16667V4.16667ZM3.66667 3C3.29848 3 3 3.29848 3 3.66667V4.66667C3 5.03486 3.29848 5.33333 3.66667 5.33333H4.66667C5.03486 5.33333 5.33333 5.03486 5.33333 4.66667V3.66667C5.33333 3.29848 5.03486 3 4.66667 3H3.66667Z" fill="#7B7DB2"/>
</svg>
