<svg width="24" height="24" viewBox="0 0 24 24" fill="none" xmlns="http://www.w3.org/2000/svg">
<path fill-rule="evenodd" clip-rule="evenodd" d="M16.5771 22.3687H7.7531C4.3121 22.3687 2.0001 19.9537 2.0001 16.3597V8.0457C2.0001 4.4517 4.3121 2.0367 7.7531 2.0367H11.4921C11.9061 2.0367 12.2421 2.3727 12.2421 2.7867C12.2421 3.2007 11.9061 3.5367 11.4921 3.5367H7.7531C5.1691 3.5367 3.5001 5.3067 3.5001 8.0457V16.3597C3.5001 19.0987 5.1691 20.8687 7.7531 20.8687H16.5771C19.1611 20.8687 20.8311 19.0987 20.8311 16.3597V12.3317C20.8311 11.9177 21.1671 11.5817 21.5811 11.5817C21.9951 11.5817 22.3311 11.9177 22.3311 12.3317V16.3597C22.3311 19.9537 20.0181 22.3687 16.5771 22.3687" fill="#0B0B1E"/>
<path d="M17.4968 2.76108C17.4968 3.18535 17.8504 3.5389 18.2747 3.5389L19.8303 3.5389L12.2661 11.1031C11.9833 11.386 11.9126 11.881 12.2661 12.2345C12.549 12.5174 13.0439 12.5881 13.3975 12.2345L20.9617 4.67027L20.9617 6.22591C20.9617 6.65017 21.3152 7.00373 21.7395 7.00373C22.1637 7.00373 22.5173 6.65017 22.5173 6.22591L22.5173 2.8318C22.5173 2.69037 22.4466 2.47824 22.3052 2.33682C22.1637 2.1954 21.9516 2.12469 21.8102 2.12469L18.4161 2.12469C17.8504 1.98327 17.4968 2.33682 17.4968 2.76108Z" fill="#0B0B1E"/>
</svg>
