<svg width="19" height="18" viewBox="0 0 19 18" fill="none" xmlns="http://www.w3.org/2000/svg">
<g id="Group 43">
<g id="Group 44">
<g id="Ellipse 52">
<mask id="path-1-inside-1_333_1641" fill="white">
<path d="M10.6363 16.6128C10.7277 17.0672 10.4335 17.5141 9.9723 17.5608C8.47263 17.7128 6.95395 17.4685 5.57066 16.8454C3.93141 16.107 2.56462 14.8737 1.66226 13.3187C0.759907 11.7636 0.367307 9.965 0.539604 8.17539C0.7119 6.38578 1.44044 4.69509 2.6229 3.34077C3.80536 1.98645 5.38234 1.03654 7.13235 0.624437C8.88237 0.212339 10.7175 0.358758 12.3801 1.04313C14.0426 1.72751 15.449 2.91546 16.4018 4.44014C17.2057 5.72675 17.6526 7.1986 17.7043 8.70507C17.7201 9.16831 17.3171 9.52018 16.8545 9.49088V9.49088C16.3919 9.46158 16.046 9.06179 16.0192 8.59905C15.9522 7.44366 15.5963 6.31866 14.9783 5.32964C14.2114 4.10238 13.0793 3.14617 11.7411 2.59529C10.4029 2.04442 8.92573 1.92656 7.51709 2.25827C6.10845 2.58998 4.8391 3.3546 3.88731 4.44473C2.93551 5.53486 2.34909 6.89574 2.2104 8.33625C2.07172 9.77676 2.38773 11.2245 3.11406 12.4762C3.8404 13.7279 4.94056 14.7207 6.26004 15.315C7.32338 15.794 8.4861 15.9949 9.63997 15.9054C10.1021 15.8696 10.5449 16.1584 10.6363 16.6128V16.6128Z"/>
</mask>
<path d="M10.6363 16.6128C10.7277 17.0672 10.4335 17.5141 9.9723 17.5608C8.47263 17.7128 6.95395 17.4685 5.57066 16.8454C3.93141 16.107 2.56462 14.8737 1.66226 13.3187C0.759907 11.7636 0.367307 9.965 0.539604 8.17539C0.7119 6.38578 1.44044 4.69509 2.6229 3.34077C3.80536 1.98645 5.38234 1.03654 7.13235 0.624437C8.88237 0.212339 10.7175 0.358758 12.3801 1.04313C14.0426 1.72751 15.449 2.91546 16.4018 4.44014C17.2057 5.72675 17.6526 7.1986 17.7043 8.70507C17.7201 9.16831 17.3171 9.52018 16.8545 9.49088V9.49088C16.3919 9.46158 16.046 9.06179 16.0192 8.59905C15.9522 7.44366 15.5963 6.31866 14.9783 5.32964C14.2114 4.10238 13.0793 3.14617 11.7411 2.59529C10.4029 2.04442 8.92573 1.92656 7.51709 2.25827C6.10845 2.58998 4.8391 3.3546 3.88731 4.44473C2.93551 5.53486 2.34909 6.89574 2.2104 8.33625C2.07172 9.77676 2.38773 11.2245 3.11406 12.4762C3.8404 13.7279 4.94056 14.7207 6.26004 15.315C7.32338 15.794 8.4861 15.9949 9.63997 15.9054C10.1021 15.8696 10.5449 16.1584 10.6363 16.6128V16.6128Z" stroke="white" stroke-width="3" stroke-linecap="round" stroke-linejoin="round" mask="url(#path-1-inside-1_333_1641)"/>
</g>
<path id="Vector 85 (Stroke)" fill-rule="evenodd" clip-rule="evenodd" d="M18.2267 8.70177L18.683 9.19799C18.9351 8.92394 18.9351 8.4796 18.683 8.20555C18.431 7.9315 18.0219 7.93198 17.7699 8.20603L18.2267 8.70177ZM15.1888 8.20555C15.4408 7.9315 15.8495 7.93151 16.1015 8.20556L16.9359 8.70177L17.2145 8.58981C17.4259 8.50485 17.6157 8.37373 17.7699 8.20603V8.20603L18.683 9.19799L18.0406 9.89657L16.9359 11.0977L15.1892 9.19846C14.9372 8.92441 14.9367 8.4796 15.1888 8.20555Z" fill="white"/>
</g>
</g>
</svg>
