<svg width="32" height="32" viewBox="0 0 32 32" fill="none" xmlns="http://www.w3.org/2000/svg">
<mask id="path-1-inside-1_4026_11099" fill="white">
<path d="M26.1502 15.1509C26.7561 15.029 27.3519 15.4214 27.4142 16.0363C27.6169 18.0358 27.2912 20.0607 26.4604 21.9051C25.4758 24.0908 23.8314 25.9132 21.758 27.1163C19.6846 28.3195 17.2865 28.8429 14.9003 28.6132C12.5142 28.3835 10.2599 27.4121 8.45415 25.8355C6.64839 24.2589 5.38183 22.1562 4.83237 19.8229C4.2829 17.4895 4.47813 15.0427 5.39063 12.8259C6.30313 10.6092 7.88706 8.73402 9.91997 7.46368C11.6354 6.3917 13.5979 5.79588 15.6065 5.72701C16.2242 5.70583 16.6934 6.24322 16.6543 6.86C16.6152 7.47678 16.0822 7.93802 15.4652 7.97379C13.9247 8.06312 12.4247 8.5376 11.106 9.36163C9.46962 10.3842 8.19467 11.8936 7.46018 13.6779C6.72568 15.4622 6.56854 17.4317 7.01082 19.3099C7.4531 21.1881 8.47258 22.8806 9.92609 24.1496C11.3796 25.4187 13.1941 26.2006 15.1148 26.3855C17.0355 26.5704 18.9658 26.149 20.6347 25.1806C22.3037 24.2122 23.6273 22.7453 24.4198 20.986C25.0585 19.5682 25.3263 18.0179 25.207 16.4794C25.1592 15.8632 25.5444 15.2728 26.1502 15.1509Z"/>
</mask>
<path d="M26.1502 15.1509C26.7561 15.029 27.3519 15.4214 27.4142 16.0363C27.6169 18.0358 27.2912 20.0607 26.4604 21.9051C25.4758 24.0908 23.8314 25.9132 21.758 27.1163C19.6846 28.3195 17.2865 28.8429 14.9003 28.6132C12.5142 28.3835 10.2599 27.4121 8.45415 25.8355C6.64839 24.2589 5.38183 22.1562 4.83237 19.8229C4.2829 17.4895 4.47813 15.0427 5.39063 12.8259C6.30313 10.6092 7.88706 8.73402 9.91997 7.46368C11.6354 6.3917 13.5979 5.79588 15.6065 5.72701C16.2242 5.70583 16.6934 6.24322 16.6543 6.86C16.6152 7.47678 16.0822 7.93802 15.4652 7.97379C13.9247 8.06312 12.4247 8.5376 11.106 9.36163C9.46962 10.3842 8.19467 11.8936 7.46018 13.6779C6.72568 15.4622 6.56854 17.4317 7.01082 19.3099C7.4531 21.1881 8.47258 22.8806 9.92609 24.1496C11.3796 25.4187 13.1941 26.2006 15.1148 26.3855C17.0355 26.5704 18.9658 26.149 20.6347 25.1806C22.3037 24.2122 23.6273 22.7453 24.4198 20.986C25.0585 19.5682 25.3263 18.0179 25.207 16.4794C25.1592 15.8632 25.5444 15.2728 26.1502 15.1509Z" stroke="#404264" stroke-width="3" stroke-linecap="round" stroke-linejoin="round" mask="url(#path-1-inside-1_4026_11099)"/>
<path fill-rule="evenodd" clip-rule="evenodd" d="M15.6023 5.03043L16.2639 4.42197C15.8985 4.08591 15.3061 4.0859 14.9407 4.42195C14.5753 4.75801 14.5759 5.30344 14.9413 5.63949L15.6023 5.03043ZM14.9407 9.08096C14.5753 8.74491 14.5753 8.20005 14.9407 7.864L15.6023 6.75146L15.4497 6.3718C15.3386 6.09533 15.1671 5.84718 14.9478 5.64548L14.9413 5.63949L16.2639 4.42197L17.1954 5.27859L18.7969 6.75146L16.2646 9.08038C15.8992 9.41643 15.3061 9.41702 14.9407 9.08096Z" fill="#404264"/>
</svg>
