<svg width="18" height="18" viewBox="0 0 18 18" fill="none" xmlns="http://www.w3.org/2000/svg">
<path d="M15.8625 15.0188L12.3187 11.475C13.1625 10.4625 13.6125 9.16876 13.6125 7.76251C13.6125 4.55626 10.9688 1.91251 7.7625 1.91251C4.55625 1.91251 1.96875 4.61251 1.96875 7.81876C1.96875 11.025 4.6125 13.6688 7.81875 13.6688C9.225 13.6688 10.5188 13.1625 11.5312 12.3188L15.0188 15.8063C15.1313 15.9188 15.3 15.975 15.4125 15.975C15.525 15.975 15.6938 15.9188 15.8063 15.8063C16.0875 15.6375 16.0875 15.2438 15.8625 15.0188ZM7.81875 12.5438C5.23125 12.5438 3.09375 10.4063 3.09375 7.81876C3.09375 5.23126 5.23125 3.09376 7.81875 3.09376C10.4062 3.09376 12.5437 5.23126 12.5437 7.81876C12.5437 10.4063 10.4062 12.5438 7.81875 12.5438Z" fill="#585A92"/>
</svg>
