<svg width="16" height="16" viewBox="0 0 16 16" fill="none" xmlns="http://www.w3.org/2000/svg">
<path d="M14.2904 1.72133C13.9569 1.37908 13.4634 1.25157 13.0032 1.38579L2.27216 4.50636C1.78663 4.64125 1.44249 5.02847 1.34978 5.52038C1.25508 6.02101 1.58588 6.65654 2.01806 6.92229L5.37343 8.98455C5.71757 9.19594 6.16175 9.14293 6.44654 8.8557L10.2888 4.98954C10.4822 4.78822 10.8023 4.78822 10.9957 4.98954C11.1891 5.18416 11.1891 5.49957 10.9957 5.7009L7.14682 9.56773C6.86137 9.85428 6.80802 10.3006 7.0181 10.6468L9.06828 14.0359C9.30837 14.4385 9.72188 14.6667 10.1754 14.6667C10.2288 14.6667 10.2888 14.6667 10.3421 14.66C10.8623 14.5929 11.2758 14.2372 11.4292 13.7339L14.6105 3.01654C14.7506 2.5602 14.6239 2.06359 14.2904 1.72133Z" fill="#646693"/>
</svg>
