<svg width="14" height="14" viewBox="0 0 14 14" fill="none" xmlns="http://www.w3.org/2000/svg">
<path d="M13.2902 0.721485C12.9568 0.379228 12.4632 0.251721 12.003 0.385939L1.27198 3.50651C0.786445 3.6414 0.442304 4.02862 0.3496 4.52053C0.254894 5.02116 0.585696 5.65669 1.01787 5.92244L4.37325 7.9847C4.71739 8.1961 5.16157 8.14308 5.44635 7.85585L9.28859 3.9897C9.48201 3.78837 9.80214 3.78837 9.99555 3.9897C10.189 4.18431 10.189 4.49973 9.99555 4.70105L6.14664 8.56788C5.86119 8.85444 5.80783 9.30071 6.01792 9.64699L8.06809 13.036C8.30819 13.4387 8.72169 13.6668 9.17521 13.6668C9.22857 13.6668 9.28859 13.6668 9.34195 13.6601C9.86216 13.593 10.2757 13.2373 10.4291 12.734L13.6104 2.01669C13.7504 1.56035 13.6237 1.06374 13.2902 0.721485Z" fill="white"/>
</svg>
