<svg width="20" height="20" viewBox="0 0 20 20" fill="none" xmlns="http://www.w3.org/2000/svg">
<path fill-rule="evenodd" clip-rule="evenodd" d="M6.38734 2.91675C4.279 2.91675 2.9165 4.36091 2.9165 6.59675V13.4034C2.9165 15.6392 4.279 17.0834 6.38734 17.0834H13.6107C15.7198 17.0834 17.0832 15.6392 17.0832 13.4034V6.59675C17.0832 4.36091 15.7198 2.91675 13.6115 2.91675H6.38734ZM13.6107 18.3334H6.38734C3.56317 18.3334 1.6665 16.3517 1.6665 13.4034V6.59675C1.6665 3.64841 3.56317 1.66675 6.38734 1.66675H13.6115C16.4357 1.66675 18.3332 3.64841 18.3332 6.59675V13.4034C18.3332 16.3517 16.4357 18.3334 13.6107 18.3334Z" fill="#4EBC87"/>
<path fill-rule="evenodd" clip-rule="evenodd" d="M9.01133 12.6025C8.85216 12.6025 8.69133 12.5417 8.56966 12.4192L6.59133 10.4417C6.34716 10.1975 6.34716 9.8025 6.59133 9.55833C6.83549 9.31416 7.23049 9.31416 7.47466 9.55833L9.01133 11.0933L12.5247 7.58083C12.7688 7.33666 13.1638 7.33666 13.408 7.58083C13.6522 7.825 13.6522 8.22 13.408 8.46416L9.45299 12.4192C9.33133 12.5417 9.17133 12.6025 9.01133 12.6025Z" fill="#4EBC87"/>
</svg>
