<svg width="14" height="14" viewBox="0 0 14 14" fill="none" xmlns="http://www.w3.org/2000/svg">
<path fill-rule="evenodd" clip-rule="evenodd" d="M4.11301 0.333252H9.89301C12.153 0.333252 13.6663 1.91992 13.6663 4.27992V9.72725C13.6663 12.0799 12.153 13.6666 9.89301 13.6666H4.11301C1.85301 13.6666 0.333008 12.0799 0.333008 9.72725V4.27992C0.333008 1.91992 1.85301 0.333252 4.11301 0.333252ZM6.61967 8.99325L9.78634 5.82659C10.013 5.59992 10.013 5.23325 9.78634 4.99992C9.55968 4.77325 9.18634 4.77325 8.95967 4.99992L6.20634 7.75325L5.03967 6.58659C4.81301 6.35992 4.43967 6.35992 4.21301 6.58659C3.98634 6.81325 3.98634 7.17992 4.21301 7.41325L5.79967 8.99325C5.91301 9.10659 6.05967 9.15992 6.20634 9.15992C6.35967 9.15992 6.50634 9.10659 6.61967 8.99325Z" fill="#646693"/>
</svg>
