<svg width="24" height="24" viewBox="0 0 24 24" fill="none" xmlns="http://www.w3.org/2000/svg">
<path fill-rule="evenodd" clip-rule="evenodd" d="M21.3095 14.7978H17.5812C15.834 14.7978 14.412 13.3767 14.4111 11.6304C14.4111 9.88232 15.8331 8.46027 17.5812 8.45935H21.3095C21.6908 8.45935 22.0003 8.76881 22.0003 9.15011C22.0003 9.53141 21.6908 9.84087 21.3095 9.84087H17.5812C16.5948 9.84179 15.7926 10.644 15.7926 11.6295C15.7926 12.614 16.5957 13.4163 17.5812 13.4163H21.3095C21.6908 13.4163 22.0003 13.7257 22.0003 14.107C22.0003 14.4883 21.6908 14.7978 21.3095 14.7978Z" fill="white"/>
<path fill-rule="evenodd" clip-rule="evenodd" d="M18.002 12.2631H17.7147C17.3334 12.2631 17.0239 11.9537 17.0239 11.5724C17.0239 11.1911 17.3334 10.8816 17.7147 10.8816H18.002C18.3833 10.8816 18.6928 11.1911 18.6928 11.5724C18.6928 11.9537 18.3833 12.2631 18.002 12.2631Z" fill="white"/>
<mask id="mask0_8_637" style="mask-type:luminance" maskUnits="userSpaceOnUse" x="2" y="2" width="20" height="19">
<path fill-rule="evenodd" clip-rule="evenodd" d="M2.99121 2.92073H21.9997V20.5793H2.99121V2.92073Z" fill="white"/>
</mask>
<g mask="url(#mask0_8_637)">
<path fill-rule="evenodd" clip-rule="evenodd" d="M8.51587 4.30226C6.23175 4.30226 4.37314 6.16087 4.37314 8.44499V15.0551C4.37314 17.3392 6.23175 19.1979 8.51587 19.1979H16.4771C18.7612 19.1979 20.6189 17.3392 20.6189 15.0551V8.44499C20.6189 6.16087 18.7612 4.30226 16.4771 4.30226H8.51587ZM16.4763 20.5794H8.51507C5.46927 20.5794 2.99081 18.1009 2.99081 15.0551V8.44498C2.99081 5.39826 5.46927 2.92073 8.51507 2.92073H16.4763C19.5221 2.92073 21.9997 5.39826 21.9997 8.44498V15.0551C21.9997 18.1009 19.5221 20.5794 16.4763 20.5794Z" fill="white"/>
</g>
<path fill-rule="evenodd" clip-rule="evenodd" d="M12.8318 8.48191H7.85922C7.47792 8.48191 7.16846 8.17245 7.16846 7.79115C7.16846 7.40985 7.47792 7.10039 7.85922 7.10039H12.8318C13.2131 7.10039 13.5225 7.40985 13.5225 7.79115C13.5225 8.17245 13.2131 8.48191 12.8318 8.48191Z" fill="white"/>
</svg>
