<svg width="20" height="20" viewBox="0 0 20 20" fill="none" xmlns="http://www.w3.org/2000/svg">
<path fill-rule="evenodd" clip-rule="evenodd" d="M20 5.666L20 14.335C20 17.7386 17.5707 20 14.084 20L5.916 20C2.43296 20 -1.55017e-06 17.7319 -1.25321e-06 14.335L-4.95337e-07 5.666C-1.97769e-07 2.26221 2.4295 -1.53606e-06 5.916 -1.23126e-06L14.084 -5.17193e-07C17.5705 -2.12394e-07 20 2.26222 20 5.666ZM18.5 14.335L18.5 5.666C18.5 3.1155 16.765 1.5 14.084 1.5L5.916 1.5C3.23496 1.5 1.5 3.1155 1.5 5.666L1.5 14.335C1.5 16.879 3.23878 18.5 5.916 18.5L14.084 18.5C16.7653 18.5 18.5 16.8852 18.5 14.335ZM14.836 10C14.836 10.3797 14.5538 10.6935 14.1878 10.7432L14.086 10.75L7.73081 10.75L10.2069 13.2165C10.4737 13.4822 10.4988 13.8989 10.2816 14.1929L10.2092 14.2772C9.94346 14.544 9.52685 14.5691 9.23277 14.3519L9.1485 14.2795L5.3845 10.5315C5.11686 10.265 5.09253 9.84683 5.31151 9.55276L5.31421 9.54965C5.33516 9.52179 5.358 9.49544 5.38255 9.47079L5.3845 9.46854L9.1485 5.72054C9.44202 5.42827 9.91689 5.42928 10.2092 5.7228C10.4749 5.98963 10.4982 6.40635 10.2797 6.69949L10.2069 6.78346L7.72942 9.25L14.086 9.25C14.5002 9.25 14.836 9.58579 14.836 10Z" fill="white"/>
</svg>
