<svg width="24" height="24" viewBox="0 0 24 24" fill="none" xmlns="http://www.w3.org/2000/svg">
<mask id="mask0_2424_6622" style="mask-type:luminance" maskUnits="userSpaceOnUse" x="2" y="2" width="20" height="20">
<path fill-rule="evenodd" clip-rule="evenodd" d="M2 2L21.9999 2L21.9999 22L2 22L2 2Z" fill="white"/>
</mask>
<g mask="url(#mask0_2424_6622)">
<path fill-rule="evenodd" clip-rule="evenodd" d="M7.664 3.5C5.135 3.5 3.5 5.233 3.5 7.916L3.5 16.084C3.5 18.767 5.135 20.5 7.664 20.5H16.332C18.864 20.5 20.5 18.767 20.5 16.084V7.916C20.5 5.233 18.864 3.5 16.334 3.5L7.664 3.5ZM16.332 22H7.664C4.276 22 2 19.622 2 16.084L2 7.916C2 4.378 4.276 2 7.664 2L16.334 2C19.723 2 22 4.378 22 7.916V16.084C22 19.622 19.723 22 16.332 22Z" fill="white"/>
</g>
<path fill-rule="evenodd" clip-rule="evenodd" d="M11.9941 16.75C11.5801 16.75 11.2441 16.414 11.2441 16V12C11.2441 11.586 11.5801 11.25 11.9941 11.25C12.4081 11.25 12.7441 11.586 12.7441 12V16C12.7441 16.414 12.4081 16.75 11.9941 16.75Z" fill="white"/>
<path fill-rule="evenodd" clip-rule="evenodd" d="M11.9991 9.2041C11.4461 9.2041 10.9941 8.7571 10.9941 8.2041C10.9941 7.6511 11.4371 7.2041 11.9891 7.2041H11.9991C12.5521 7.2041 12.9991 7.6511 12.9991 8.2041C12.9991 8.7571 12.5521 9.2041 11.9991 9.2041Z" fill="white"/>
</svg>
