<svg width="32" height="32" viewBox="0 0 32 32" fill="none" xmlns="http://www.w3.org/2000/svg">
<path fill-rule="evenodd" clip-rule="evenodd" d="M29.3334 10.2212L29.3334 21.7798C29.3334 26.318 26.0943 29.3332 21.4454 29.3332L10.5547 29.3332C5.91065 29.3332 2.6667 26.309 2.6667 21.7798L2.66671 10.2212C2.66671 5.68279 5.90605 2.6665 10.5547 2.6665L21.4454 2.6665C26.094 2.6665 29.3334 5.68279 29.3334 10.2212ZM27.3334 21.7798L27.3334 10.2212C27.3334 6.8205 25.0201 4.6665 21.4454 4.6665L10.5547 4.6665C6.97999 4.6665 4.66671 6.8205 4.66671 10.2212L4.6667 21.7798C4.6667 25.1719 6.98508 27.3332 10.5547 27.3332L21.4454 27.3332C25.0205 27.3332 27.3334 25.1802 27.3334 21.7798ZM22.448 15.9998C22.448 16.5061 22.0718 16.9245 21.5837 16.9907L21.448 16.9998L12.9744 16.9998L16.2759 20.2886C16.6317 20.6428 16.6651 21.1983 16.3755 21.5904L16.2789 21.7028C15.9247 22.0585 15.3692 22.092 14.9771 21.8024L14.8647 21.7058L9.84604 16.7084C9.48919 16.3531 9.45675 15.7956 9.74872 15.4035L9.75232 15.3994C9.78025 15.3622 9.81071 15.3271 9.84344 15.2942L9.84604 15.2912L14.8647 10.2939C15.2561 9.9042 15.8892 9.90555 16.2789 10.2969C16.6332 10.6527 16.6643 11.2083 16.373 11.5992L16.2759 11.7111L12.9726 14.9998L21.448 14.9998C22.0003 14.9998 22.448 15.4476 22.448 15.9998Z" fill="white"/>
</svg>
