<svg width="20" height="20" viewBox="0 0 20 20" fill="none" xmlns="http://www.w3.org/2000/svg">
<path fill-rule="evenodd" clip-rule="evenodd" d="M0 14.334L0 5.665C0 2.26137 2.42931 0 5.916 0H14.084C17.567 0 20 2.2681 20 5.665V14.334C20 17.7378 17.5705 20 14.084 20H5.916C2.4295 20 0 17.7378 0 14.334ZM1.5 5.665L1.5 14.334C1.5 16.8845 3.23496 18.5 5.916 18.5H14.084C16.765 18.5 18.5 16.8845 18.5 14.334V5.665C18.5 3.12096 16.7612 1.5 14.084 1.5H5.916C3.23468 1.5 1.5 3.11476 1.5 5.665ZM5.164 10C5.164 9.6203 5.44615 9.30651 5.81223 9.25685L5.914 9.25H12.2692L9.7931 6.78346C9.52627 6.51776 9.50117 6.10115 9.7184 5.80707L9.79084 5.7228C10.0565 5.45597 10.4732 5.43087 10.7672 5.6481L10.8515 5.72054L14.6155 9.46854C14.8831 9.73504 14.9075 10.1532 14.6885 10.4472L14.6858 10.4503C14.6648 10.4782 14.642 10.5046 14.6174 10.5292L14.6155 10.5315L10.8515 14.2795C10.558 14.5717 10.0831 14.5707 9.79084 14.2772C9.52514 14.0104 9.50182 13.5937 9.7203 13.3005L9.7931 13.2165L12.2706 10.75H5.914C5.49979 10.75 5.164 10.4142 5.164 10Z" fill="white"/>
</svg>
