<svg width="20" height="20" viewBox="0 0 20 20" fill="none" xmlns="http://www.w3.org/2000/svg">
<path fill-rule="evenodd" clip-rule="evenodd" d="M7.19127 12.3849C6.94731 12.1409 6.94731 11.7449 7.19127 11.501L11.5087 7.18352C11.7527 6.93957 12.1487 6.93957 12.3926 7.18352C12.6366 7.42747 12.6366 7.82345 12.3926 8.0674L8.07515 12.3849C7.8312 12.6288 7.43522 12.6288 7.19127 12.3849Z" fill="#F84960"/>
<path fill-rule="evenodd" clip-rule="evenodd" d="M11.5104 12.3861L7.18941 8.06508C6.94486 7.82054 6.94545 7.42515 7.18941 7.1812C7.43336 6.93725 7.82875 6.93666 8.07329 7.1812L12.3943 11.5022C12.6383 11.7462 12.6383 12.1421 12.3943 12.3861C12.1503 12.63 11.7544 12.63 11.5104 12.3861Z" fill="#F84960"/>
<path fill-rule="evenodd" clip-rule="evenodd" d="M5.88683 2.08337C3.57683 2.08337 2.0835 3.66421 2.0835 6.11254V13.4709C2.0835 15.9192 3.57683 17.5 5.88683 17.5H13.6968C16.0077 17.5 17.5002 15.9192 17.5002 13.4709V6.11254C17.5002 3.66421 16.0077 2.08337 13.6968 2.08337H5.88683ZM13.6968 18.75H5.88683C2.86433 18.75 0.833496 16.6284 0.833496 13.4709V6.11254C0.833496 2.95504 2.86433 0.833374 5.88683 0.833374H13.6968C16.7193 0.833374 18.7502 2.95504 18.7502 6.11254V13.4709C18.7502 16.6284 16.7193 18.75 13.6968 18.75Z" fill="#F84960"/>
</svg>
