<svg width="40" height="40" viewBox="0 0 40 40" fill="none" xmlns="http://www.w3.org/2000/svg">
<rect y="8.29147" width="32.0358" height="32.0358" rx="8" transform="rotate(-15 0 8.29147)" fill="#AA33B5"/>
<g filter="url(#filter0_ii_990_1695)">
<path d="M31.4284 7.96417H15.3926C10.9743 7.96417 7.39258 11.5459 7.39258 15.9642V32C7.39258 36.4182 10.9743 40 15.3926 40H31.4284C35.8467 40 39.4284 36.4182 39.4284 32V15.9642C39.4284 11.5459 35.8467 7.96417 31.4284 7.96417Z" fill="#AA33B5" fill-opacity="0.2"/>
</g>
<g clip-path="url(#clip0_990_1695)">
<path fill-rule="evenodd" clip-rule="evenodd" d="M29.1208 34.4165L34.1129 27.9609C34.3842 27.6128 34.4806 27.2103 34.3902 26.8005C34.3118 26.4279 34.0827 26.0737 33.7391 25.8049L32.9011 25.1392C32.1715 24.559 31.2672 24.6201 30.7487 25.2858L30.1879 26.0132C30.1156 26.1042 30.1337 26.2386 30.2241 26.3119C30.2241 26.3119 31.6409 27.4478 31.6711 27.4723C31.7676 27.5639 31.8399 27.686 31.858 27.8326C31.8881 28.1197 31.6892 28.3884 31.3938 28.4251C31.2551 28.4434 31.1224 28.4006 31.026 28.3212L29.5368 27.1364C29.4645 27.082 29.356 27.0936 29.2957 27.1669L25.7566 31.7476C25.5275 32.0346 25.4492 32.4071 25.5275 32.7675L25.9797 34.728C26.0038 34.8318 26.0943 34.9051 26.2028 34.9051L28.1924 34.8807C28.5541 34.8746 28.8917 34.7097 29.1208 34.4165Z" fill="white"/>
<g opacity="0.4">
<path fill-rule="evenodd" clip-rule="evenodd" d="M31.7969 24.7471C31.8259 24.7461 31.8555 24.7492 31.8847 24.75C31.8705 24.7496 31.8558 24.7421 31.8416 24.7421C31.8264 24.7421 31.812 24.7466 31.7969 24.7471Z" fill="#646693"/>
<path fill-rule="evenodd" clip-rule="evenodd" d="M29.4238 27.107C29.4634 27.105 29.5042 27.1118 29.5368 27.1364C29.5066 27.1137 29.4701 27.1025 29.4334 27.1025C29.4299 27.1025 29.4274 27.1067 29.4238 27.107Z" fill="#646693"/>
<path fill-rule="evenodd" clip-rule="evenodd" d="M24.2225 33.0511C24.0571 32.2909 24.2358 31.5123 24.6995 30.9316L25.8041 29.5022H19.7023C19.4163 29.5403 19.1398 29.3974 18.9873 29.159C18.8348 28.9111 18.8348 28.5965 18.9873 28.3582C19.1398 28.1103 19.4163 27.9769 19.7023 28.0055H26.9607L28.2641 26.3188C28.4177 26.1322 28.6104 25.988 28.8257 25.894C28.8649 25.6454 28.9656 25.4051 29.1299 25.1983L29.6948 24.4657C30.2186 23.7931 31.0008 23.4074 31.8407 23.4074C31.9008 23.4074 31.9596 23.4194 32.0194 23.4232V19.5113C32.0194 16.6036 30.3797 14.9067 27.4348 14.9067H19.4449C16.5468 14.9067 14.8594 16.6036 14.8594 19.5113V29.3592C14.8594 32.3146 16.5468 33.9733 19.4449 33.9733H24.4351L24.2225 33.0511ZM19.7023 19.3492V19.3397H22.5518C22.9627 19.3397 23.2964 19.6733 23.2964 20.0823C23.2964 20.5027 22.9627 20.8364 22.5519 20.8364H19.7023C19.2914 20.8364 18.9587 20.5027 18.9587 20.0928C18.9587 19.6829 19.2914 19.3492 19.7023 19.3492ZM19.7023 23.6573H27.1764C27.5864 23.6573 27.9201 23.992 27.9201 24.4019C27.9201 24.8118 27.5864 25.1455 27.1764 25.1455H19.7023C19.2914 25.1455 18.9587 24.8118 18.9587 24.4019C18.9587 23.992 19.2914 23.6573 19.7023 23.6573Z" fill="white"/>
</g>
</g>
<defs>
<filter id="filter0_ii_990_1695" x="3.65925" y="4.23084" width="39.5018" height="39.5025" filterUnits="userSpaceOnUse" color-interpolation-filters="sRGB">
<feFlood flood-opacity="0" result="BackgroundImageFix"/>
<feBlend mode="normal" in="SourceGraphic" in2="BackgroundImageFix" result="shape"/>
<feColorMatrix in="SourceAlpha" type="matrix" values="0 0 0 0 0 0 0 0 0 0 0 0 0 0 0 0 0 0 127 0" result="hardAlpha"/>
<feOffset dx="-3.73333" dy="3.73333"/>
<feGaussianBlur stdDeviation="1.86667"/>
<feComposite in2="hardAlpha" operator="arithmetic" k2="-1" k3="1"/>
<feColorMatrix type="matrix" values="0 0 0 0 1 0 0 0 0 1 0 0 0 0 1 0 0 0 0.1 0"/>
<feBlend mode="normal" in2="shape" result="effect1_innerShadow_990_1695"/>
<feColorMatrix in="SourceAlpha" type="matrix" values="0 0 0 0 0 0 0 0 0 0 0 0 0 0 0 0 0 0 127 0" result="hardAlpha"/>
<feOffset dx="3.73333" dy="-3.73333"/>
<feGaussianBlur stdDeviation="1.86667"/>
<feComposite in2="hardAlpha" operator="arithmetic" k2="-1" k3="1"/>
<feColorMatrix type="matrix" values="0 0 0 0 0.366588 0 0 0 0 0.372549 0 0 0 0 0.53051 0 0 0 0.1 0"/>
<feBlend mode="normal" in2="effect1_innerShadow_990_1695" result="effect2_innerShadow_990_1695"/>
</filter>
<clipPath id="clip0_990_1695">
<rect width="22.88" height="22.88" fill="white" transform="translate(12 13)"/>
</clipPath>
</defs>
</svg>
