<svg width="32" height="32" viewBox="0 0 32 32" fill="none" xmlns="http://www.w3.org/2000/svg">
<path fill-rule="evenodd" clip-rule="evenodd" d="M16.0001 26.6666C21.8911 26.6666 26.6667 21.891 26.6667 16C26.6667 10.1089 21.8911 5.33329 16.0001 5.33329C10.109 5.33329 5.33341 10.1089 5.33341 16C5.33341 21.891 10.109 26.6666 16.0001 26.6666ZM16.0001 29.3333C23.3639 29.3333 29.3334 23.3638 29.3334 16C29.3334 8.63616 23.3639 2.66663 16.0001 2.66663C8.63628 2.66663 2.66675 8.63616 2.66675 16C2.66675 23.3638 8.63628 29.3333 16.0001 29.3333Z" fill="#FFB342"/>
<path fill-rule="evenodd" clip-rule="evenodd" d="M16.0001 9.33337C15.2637 9.33337 14.6667 9.93033 14.6667 10.6667C14.6667 11.4031 15.2637 12 16.0001 12C16.7365 12 17.3334 11.4031 17.3334 10.6667C17.3334 9.93033 16.7365 9.33337 16.0001 9.33337ZM16.0001 14.6667C15.2637 14.6667 14.6667 15.2637 14.6667 16V21.3334C14.6667 22.0698 15.2637 22.6667 16.0001 22.6667C16.7365 22.6667 17.3334 22.0698 17.3334 21.3334V16C17.3334 15.2637 16.7365 14.6667 16.0001 14.6667Z" fill="#FFB342"/>
</svg>
