<svg width="56" height="56" viewBox="0 0 56 56" fill="none" xmlns="http://www.w3.org/2000/svg">
<g clip-path="url(#clip0_4_8)">
<path d="M20.4168 36C28.4708 36 35 29.247 35 20.9167C35 12.5864 28.4708 5.83336 20.4168 5.83336C12.3628 5.83336 5.83368 12.5864 5.83368 20.9167C5.83368 29.247 12.3628 36 20.4168 36Z" fill="#647CF6" stroke="black"/>
<path d="M20.2866 25.207L27.6754 20.7702L20.2866 8.31369L12.8979 20.7702L20.2866 25.207Z" fill="white"/>
<path d="M20.2846 32.8492L27.6754 22.3915L20.2846 26.774L12.8979 22.3915L20.2846 32.8492Z" fill="white"/>
<path d="M22.135 25.4927C22.135 23.638 23.6385 22.1345 25.4932 22.1345H45.6423C47.4967 22.1345 49.0005 23.638 49.0005 25.4927V45.6418C49.0005 47.4965 47.4967 49 45.6423 49H25.4932C23.6385 49 22.135 47.4965 22.135 45.6418V25.4927Z" fill="#AA33B5" stroke="black"/>
<path d="M44.8102 44.717H35.4999L44.8102 35.4998V44.717Z" fill="url(#paint0_linear_4_8)"/>
<path d="M44.8102 44.717L26.2828 44.717V26.1895L44.8102 44.717Z" fill="url(#paint1_linear_4_8)"/>
<g clip-path="url(#clip1_4_8)">
<path d="M52.1738 12.6495L47.7544 17.0689C47.6079 17.2154 47.4091 17.2978 47.2019 17.2978C46.9947 17.2978 46.796 17.2154 46.6495 17.0689L42.2301 12.6495C42.0836 12.503 42.0013 12.3043 42.0013 12.0971C42.0013 11.8899 42.0836 11.6912 42.2301 11.5447C42.3766 11.3981 42.5753 11.3158 42.7825 11.3158C42.9897 11.3158 43.1884 11.3981 43.335 11.5447L46.4147 14.6244L46.4044 11.5467C46.4048 9.84688 45.9011 8.1851 44.9569 6.77156C44.0128 5.35802 42.6707 4.25622 41.1003 3.60553C39.5299 2.95483 37.8018 2.78447 36.1346 3.11598C34.4674 3.4475 32.936 4.266 31.734 5.46796C31.5875 5.61447 31.3888 5.69678 31.1816 5.69678C30.9744 5.69678 30.7756 5.61447 30.6291 5.46796C30.4826 5.32145 30.4003 5.12274 30.4003 4.91553C30.4003 4.70833 30.4826 4.50962 30.6291 4.36311C32.0495 2.94269 33.8592 1.97536 35.8293 1.58346C37.7995 1.19155 39.8416 1.39267 41.6974 2.16138C43.5533 2.93008 45.1395 4.23185 46.2555 5.90207C47.3714 7.57228 47.9671 9.53592 47.9671 11.5447L47.9774 14.6362L51.0689 11.5447C51.2155 11.3981 51.4142 11.3158 51.6214 11.3158C51.8286 11.3158 52.0273 11.3981 52.1738 11.5447C52.3203 11.6912 52.4026 11.8899 52.4026 12.0971C52.4026 12.3043 52.3203 12.503 52.1738 12.6495Z" fill="black"/>
</g>
<g clip-path="url(#clip2_4_8)">
<path d="M0.181553 43.7058L4.60097 39.2864C4.74748 39.1399 4.9462 39.0576 5.1534 39.0576C5.3606 39.0576 5.55931 39.1399 5.70583 39.2864L10.1252 43.7058C10.2718 43.8523 10.3541 44.0511 10.3541 44.2583C10.3541 44.4655 10.2718 44.6642 10.1252 44.8107C9.97873 44.9572 9.78002 45.0395 9.57282 45.0395C9.36561 45.0395 9.1669 44.9572 9.02039 44.8107L5.94061 41.7309L5.95096 44.8086C5.95057 46.5085 6.45429 48.1702 7.39842 49.5838C8.34255 50.9973 9.68469 52.0991 11.2551 52.7498C12.8254 53.4005 14.5535 53.5709 16.2207 53.2394C17.8879 52.9078 19.4194 52.0893 20.6214 50.8874C20.7679 50.7409 20.9666 50.6586 21.1738 50.6586C21.381 50.6586 21.5797 50.7409 21.7262 50.8874C21.8727 51.0339 21.955 51.2326 21.955 51.4398C21.955 51.647 21.8727 51.8457 21.7262 51.9922C20.3058 53.4127 18.4962 54.38 16.526 54.7719C14.5559 55.1638 12.5138 54.9627 10.6579 54.194C8.80209 53.4253 7.21588 52.1235 6.0999 50.4533C4.98391 48.7831 4.38826 46.8194 4.38829 44.8107L4.37793 41.7192L1.28641 44.8107C1.1399 44.9572 0.941182 45.0395 0.733981 45.0395C0.526781 45.0395 0.328066 44.9572 0.181553 44.8107C0.0350407 44.6642 -0.0472696 44.4655 -0.0472696 44.2583C-0.0472696 44.0511 0.0350407 43.8523 0.181553 43.7058Z" fill="black"/>
</g>
</g>
<defs>
<linearGradient id="paint0_linear_4_8" x1="35.4999" y1="21.8748" x2="35.4999" y2="49.0541" gradientUnits="userSpaceOnUse">
<stop offset="2.71717e-07" stop-color="white"/>
</linearGradient>
<linearGradient id="paint1_linear_4_8" x1="21.8689" y1="31.0394" x2="40.4257" y2="49.5962" gradientUnits="userSpaceOnUse">
<stop offset="9.43019e-07" stop-color="white"/>
</linearGradient>
<clipPath id="clip0_4_8">
<rect width="56" height="56" fill="white"/>
</clipPath>
<clipPath id="clip1_4_8">
<rect width="25" height="25" fill="white" transform="translate(41.6777 -10) rotate(45)"/>
</clipPath>
<clipPath id="clip2_4_8">
<rect width="25" height="25" fill="white" transform="translate(10.6777 66.3553) rotate(-135)"/>
</clipPath>
</defs>
</svg>
