<svg width="57" height="37" viewBox="0 0 57 37" fill="none" xmlns="http://www.w3.org/2000/svg">
<g id="Group 34368">
<path id="Vector" d="M5.78773 27.0864L0.5 10.2189H5.29912L8.82334 23.114H8.95532L12.4487 10.2189H17.2141L11.9572 27.0864H5.78773ZM39.8898 10.2189H44.981L48.1795 15.5249H48.3086L51.4425 10.2189H56.4691L50.9511 18.5868L56.5 27.0864H51.4397L48.1767 21.6824H48.0447L44.9445 27.0864H39.8842L45.4331 18.5868L39.8842 10.2189H39.8898ZM40.9513 0.34382L35.6664 5.19032C33.8495 6.90201 31.4177 7.79007 28.9268 7.69762C25.3015 7.57996 21.6762 9.25522 19.4746 12.4573C17.273 15.6705 17.0035 19.6346 18.43 22.9627C19.4016 25.2543 19.455 27.826 18.5058 30.1316L15.8774 36.8075C15.8184 36.9587 16.0178 37.068 16.1217 36.9503C25.6104 25.6325 34.0068 13.4322 41.1703 0.523112C41.2405 0.380238 41.0664 0.245769 40.9513 0.34382ZM30.5471 13.5498L24.4815 22.3772C24.2148 22.7498 23.6616 22.7666 23.392 22.394C21.8531 20.2817 21.7324 17.3458 23.2937 15.0794C24.8522 12.8019 27.6379 11.8606 30.168 12.5301C30.6117 12.6534 30.8027 13.1772 30.5471 13.5498ZM34.6386 13.7235C34.1303 14.5219 34.0685 15.5081 34.4336 16.3821C35.1862 18.1946 35.0345 20.3349 33.8383 22.0718C32.6448 23.8059 30.696 24.7192 28.7303 24.6744C27.7811 24.652 26.8797 25.0638 26.3181 25.8258C25.7508 26.5962 25.178 27.361 24.5995 28.123C29.1009 30.1652 34.5544 28.7533 37.4496 24.5455C40.3447 20.3349 39.6989 14.7517 36.169 11.2975C35.6636 12.1099 35.1553 12.9195 34.6414 13.7235H34.6386Z" fill="#B7EC42" fill-opacity="0.768627"/>
</g>
</svg>
