<svg width="24" height="24" viewBox="0 0 24 24" fill="none" xmlns="http://www.w3.org/2000/svg">
<g id="Currency">
<path id="Fill 1" fill-rule="evenodd" clip-rule="evenodd" d="M2 12C2 17.514 6.486 22 12 22C17.514 22 22 17.514 22 12C22 6.486 17.514 2 12 2C6.486 2 2 6.486 2 12ZM12.7501 7C12.7501 6.58579 12.4143 6.25 12.0001 6.25C11.5859 6.25 11.2501 6.58579 11.2501 7V7.31099C11.0012 7.35508 10.756 7.42627 10.5211 7.53458C10.0376 7.7575 9.64024 8.11808 9.34892 8.6279C9.1032 9.05791 8.95947 9.51545 8.95947 10C8.95947 10.4845 9.1032 10.9421 9.34892 11.3721C9.96699 12.4537 11.0086 12.75 12.0001 12.75C12.6491 12.75 13.0587 12.94 13.3761 13.416C13.5865 13.7317 13.6062 13.9016 13.5999 14.0044C13.5919 14.1355 13.5333 14.3052 13.3489 14.6279C13.207 14.8763 13.0409 15.0157 12.8511 15.1032C12.647 15.1973 12.3735 15.25 12.0001 15.25C11.6519 15.25 11.4033 15.1905 11.2045 15.0912C11.0058 14.9918 10.809 14.8286 10.6001 14.55C10.3516 14.2186 9.88147 14.1515 9.5501 14.4C9.21873 14.6485 9.15158 15.1186 9.4001 15.45C9.71512 15.87 10.0817 16.2068 10.5337 16.4328C10.763 16.5474 11.0018 16.6274 11.2501 16.6783V17C11.2501 17.4142 11.5859 17.75 12.0001 17.75C12.4143 17.75 12.7501 17.4142 12.7501 17V16.689C12.9991 16.6449 13.2442 16.5737 13.4791 16.4654C13.9626 16.2425 14.36 15.8819 14.6513 15.3721C14.8544 15.0167 15.0666 14.5925 15.0971 14.0963C15.1293 13.5717 14.9553 13.0807 14.6241 12.584C13.9727 11.6068 13.0407 11.25 12.0001 11.25C11.302 11.25 10.8997 11.0626 10.6513 10.6279C10.5095 10.3798 10.4595 10.1764 10.4595 10C10.4595 9.82362 10.5095 9.62023 10.6513 9.3721C10.7932 9.12373 10.9593 8.98431 11.1491 8.89678C11.3532 8.80268 11.6267 8.75 12.0001 8.75C12.3483 8.75 12.5969 8.80948 12.7957 8.90885C12.9944 9.00822 13.1912 9.17143 13.4001 9.45C13.6486 9.78137 14.1187 9.84853 14.4501 9.6C14.7815 9.35147 14.8486 8.88137 14.6001 8.55C14.2851 8.12998 13.9185 7.79319 13.4665 7.56721C13.2373 7.45259 12.9984 7.37263 12.7501 7.32167V7Z" fill="white"/>
</g>
</svg>
