<svg width="18" height="20" viewBox="0 0 18 20" fill="none" xmlns="http://www.w3.org/2000/svg">
<path fill-rule="evenodd" clip-rule="evenodd" d="M9.54951 11.73H11.2624C11.6683 11.73 12.0049 11.4 12.0049 10.99C12.0049 10.57 11.6683 10.24 11.2624 10.24H9.54951V8.51C9.54951 8.1 9.22277 7.77 8.81683 7.77C8.41089 7.77 8.07426 8.1 8.07426 8.51V10.24H6.37129C5.96535 10.24 5.62871 10.57 5.62871 10.99C5.62871 11.4 5.96535 11.73 6.37129 11.73H8.07426V13.46C8.07426 13.87 8.41089 14.2 8.81683 14.2C9.22277 14.2 9.54951 13.87 9.54951 13.46V11.73ZM16.3381 7.02561C16.5708 7.02292 16.8242 7.02 17.0545 7.02C17.302 7.02 17.5 7.22 17.5 7.47V15.51C17.5 17.99 15.5099 20 13.0446 20H5.17327C2.59901 20 0.5 17.89 0.5 15.29V4.51C0.5 2.03 2.5 0 4.96535 0H10.2525C10.5099 0 10.7079 0.21 10.7079 0.46V3.68C10.7079 5.51 12.203 7.01 14.0149 7.02C14.4381 7.02 14.8112 7.02316 15.1377 7.02593C15.3917 7.02809 15.6175 7.03 15.8168 7.03C15.9578 7.03 16.1405 7.02789 16.3381 7.02561ZM16.61 5.5662C15.7961 5.5692 14.8367 5.5662 14.1466 5.5592C13.0516 5.5592 12.1496 4.6482 12.1496 3.5422V0.9062C12.1496 0.4752 12.6674 0.2612 12.9635 0.5722C13.4994 1.13504 14.236 1.90877 14.9691 2.67891C15.7001 3.44675 16.4276 4.21102 16.9496 4.7592C17.2387 5.0622 17.0268 5.5652 16.61 5.5662Z" fill="white"/>
</svg>
