<svg width="24" height="24" viewBox="0 0 24 24" fill="none" xmlns="http://www.w3.org/2000/svg">
<path d="M10.3755 3.80422C11.381 3.22366 12.6199 3.22366 13.6255 3.80422L18.2857 6.49482C19.2913 7.07538 19.9107 8.14829 19.9107 9.3094V14.6906C19.9107 15.8517 19.2913 16.9246 18.2857 17.5052L13.6255 20.1958C12.6199 20.7763 11.381 20.7763 10.3755 20.1958L5.71523 17.5052C4.70968 16.9246 4.09023 15.8517 4.09023 14.6906L4.09023 9.3094C4.09023 8.14829 4.70968 7.07538 5.71523 6.49482L10.3755 3.80422Z" stroke="#646693" stroke-width="1.5"/>
<path d="M3.90527 7.71436L11.4938 12.178C11.8068 12.3621 12.1949 12.3621 12.5079 12.178L20.0957 7.71436" stroke="#646693" stroke-width="1.5"/>
<path d="M12.0005 12.4762L12.0005 21.0476" stroke="#646693" stroke-width="1.5"/>
</svg>
