<svg width="21" height="22" viewBox="0 0 21 22" fill="#646693" xmlns="http://www.w3.org/2000/svg">
<path fill-rule="evenodd" clip-rule="evenodd" d="M11.8171 14.2914C13.0211 14.2914 14.0011 15.2644 14.0011 16.4604V19.5364C14.0011 19.7934 14.2071 19.9994 14.4711 20.0054H16.3771C17.8791 20.0054 19.1001 18.7994 19.1001 17.3174V8.59337C19.0931 8.08337 18.8501 7.60337 18.4331 7.28437L11.8401 2.02637C10.9551 1.32537 9.7171 1.32537 8.8291 2.02837L2.2811 7.28237C1.8481 7.61137 1.6051 8.09137 1.6001 8.61037V17.3174C1.6001 18.7994 2.8211 20.0054 4.3231 20.0054H6.2471C6.5181 20.0054 6.7381 19.7904 6.7381 19.5264C6.7381 19.4684 6.7451 19.4104 6.7571 19.3554V16.4604C6.7571 15.2714 7.7311 14.2994 8.9261 14.2914H11.8171ZM16.3771 21.5054H14.4531C13.3511 21.4794 12.5011 20.6144 12.5011 19.5364V16.4604C12.5011 16.0914 12.1941 15.7914 11.8171 15.7914H8.9311C8.5621 15.7934 8.2571 16.0944 8.2571 16.4604V19.5264C8.2571 19.6014 8.2471 19.6734 8.2261 19.7414C8.1181 20.7314 7.2721 21.5054 6.2471 21.5054H4.3231C1.9941 21.5054 0.100098 19.6264 0.100098 17.3174V8.60337C0.110098 7.60937 0.568098 6.69937 1.3591 6.10037L7.8941 0.855372C9.3331 -0.284628 11.3381 -0.284628 12.7741 0.853372L19.3561 6.10337C20.1291 6.69237 20.5871 7.60037 20.6001 8.58237V17.3174C20.6001 19.6264 18.7061 21.5054 16.3771 21.5054Z" fill="#646693"/>
</svg>
