<svg width="25" height="24" viewBox="0 0 25 24" fill="none" xmlns="http://www.w3.org/2000/svg">
<path fill-rule="evenodd" clip-rule="evenodd" d="M9.28278 6.3035C9.25078 6.3035 9.21878 6.3075 9.18678 6.3155C6.21678 7.0465 3.80078 10.2645 3.80078 13.4885C3.80078 17.5445 7.10078 20.8445 11.1578 20.8445C14.8148 20.8445 17.8708 18.2395 18.4248 14.6495C18.4288 14.6195 18.4428 14.5325 18.3608 14.4355C18.2828 14.3445 18.1588 14.2905 18.0288 14.2905C16.6178 14.2905 15.5408 14.3225 14.6998 14.3465C12.6638 14.4075 11.8218 14.4305 10.9898 13.8135C9.73578 12.8845 9.62978 11.2885 9.62978 6.5945C9.62978 6.5105 9.59378 6.4405 9.52178 6.3845C9.45478 6.3315 9.36978 6.3035 9.28278 6.3035M11.1578 22.3445C6.27378 22.3445 2.30078 18.3715 2.30078 13.4885C2.30078 9.6165 5.22878 5.7445 8.82778 4.8585C9.38978 4.7215 9.99378 4.8495 10.4478 5.2035C10.8808 5.5435 11.1298 6.0505 11.1298 6.5945C11.1298 10.9795 11.2778 12.1595 11.8828 12.6085C12.2798 12.9015 12.8238 12.8985 14.6568 12.8475C15.5088 12.8225 16.5998 12.7905 18.0288 12.7905C18.5988 12.7905 19.1358 13.0345 19.4998 13.4595C19.8378 13.8545 19.9858 14.3705 19.9078 14.8785C19.2398 19.2035 15.5598 22.3445 11.1578 22.3445" fill="#646693"/>
<mask id="mask0_2339_3282" style="mask-type:luminance" maskUnits="userSpaceOnUse" x="12" y="1" width="12" height="11">
<path fill-rule="evenodd" clip-rule="evenodd" d="M12.7744 1.00049H23.1934V11.2898H12.7744V1.00049Z" fill="white"/>
</mask>
<g mask="url(#mask0_2339_3282)">
<path fill-rule="evenodd" clip-rule="evenodd" d="M14.3109 2.50174C14.2009 5.02074 14.3639 8.27474 14.4399 9.56374C14.4439 9.64074 14.4999 9.69674 14.5759 9.70074C15.6039 9.75974 19.1459 9.92374 21.6929 9.54874C21.6989 8.14474 20.7379 6.24074 19.2909 4.79474C17.8069 3.31274 16.0509 2.50174 14.3329 2.50174H14.3109ZM17.6152 11.2897C16.3052 11.2897 15.1522 11.2367 14.4892 11.1987C13.6552 11.1497 12.9912 10.4847 12.9432 9.65074C12.8652 8.32874 12.6962 4.96974 12.8162 2.37174C12.8492 1.61674 13.4592 1.01574 14.2052 1.00274C16.3422 0.940742 18.5472 1.93274 20.3512 3.73374C22.1092 5.49074 23.2252 7.79974 23.1932 9.61674C23.1812 10.3257 22.6662 10.9177 21.9702 11.0227C20.6122 11.2277 19.0222 11.2897 17.6152 11.2897V11.2897Z" fill="#646693"/>
</g>
</svg>
