<svg width="25" height="24" viewBox="0 0 25 24" fill="none" xmlns="http://www.w3.org/2000/svg">
<mask id="mask0_3864_12586" style="mask-type:luminance" maskUnits="userSpaceOnUse" x="2" y="2" width="21" height="20">
<path fill-rule="evenodd" clip-rule="evenodd" d="M2.98047 2H22.9804V22H2.98047V2Z" fill="white"/>
</mask>
<g mask="url(#mask0_3864_12586)">
<path fill-rule="evenodd" clip-rule="evenodd" d="M8.64447 3.5C6.11547 3.5 4.48047 5.233 4.48047 7.916V16.084C4.48047 18.767 6.11547 20.5 8.64447 20.5H17.3125C19.8445 20.5 21.4805 18.767 21.4805 16.084V7.916C21.4805 5.233 19.8445 3.5 17.3145 3.5H8.64447ZM17.3125 22H8.64447C5.25647 22 2.98047 19.622 2.98047 16.084V7.916C2.98047 4.378 5.25647 2 8.64447 2H17.3145C20.7035 2 22.9805 4.378 22.9805 7.916V16.084C22.9805 19.622 20.7035 22 17.3125 22Z" fill="white"/>
</g>
<path fill-rule="evenodd" clip-rule="evenodd" d="M12.9746 16.75C12.5606 16.75 12.2246 16.414 12.2246 16V12C12.2246 11.586 12.5606 11.25 12.9746 11.25C13.3886 11.25 13.7246 11.586 13.7246 12V16C13.7246 16.414 13.3886 16.75 12.9746 16.75Z" fill="white"/>
<path fill-rule="evenodd" clip-rule="evenodd" d="M12.9796 9.2041C12.4266 9.2041 11.9746 8.7571 11.9746 8.2041C11.9746 7.6511 12.4176 7.2041 12.9696 7.2041H12.9796C13.5326 7.2041 13.9796 7.6511 13.9796 8.2041C13.9796 8.7571 13.5326 9.2041 12.9796 9.2041Z" fill="white"/>
</svg>
