<svg width="215" height="29" viewBox="0 0 215 29" fill="none" xmlns="http://www.w3.org/2000/svg">
<path d="M19 23H10L19 14V23Z" fill="url(#paint0_linear_443_2011)"/>
<path opacity="0.14" d="M19.0001 23L14.3862 18.6897L15.0001 18L19.0001 23Z" fill="black"/>
<path d="M105 9.08432V12.1188C104.714 12.0778 104.469 12.0368 104.264 12.0368C102.997 12.0368 102.016 12.4058 101.321 13.144C100.626 13.8821 100.258 14.9072 100.258 16.2604V22.9035H97.0278V9.08432H100.094V11.2167C100.994 9.82244 102.629 9.08432 105 9.08432Z" fill="white"/>
<path d="M94.8197 16.9986H84.2716C84.476 17.9827 84.9257 18.7618 85.7025 19.3769C86.4793 19.951 87.4606 20.2381 88.6053 20.2381C90.0771 20.2381 91.3037 19.746 92.244 18.7618L94.0429 20.5661C93.4296 21.3042 92.5711 21.9603 91.6307 22.3294C90.6904 22.6984 89.6683 22.9035 88.5236 22.9035C87.0517 22.9035 85.7434 22.6164 84.6396 22.0013C83.5357 21.4272 82.6362 20.6071 82.023 19.541C81.4097 18.4748 81.1235 17.2856 81.1235 15.9734C81.1235 14.6612 81.4097 13.472 82.023 12.4468C82.6362 11.3807 83.4539 10.5606 84.5169 9.98646C85.5799 9.41237 86.7655 9.08432 88.0738 9.08432C89.3821 9.08432 90.5678 9.37137 91.5899 9.94545C92.612 10.5195 93.4296 11.3397 94.002 12.4058C94.5744 13.472 94.8606 14.6612 94.8606 16.0554C94.8606 16.2604 94.8606 16.5885 94.8197 16.9986ZM85.539 12.5289C84.844 13.144 84.4351 13.9231 84.2716 14.9072H91.876C91.7534 13.9231 91.3445 13.144 90.6495 12.5289C89.9545 11.9138 89.0959 11.6267 88.0738 11.6267C87.0517 11.6267 86.234 11.9138 85.539 12.5289Z" fill="white"/>
<path d="M81.287 9.08432L75.3179 22.9035H72.2108L66.2417 9.08432H69.5124L73.8461 19.2539L78.3025 9.08432H81.287Z" fill="white"/>
<path d="M66.5282 16.9986H55.9801C56.1845 17.9827 56.6342 18.7618 57.411 19.3769C58.1878 19.951 59.1691 20.2381 60.3138 20.2381C61.7856 20.2381 63.0122 19.746 63.9525 18.7618L65.7514 20.5661C65.1381 21.3042 64.2796 21.9603 63.3392 22.3294C62.3989 22.6984 61.3768 22.9035 60.232 22.9035C58.7602 22.9035 57.4519 22.6164 56.3481 22.0013C55.2442 21.4272 54.3447 20.6071 53.7315 19.541C53.1182 18.4748 52.832 17.2856 52.832 15.9734C52.832 14.6612 53.1182 13.472 53.7315 12.4468C54.3447 11.3807 55.1624 10.5606 56.2254 9.98646C57.2884 9.41237 58.474 9.08432 59.7823 9.08432C61.0906 9.08432 62.2762 9.37137 63.2983 9.94545C64.3204 10.5195 65.1381 11.3397 65.7105 12.4058C66.2829 13.472 66.5691 14.6612 66.5691 16.0554C66.5691 16.2604 66.5691 16.5885 66.5282 16.9986ZM57.2066 12.5289C56.5116 13.144 56.1028 13.9231 55.9392 14.9072H63.5436C63.421 13.9231 63.0122 13.144 62.3171 12.5289C61.6221 11.9138 60.7635 11.6267 59.7414 11.6267C58.7602 11.6267 57.9017 11.9138 57.2066 12.5289Z" fill="white"/>
<path d="M46.8218 4H49.9698V22.904H46.8218V4Z" fill="white"/>
<path d="M40.2806 9.08432H44.2054L35.6607 17.6957L33.6982 15.7274L40.2806 9.08432Z" fill="white"/>
<path d="M33.6982 15.6871L35.6198 13.7598L44.7369 22.9042H40.8529L33.6982 15.7281V15.6871Z" fill="white"/>
<path d="M34.1481 4H31V22.904H34.1481V4Z" fill="white"/>
<path d="M19 23H0V4L19 23Z" fill="url(#paint1_linear_443_2011)"/>
<path d="M124 19.88V23H110.992V6.2H123.688V9.32H114.856V12.968H122.656V15.992H114.856V19.88H124ZM134.874 23L132.042 19.04L129.114 23H125.034L130.002 16.496L125.202 10.088H129.402L132.138 13.856L134.946 10.088H138.93L134.13 16.4L139.122 23H134.874ZM148.571 9.896C149.771 9.896 150.859 10.176 151.835 10.736C152.827 11.28 153.603 12.056 154.163 13.064C154.723 14.056 155.003 15.216 155.003 16.544C155.003 17.872 154.723 19.04 154.163 20.048C153.603 21.04 152.827 21.816 151.835 22.376C150.859 22.92 149.771 23.192 148.571 23.192C146.923 23.192 145.627 22.672 144.683 21.632V27.656H140.939V10.088H144.515V11.576C145.443 10.456 146.795 9.896 148.571 9.896ZM147.923 20.12C148.883 20.12 149.667 19.8 150.275 19.16C150.899 18.504 151.211 17.632 151.211 16.544C151.211 15.456 150.899 14.592 150.275 13.952C149.667 13.296 148.883 12.968 147.923 12.968C146.963 12.968 146.171 13.296 145.547 13.952C144.939 14.592 144.635 15.456 144.635 16.544C144.635 17.632 144.939 18.504 145.547 19.16C146.171 19.8 146.963 20.12 147.923 20.12ZM157.509 5.192H161.253V23H157.509V5.192ZM170.872 23.192C169.512 23.192 168.288 22.912 167.2 22.352C166.128 21.776 165.288 20.984 164.68 19.976C164.072 18.968 163.768 17.824 163.768 16.544C163.768 15.264 164.072 14.12 164.68 13.112C165.288 12.104 166.128 11.32 167.2 10.76C168.288 10.184 169.512 9.896 170.872 9.896C172.232 9.896 173.448 10.184 174.52 10.76C175.592 11.32 176.432 12.104 177.04 13.112C177.648 14.12 177.952 15.264 177.952 16.544C177.952 17.824 177.648 18.968 177.04 19.976C176.432 20.984 175.592 21.776 174.52 22.352C173.448 22.912 172.232 23.192 170.872 23.192ZM170.872 20.12C171.832 20.12 172.616 19.8 173.224 19.16C173.848 18.504 174.16 17.632 174.16 16.544C174.16 15.456 173.848 14.592 173.224 13.952C172.616 13.296 171.832 12.968 170.872 12.968C169.912 12.968 169.12 13.296 168.496 13.952C167.872 14.592 167.56 15.456 167.56 16.544C167.56 17.632 167.872 18.504 168.496 19.16C169.12 19.8 169.912 20.12 170.872 20.12ZM184.031 11.792C184.479 11.168 185.079 10.696 185.831 10.376C186.599 10.056 187.479 9.896 188.471 9.896V13.352C188.055 13.32 187.775 13.304 187.631 13.304C186.559 13.304 185.719 13.608 185.111 14.216C184.503 14.808 184.199 15.704 184.199 16.904V23H180.455V10.088H184.031V11.792ZM203.228 16.592C203.228 16.64 203.204 16.976 203.156 17.6H193.388C193.564 18.4 193.98 19.032 194.636 19.496C195.292 19.96 196.108 20.192 197.084 20.192C197.756 20.192 198.348 20.096 198.86 19.904C199.388 19.696 199.876 19.376 200.324 18.944L202.316 21.104C201.1 22.496 199.324 23.192 196.988 23.192C195.532 23.192 194.244 22.912 193.124 22.352C192.004 21.776 191.14 20.984 190.532 19.976C189.924 18.968 189.62 17.824 189.62 16.544C189.62 15.28 189.916 14.144 190.508 13.136C191.116 12.112 191.94 11.32 192.98 10.76C194.036 10.184 195.212 9.896 196.508 9.896C197.772 9.896 198.916 10.168 199.94 10.712C200.964 11.256 201.764 12.04 202.34 13.064C202.932 14.072 203.228 15.248 203.228 16.592ZM196.532 12.728C195.684 12.728 194.972 12.968 194.396 13.448C193.82 13.928 193.468 14.584 193.34 15.416H199.7C199.572 14.6 199.22 13.952 198.644 13.472C198.068 12.976 197.364 12.728 196.532 12.728ZM209.296 11.792C209.744 11.168 210.344 10.696 211.096 10.376C211.864 10.056 212.744 9.896 213.736 9.896V13.352C213.32 13.32 213.04 13.304 212.896 13.304C211.824 13.304 210.984 13.608 210.376 14.216C209.768 14.808 209.464 15.704 209.464 16.904V23H205.72V10.088H209.296V11.792Z" fill="url(#paint2_linear_443_2011)"/>
<defs>
<linearGradient id="paint0_linear_443_2011" x1="14.5" y1="13.9583" x2="14.5" y2="23.0181" gradientUnits="userSpaceOnUse">
<stop offset="2.71717e-07" stop-color="#FF4681"/>
<stop offset="1" stop-color="#9B44F6"/>
</linearGradient>
<linearGradient id="paint1_linear_443_2011" x1="-4.52639" y1="8.97361" x2="14.5037" y2="28.0037" gradientUnits="userSpaceOnUse">
<stop offset="9.43019e-07" stop-color="#FF4681"/>
<stop offset="0.7392" stop-color="#9B44F6"/>
</linearGradient>
<linearGradient id="paint2_linear_443_2011" x1="83.7475" y1="7.5913" x2="98.5338" y2="61.6378" gradientUnits="userSpaceOnUse">
<stop offset="9.43019e-07" stop-color="#FF4681"/>
<stop offset="0.7392" stop-color="#9B44F6"/>
</linearGradient>
</defs>
</svg>
