<svg width="224" height="29" viewBox="0 0 224 29" fill="none" xmlns="http://www.w3.org/2000/svg">
<path d="M28 24.331C28 26.3586 26.3586 28 24.331 28H3.66897C1.64138 28 0 26.3586 0 24.331V3.66897C0 1.64138 1.64138 0 3.66897 0H24.331C26.3586 0 28 1.64138 28 3.66897V24.331Z" fill="white"/>
<path d="M23.6552 23.5585H14L23.6552 13.9999V23.5585Z" fill="url(#paint0_linear_271_1253)"/>
<path opacity="0.14" d="M23.6552 23.5585L18.8276 18.7309L19.6966 17.9585L23.6552 23.5585Z" fill="url(#paint1_linear_271_1253)"/>
<path d="M23.6552 23.5585H4.44141V4.34473L23.6552 23.5585Z" fill="url(#paint2_linear_271_1253)"/>
<path d="M110 10.4247V13.4592C109.714 13.4182 109.469 13.3771 109.264 13.3771C107.997 13.3771 107.016 13.7462 106.321 14.4843C105.626 15.2224 105.258 16.2476 105.258 17.6008V24.2438H102.028V10.4247H105.094V12.557C105.994 11.1628 107.629 10.4247 110 10.4247Z" fill="white"/>
<path d="M99.8197 18.3389H89.2716C89.476 19.3231 89.9257 20.1022 90.7025 20.7173C91.4793 21.2914 92.4606 21.5784 93.6053 21.5784C95.0771 21.5784 96.3037 21.0863 97.244 20.1022L99.0429 21.9065C98.4296 22.6446 97.5711 23.3007 96.6307 23.6698C95.6904 24.0388 94.6683 24.2438 93.5236 24.2438C92.0517 24.2438 90.7434 23.9568 89.6396 23.3417C88.5357 22.7676 87.6362 21.9475 87.023 20.8813C86.4097 19.8152 86.1235 18.626 86.1235 17.3138C86.1235 16.0016 86.4097 14.8124 87.023 13.7872C87.6362 12.721 88.4539 11.9009 89.5169 11.3268C90.5799 10.7527 91.7655 10.4247 93.0738 10.4247C94.3821 10.4247 95.5678 10.7117 96.5899 11.2858C97.612 11.8599 98.4296 12.68 99.002 13.7462C99.5744 14.8124 99.8606 16.0016 99.8606 17.3958C99.8606 17.6008 99.8606 17.9289 99.8197 18.3389ZM90.539 13.8692C89.844 14.4843 89.4351 15.2634 89.2716 16.2476H96.876C96.7534 15.2634 96.3445 14.4843 95.6495 13.8692C94.9545 13.2541 94.0959 12.9671 93.0738 12.9671C92.0517 12.9671 91.234 13.2541 90.539 13.8692Z" fill="white"/>
<path d="M86.287 10.4247L80.3179 24.2438H77.2108L71.2417 10.4247H74.5124L78.8461 20.5943L83.3025 10.4247H86.287Z" fill="white"/>
<path d="M71.5282 18.3389H60.9801C61.1845 19.3231 61.6342 20.1022 62.411 20.7173C63.1878 21.2914 64.1691 21.5784 65.3138 21.5784C66.7856 21.5784 68.0122 21.0863 68.9525 20.1022L70.7514 21.9065C70.1381 22.6446 69.2796 23.3007 68.3392 23.6698C67.3989 24.0388 66.3768 24.2438 65.232 24.2438C63.7602 24.2438 62.4519 23.9568 61.3481 23.3417C60.2442 22.7676 59.3447 21.9475 58.7315 20.8813C58.1182 19.8152 57.832 18.626 57.832 17.3138C57.832 16.0016 58.1182 14.8124 58.7315 13.7872C59.3447 12.721 60.1624 11.9009 61.2254 11.3268C62.2884 10.7527 63.474 10.4247 64.7823 10.4247C66.0906 10.4247 67.2762 10.7117 68.2983 11.2858C69.3204 11.8599 70.1381 12.68 70.7105 13.7462C71.2829 14.8124 71.5691 16.0016 71.5691 17.3958C71.5691 17.6008 71.5691 17.9289 71.5282 18.3389ZM62.2066 13.8692C61.5116 14.4843 61.1028 15.2634 60.9392 16.2476H68.5436C68.421 15.2634 68.0122 14.4843 67.3171 13.8692C66.6221 13.2541 65.7635 12.9671 64.7414 12.9671C63.7602 12.9671 62.9017 13.2541 62.2066 13.8692Z" fill="white"/>
<path d="M51.8218 5.34033H54.9698V24.2443H51.8218V5.34033Z" fill="white"/>
<path d="M45.2806 10.4247H49.2054L40.6607 19.036L38.6982 17.0677L45.2806 10.4247Z" fill="white"/>
<path d="M38.6982 17.0274L40.6198 15.1001L49.7369 24.2445H45.8529L38.6982 17.0684V17.0274Z" fill="white"/>
<path d="M39.1481 5.34033H36V24.2443H39.1481V5.34033Z" fill="white"/>
<path d="M133 20.88V24H119.992V7.2H132.688V10.32H123.856V13.968H131.656V16.992H123.856V20.88H133ZM143.874 24L141.042 20.04L138.114 24H134.034L139.002 17.496L134.202 11.088H138.402L141.138 14.856L143.946 11.088H147.93L143.13 17.4L148.122 24H143.874ZM157.571 10.896C158.771 10.896 159.859 11.176 160.835 11.736C161.827 12.28 162.603 13.056 163.163 14.064C163.723 15.056 164.003 16.216 164.003 17.544C164.003 18.872 163.723 20.04 163.163 21.048C162.603 22.04 161.827 22.816 160.835 23.376C159.859 23.92 158.771 24.192 157.571 24.192C155.923 24.192 154.627 23.672 153.683 22.632V28.656H149.939V11.088H153.515V12.576C154.443 11.456 155.795 10.896 157.571 10.896ZM156.923 21.12C157.883 21.12 158.667 20.8 159.275 20.16C159.899 19.504 160.211 18.632 160.211 17.544C160.211 16.456 159.899 15.592 159.275 14.952C158.667 14.296 157.883 13.968 156.923 13.968C155.963 13.968 155.171 14.296 154.547 14.952C153.939 15.592 153.635 16.456 153.635 17.544C153.635 18.632 153.939 19.504 154.547 20.16C155.171 20.8 155.963 21.12 156.923 21.12ZM166.509 6.192H170.253V24H166.509V6.192ZM179.872 24.192C178.512 24.192 177.288 23.912 176.2 23.352C175.128 22.776 174.288 21.984 173.68 20.976C173.072 19.968 172.768 18.824 172.768 17.544C172.768 16.264 173.072 15.12 173.68 14.112C174.288 13.104 175.128 12.32 176.2 11.76C177.288 11.184 178.512 10.896 179.872 10.896C181.232 10.896 182.448 11.184 183.52 11.76C184.592 12.32 185.432 13.104 186.04 14.112C186.648 15.12 186.952 16.264 186.952 17.544C186.952 18.824 186.648 19.968 186.04 20.976C185.432 21.984 184.592 22.776 183.52 23.352C182.448 23.912 181.232 24.192 179.872 24.192ZM179.872 21.12C180.832 21.12 181.616 20.8 182.224 20.16C182.848 19.504 183.16 18.632 183.16 17.544C183.16 16.456 182.848 15.592 182.224 14.952C181.616 14.296 180.832 13.968 179.872 13.968C178.912 13.968 178.12 14.296 177.496 14.952C176.872 15.592 176.56 16.456 176.56 17.544C176.56 18.632 176.872 19.504 177.496 20.16C178.12 20.8 178.912 21.12 179.872 21.12ZM193.031 12.792C193.479 12.168 194.079 11.696 194.831 11.376C195.599 11.056 196.479 10.896 197.471 10.896V14.352C197.055 14.32 196.775 14.304 196.631 14.304C195.559 14.304 194.719 14.608 194.111 15.216C193.503 15.808 193.199 16.704 193.199 17.904V24H189.455V11.088H193.031V12.792ZM212.228 17.592C212.228 17.64 212.204 17.976 212.156 18.6H202.388C202.564 19.4 202.98 20.032 203.636 20.496C204.292 20.96 205.108 21.192 206.084 21.192C206.756 21.192 207.348 21.096 207.86 20.904C208.388 20.696 208.876 20.376 209.324 19.944L211.316 22.104C210.1 23.496 208.324 24.192 205.988 24.192C204.532 24.192 203.244 23.912 202.124 23.352C201.004 22.776 200.14 21.984 199.532 20.976C198.924 19.968 198.62 18.824 198.62 17.544C198.62 16.28 198.916 15.144 199.508 14.136C200.116 13.112 200.94 12.32 201.98 11.76C203.036 11.184 204.212 10.896 205.508 10.896C206.772 10.896 207.916 11.168 208.94 11.712C209.964 12.256 210.764 13.04 211.34 14.064C211.932 15.072 212.228 16.248 212.228 17.592ZM205.532 13.728C204.684 13.728 203.972 13.968 203.396 14.448C202.82 14.928 202.468 15.584 202.34 16.416H208.7C208.572 15.6 208.22 14.952 207.644 14.472C207.068 13.976 206.364 13.728 205.532 13.728ZM218.296 12.792C218.744 12.168 219.344 11.696 220.096 11.376C220.864 11.056 221.744 10.896 222.736 10.896V14.352C222.32 14.32 222.04 14.304 221.896 14.304C220.824 14.304 219.984 14.608 219.376 15.216C218.768 15.808 218.464 16.704 218.464 17.904V24H214.72V11.088H218.296V12.792Z" fill="url(#paint3_linear_271_1253)"/>
<defs>
<linearGradient id="paint0_linear_271_1253" x1="18.8276" y1="13.9556" x2="18.8276" y2="23.5777" gradientUnits="userSpaceOnUse">
<stop offset="2.71717e-07" stop-color="#FF4681"/>
<stop offset="1" stop-color="#9B44F6"/>
</linearGradient>
<linearGradient id="paint1_linear_271_1253" x1="21.1564" y1="18.5887" x2="19.802" y2="22.1648" gradientUnits="userSpaceOnUse">
<stop offset="9.43019e-07"/>
<stop offset="1"/>
</linearGradient>
<linearGradient id="paint2_linear_271_1253" x1="-0.135918" y1="9.3743" x2="19.1083" y2="28.6185" gradientUnits="userSpaceOnUse">
<stop offset="9.43019e-07" stop-color="#FF4681"/>
<stop offset="0.7392" stop-color="#9B44F6"/>
</linearGradient>
<linearGradient id="paint3_linear_271_1253" x1="92.7475" y1="9.28245" x2="103.102" y2="55.0141" gradientUnits="userSpaceOnUse">
<stop offset="9.43019e-07" stop-color="#FF4681"/>
<stop offset="0.7392" stop-color="#9B44F6"/>
</linearGradient>
</defs>
</svg>
