<svg width="218" height="24" viewBox="0 0 218 24" fill="none" xmlns="http://www.w3.org/2000/svg">
<path d="M19.3281 19.2764H10.1729L19.3281 10.1455V19.2764Z" fill="url(#paint0_linear_3779_10303)"/>
<path opacity="0.14" d="M19.3282 19.2758L14.6348 14.9028L15.2592 14.2031L19.3282 19.2758Z" fill="black"/>
<path d="M19.3277 19.2763H0V0L19.3277 19.2763Z" fill="url(#paint1_linear_3779_10303)"/>
<path d="M106.811 5.1582V8.2368C106.52 8.1952 106.27 8.1536 106.062 8.1536C104.773 8.1536 103.775 8.52802 103.068 9.27687C102.361 10.0257 101.987 11.0658 101.987 12.4387V19.1783H98.7012V5.1582H101.82V7.32154C102.735 5.90705 104.399 5.1582 106.811 5.1582Z" fill="#222345"/>
<path d="M96.4558 13.1875H85.7258C85.9337 14.186 86.3912 14.9764 87.1814 15.6005C87.9716 16.1829 88.9698 16.4741 90.1342 16.4741C91.6315 16.4741 92.8791 15.9749 93.8357 14.9764L95.6656 16.807C95.0418 17.5558 94.1684 18.2214 93.2118 18.5959C92.2553 18.9703 91.2156 19.1783 90.0511 19.1783C88.5539 19.1783 87.223 18.8871 86.1001 18.263C84.9772 17.6806 84.0622 16.8486 83.4384 15.7669C82.8146 14.6852 82.5234 13.4787 82.5234 12.1475C82.5234 10.8162 82.8146 9.60969 83.4384 8.56962C84.0622 7.48795 84.894 6.6559 85.9753 6.07346C87.0567 5.49102 88.2627 5.1582 89.5936 5.1582C90.9244 5.1582 92.1305 5.44942 93.1703 6.03186C94.21 6.6143 95.0418 7.44635 95.624 8.52802C96.2063 9.60969 96.4974 10.8162 96.4974 12.2307C96.4974 12.4387 96.4974 12.7715 96.4558 13.1875ZM87.0151 8.65283C86.308 9.27687 85.8922 10.0673 85.7258 11.0658H93.4614C93.3366 10.0673 92.9207 9.27687 92.2137 8.65283C91.5067 8.02879 90.6333 7.73757 89.5936 7.73757C88.5539 7.73757 87.7221 8.02879 87.0151 8.65283Z" fill="#222345"/>
<path d="M82.6886 5.1582L76.6166 19.1783H73.4558L67.3838 5.1582H70.7109L75.1194 15.4757L79.6526 5.1582H82.6886Z" fill="#222345"/>
<path d="M67.6755 13.1875H56.9455C57.1535 14.186 57.611 14.9764 58.4011 15.6005C59.1913 16.1829 60.1895 16.4741 61.354 16.4741C62.8512 16.4741 64.0989 15.9749 65.0554 14.9764L66.8853 16.807C66.2615 17.5558 65.3881 18.2214 64.4316 18.5959C63.475 18.9703 62.4353 19.1783 61.2708 19.1783C59.7736 19.1783 58.4427 18.8871 57.3198 18.263C56.1969 17.6806 55.282 16.8486 54.6581 15.7669C54.0343 14.6852 53.7432 13.4787 53.7432 12.1475C53.7432 10.8162 54.0343 9.60969 54.6581 8.56962C55.282 7.48795 56.1137 6.6559 57.1951 6.07346C58.2764 5.49102 59.4825 5.1582 60.8133 5.1582C62.1442 5.1582 63.3503 5.44942 64.39 6.03186C65.4297 6.6143 66.2615 7.44635 66.8437 8.52802C67.426 9.60969 67.7171 10.8162 67.7171 12.2307C67.7171 12.4387 67.7171 12.7715 67.6755 13.1875ZM58.1932 8.65283C57.4862 9.27687 57.0703 10.0673 56.9039 11.0658H64.6395C64.5147 10.0673 64.0989 9.27687 63.3918 8.65283C62.6848 8.02879 61.8115 7.73757 60.7717 7.73757C59.7736 7.73757 58.9002 8.02879 58.1932 8.65283Z" fill="#222345"/>
<path d="M47.6299 0H50.8322V19.1788H47.6299V0Z" fill="#222345"/>
<path d="M40.9752 5.1582H44.9677L36.2756 13.8948L34.2793 11.8978L40.9752 5.1582Z" fill="#222345"/>
<path d="M34.2793 11.8567L36.234 9.90137L45.5084 19.1788H41.5574L34.2793 11.8983V11.8567Z" fill="#222345"/>
<path d="M34.7375 0H31.5352V19.1788H34.7375V0Z" fill="#222345"/>
<path d="M116.837 16.1106V12.166H124.771V9.09806H116.837V5.39701H125.821V2.23164H112.906V19.2759H126.139V16.1106H116.837Z" fill="url(#paint2_linear_3779_10303)"/>
<path d="M141.521 19.2759L136.443 12.58L141.326 6.17618H137.273L134.416 9.99897L131.633 6.17618H127.361L132.244 12.6774L127.19 19.2759H131.34L134.319 15.2583L137.2 19.2759H141.521Z" fill="url(#paint3_linear_3779_10303)"/>
<path d="M151.133 5.98139C149.375 5.98139 147.959 6.54141 147.007 7.68582V6.17618H143.37V23.9996H147.178V17.888C148.155 18.9594 149.498 19.4707 151.133 19.4707C154.82 19.4707 157.676 16.841 157.676 12.7261C157.676 8.61108 154.82 5.98139 151.133 5.98139ZM150.474 16.3541C148.57 16.3541 147.129 14.9905 147.129 12.7261C147.129 10.4616 148.57 9.09806 150.474 9.09806C152.378 9.09806 153.819 10.4616 153.819 12.7261C153.819 14.9905 152.378 16.3541 150.474 16.3541Z" fill="url(#paint4_linear_3779_10303)"/>
<path d="M160.226 19.2759H164.034V1.20898H160.226V19.2759Z" fill="url(#paint5_linear_3779_10303)"/>
<path d="M173.819 19.4707C177.994 19.4707 181.021 16.6706 181.021 12.7261C181.021 8.78152 177.994 5.98139 173.819 5.98139C169.644 5.98139 166.592 8.78152 166.592 12.7261C166.592 16.6706 169.644 19.4707 173.819 19.4707ZM173.819 16.3541C171.915 16.3541 170.45 14.9905 170.45 12.7261C170.45 10.4616 171.915 9.09806 173.819 9.09806C175.723 9.09806 177.164 10.4616 177.164 12.7261C177.164 14.9905 175.723 16.3541 173.819 16.3541Z" fill="url(#paint6_linear_3779_10303)"/>
<path d="M187.204 7.90496V6.17618H183.567V19.2759H187.375V13.0913C187.375 10.5833 188.767 9.43894 190.867 9.43894C191.16 9.43894 191.404 9.46329 191.721 9.48764V5.98139C189.695 5.98139 188.132 6.63881 187.204 7.90496Z" fill="url(#paint7_linear_3779_10303)"/>
<path d="M206.733 12.7748C206.733 8.56238 203.754 5.98139 199.897 5.98139C195.893 5.98139 192.89 8.80587 192.89 12.7261C192.89 16.6219 195.844 19.4707 200.385 19.4707C202.753 19.4707 204.584 18.7403 205.805 17.3524L203.778 15.161C202.875 16.0132 201.874 16.4271 200.483 16.4271C198.481 16.4271 197.089 15.4288 196.723 13.7974H206.659C206.684 13.4809 206.733 13.0669 206.733 12.7748ZM199.921 8.85457C201.63 8.85457 202.875 9.92592 203.144 11.5817H196.674C196.943 9.90157 198.188 8.85457 199.921 8.85457Z" fill="url(#paint8_linear_3779_10303)"/>
<path d="M212.906 7.90496V6.17618H209.268V19.2759H213.077V13.0913C213.077 10.5833 214.468 9.43894 216.568 9.43894C216.861 9.43894 217.105 9.46329 217.422 9.48764V5.98139C215.396 5.98139 213.834 6.63881 212.906 7.90496Z" fill="url(#paint9_linear_3779_10303)"/>
<defs>
<linearGradient id="paint0_linear_3779_10303" x1="14.7505" y1="10.1032" x2="14.7505" y2="19.2947" gradientUnits="userSpaceOnUse">
<stop offset="2.71717e-07" stop-color="#FF4681"/>
<stop offset="1" stop-color="#9B44F6"/>
</linearGradient>
<linearGradient id="paint1_linear_3779_10303" x1="-4.60446" y1="5.04593" x2="14.7023" y2="24.4041" gradientUnits="userSpaceOnUse">
<stop offset="9.43019e-07" stop-color="#FF4681"/>
<stop offset="0.7392" stop-color="#9B44F6"/>
</linearGradient>
<linearGradient id="paint2_linear_3779_10303" x1="88.0072" y1="7.17487" x2="97.5105" y2="50.7561" gradientUnits="userSpaceOnUse">
<stop offset="9.43019e-07" stop-color="#FF4681"/>
<stop offset="0.7392" stop-color="#9B44F6"/>
</linearGradient>
<linearGradient id="paint3_linear_3779_10303" x1="88.0072" y1="7.17487" x2="97.5105" y2="50.7561" gradientUnits="userSpaceOnUse">
<stop offset="9.43019e-07" stop-color="#FF4681"/>
<stop offset="0.7392" stop-color="#9B44F6"/>
</linearGradient>
<linearGradient id="paint4_linear_3779_10303" x1="88.0072" y1="7.17487" x2="97.5105" y2="50.7561" gradientUnits="userSpaceOnUse">
<stop offset="9.43019e-07" stop-color="#FF4681"/>
<stop offset="0.7392" stop-color="#9B44F6"/>
</linearGradient>
<linearGradient id="paint5_linear_3779_10303" x1="88.0072" y1="7.17487" x2="97.5105" y2="50.7561" gradientUnits="userSpaceOnUse">
<stop offset="9.43019e-07" stop-color="#FF4681"/>
<stop offset="0.7392" stop-color="#9B44F6"/>
</linearGradient>
<linearGradient id="paint6_linear_3779_10303" x1="88.0072" y1="7.17487" x2="97.5105" y2="50.7561" gradientUnits="userSpaceOnUse">
<stop offset="9.43019e-07" stop-color="#FF4681"/>
<stop offset="0.7392" stop-color="#9B44F6"/>
</linearGradient>
<linearGradient id="paint7_linear_3779_10303" x1="88.0072" y1="7.17487" x2="97.5105" y2="50.7561" gradientUnits="userSpaceOnUse">
<stop offset="9.43019e-07" stop-color="#FF4681"/>
<stop offset="0.7392" stop-color="#9B44F6"/>
</linearGradient>
<linearGradient id="paint8_linear_3779_10303" x1="88.0072" y1="7.17487" x2="97.5105" y2="50.7561" gradientUnits="userSpaceOnUse">
<stop offset="9.43019e-07" stop-color="#FF4681"/>
<stop offset="0.7392" stop-color="#9B44F6"/>
</linearGradient>
<linearGradient id="paint9_linear_3779_10303" x1="88.0072" y1="7.17487" x2="97.5105" y2="50.7561" gradientUnits="userSpaceOnUse">
<stop offset="9.43019e-07" stop-color="#FF4681"/>
<stop offset="0.7392" stop-color="#9B44F6"/>
</linearGradient>
</defs>
</svg>
