<svg width="25" height="24" viewBox="0 0 25 24" fill="none" xmlns="http://www.w3.org/2000/svg">
<mask id="mask0_2339_3285" style="mask-type:luminance" maskUnits="userSpaceOnUse" x="2" y="3" width="20" height="20">
<path fill-rule="evenodd" clip-rule="evenodd" d="M2.5 3.00037H21.999V22.4994H2.5V3.00037Z" fill="white"/>
</mask>
<g mask="url(#mask0_2339_3285)">
<path fill-rule="evenodd" clip-rule="evenodd" d="M11.3052 14.8178L14.9622 20.7508C15.1222 21.0108 15.3722 21.0078 15.4732 20.9938C15.5742 20.9798 15.8172 20.9178 15.9052 20.6228L20.4782 5.17777C20.5582 4.90477 20.4112 4.71877 20.3452 4.65277C20.2812 4.58677 20.0982 4.44577 19.8332 4.52077L4.37715 9.04677C4.08415 9.13277 4.02015 9.37877 4.00615 9.47977C3.99215 9.58277 3.98815 9.83777 4.24715 10.0008L10.2482 13.7538L15.5502 8.39577C15.8412 8.10177 16.3162 8.09877 16.6112 8.38977C16.9062 8.68077 16.9082 9.15677 16.6172 9.45077L11.3052 14.8178ZM15.3949 22.4998C14.6989 22.4998 14.0609 22.1458 13.6849 21.5378L9.80794 15.2468L3.45194 11.2718C2.76694 10.8428 2.40894 10.0788 2.51994 9.27577C2.62994 8.47277 3.18094 7.83477 3.95494 7.60777L19.4109 3.08177C20.1219 2.87377 20.8839 3.07077 21.4079 3.59277C21.9319 4.11977 22.1269 4.88977 21.9149 5.60377L17.3419 21.0478C17.1129 21.8248 16.4729 22.3738 15.6719 22.4808C15.5779 22.4928 15.4869 22.4998 15.3949 22.4998V22.4998Z" fill="#646693"/>
</g>
</svg>
