<svg width="24" height="24" viewBox="0 0 24 24" fill="none" xmlns="http://www.w3.org/2000/svg">
<path d="M14 2V6C14 6.53043 14.2107 7.03914 14.5858 7.41421C14.9609 7.78929 15.4696 8 16 8H20M4.67699 21.5C5.03979 21.82 5.50626 21.9976 5.98999 22H18C18.5304 22 19.0391 21.7893 19.4142 21.4142C19.7893 21.0391 20 20.5304 20 20V7L15 2H5.99999C5.46956 2 4.96085 2.21071 4.58578 2.58579C4.21071 2.96086 3.99999 3.46957 3.99999 4V6.5M4.16666 14.4167C4.3456 14.6559 4.57389 14.8538 4.83605 14.9971C5.09822 15.1403 5.38812 15.2255 5.6861 15.2468C5.98407 15.2681 6.28315 15.2252 6.56305 15.1207C6.84295 15.0163 7.09712 14.8529 7.30833 14.6417L8.55833 13.3917C8.93782 12.9987 9.14781 12.4725 9.14306 11.9262C9.13832 11.38 8.91921 10.8575 8.53295 10.4712C8.14668 10.0849 7.62415 9.86584 7.07791 9.8611C6.53167 9.85635 6.00541 10.0663 5.61249 10.4458L4.89582 11.1583M5.83332 13.5833C5.65439 13.3441 5.42609 13.1462 5.16393 13.0029C4.90177 12.8597 4.61186 12.7745 4.31389 12.7532C4.01591 12.7319 3.71683 12.7748 3.43693 12.8793C3.15703 12.9837 2.90286 13.1471 2.69166 13.3583L1.44166 14.6083C1.06216 15.0013 0.852174 15.5275 0.856921 16.0738C0.861668 16.62 1.08077 17.1425 1.46704 17.5288C1.8533 17.9151 2.37583 18.1342 2.92207 18.1389C3.46832 18.1437 3.99457 17.9337 4.38749 17.5542L5.09999 16.8417" stroke="#F8FAFC" stroke-width="1.2" stroke-linecap="round" stroke-linejoin="round"/>
</svg>
