<svg width="16" height="16" viewBox="0 0 16 16" fill="none" xmlns="http://www.w3.org/2000/svg">
<path d="M9.33333 1.33337V4.00004C9.33333 4.35366 9.4738 4.6928 9.72385 4.94285C9.9739 5.1929 10.313 5.33337 10.6667 5.33337H13.3333M3.11799 14.3334C3.35986 14.5467 3.67084 14.6651 3.99333 14.6667H12C12.3536 14.6667 12.6928 14.5262 12.9428 14.2762C13.1929 14.0261 13.3333 13.687 13.3333 13.3334V4.66671L9.99999 1.33337H3.99999C3.64637 1.33337 3.30723 1.47385 3.05719 1.7239C2.80714 1.97395 2.66666 2.31309 2.66666 2.66671V4.33337M2.77777 9.61115C2.89706 9.77063 3.04926 9.90259 3.22404 9.99808C3.39881 10.0936 3.59208 10.1503 3.79073 10.1646C3.98938 10.1788 4.18877 10.1501 4.37537 10.0805C4.56197 10.0109 4.73142 9.902 4.87222 9.76115L5.70555 8.92782C5.95855 8.66587 6.09854 8.31503 6.09538 7.95087C6.09221 7.58671 5.94614 7.23836 5.68863 6.98085C5.43112 6.72334 5.08277 6.57727 4.71861 6.5741C4.35444 6.57094 4.00361 6.71093 3.74166 6.96393L3.26388 7.43893M3.88888 9.0556C3.76959 8.89612 3.6174 8.76416 3.44262 8.66867C3.26784 8.57318 3.07458 8.5164 2.87592 8.50217C2.67727 8.48794 2.47789 8.51661 2.29129 8.58621C2.10469 8.65582 1.93524 8.76474 1.79444 8.9056L0.961106 9.73893C0.708108 10.0009 0.568116 10.3517 0.571281 10.7159C0.574445 11.08 0.720513 11.4284 0.978024 11.6859C1.23554 11.9434 1.58389 12.0895 1.94805 12.0926C2.31221 12.0958 2.66305 11.9558 2.92499 11.7028L3.39999 11.2278" stroke="#1E1E1E" stroke-linecap="round" stroke-linejoin="round"/>
</svg>
