<svg width="22" height="22" viewBox="0 0 22 22" fill="none" xmlns="http://www.w3.org/2000/svg">
<g id="Plus">
<path id="Fill 1" fill-rule="evenodd" clip-rule="evenodd" d="M10.75 15.1541C10.336 15.1541 10 14.8181 10 14.4041V7.07715C10 6.66315 10.336 6.32715 10.75 6.32715C11.164 6.32715 11.5 6.66315 11.5 7.07715V14.4041C11.5 14.8181 11.164 15.1541 10.75 15.1541Z" fill="white"/>
<path id="Fill 3" fill-rule="evenodd" clip-rule="evenodd" d="M14.417 11.4902H7.08398C6.66898 11.4902 6.33398 11.1542 6.33398 10.7402C6.33398 10.3262 6.66898 9.99023 7.08398 9.99023H14.417C14.831 9.99023 15.167 10.3262 15.167 10.7402C15.167 11.1542 14.831 11.4902 14.417 11.4902Z" fill="white"/>
<path id="Fill 5" fill-rule="evenodd" clip-rule="evenodd" d="M6.064 1.5C3.292 1.5 1.5 3.397 1.5 6.335V15.165C1.5 18.103 3.292 20 6.064 20H15.436C18.209 20 20 18.103 20 15.165V6.335C20 3.397 18.209 1.5 15.436 1.5H6.064ZM15.436 21.5H6.064C2.437 21.5 0 18.954 0 15.165V6.335C0 2.546 2.437 0 6.064 0H15.436C19.063 0 21.5 2.546 21.5 6.335V15.165C21.5 18.954 19.063 21.5 15.436 21.5Z" fill="white"/>
</g>
</svg>
