<svg width="24" height="24" viewBox="0 0 24 24" fill="none" xmlns="http://www.w3.org/2000/svg">
<mask id="mask0_2339_3294" style="mask-type:luminance" maskUnits="userSpaceOnUse" x="2" y="13" width="16" height="9">
<path fill-rule="evenodd" clip-rule="evenodd" d="M2.00098 13.957H17.1848V21.0566H2.00098V13.957Z" fill="white"/>
</mask>
<g mask="url(#mask0_2339_3294)">
<path fill-rule="evenodd" clip-rule="evenodd" d="M9.59298 15.457C6.81398 15.457 3.50098 15.814 3.50098 17.519C3.50098 18.871 5.55098 19.557 9.59298 19.557C13.635 19.557 15.685 18.864 15.685 17.499C15.685 16.144 13.635 15.457 9.59298 15.457M9.59298 21.057C7.51698 21.057 2.00098 21.057 2.00098 17.519C2.00098 13.957 7.71498 13.957 9.59298 13.957C12.852 13.957 17.185 14.324 17.185 17.499C17.185 21.057 11.471 21.057 9.59298 21.057" fill="#646693"/>
</g>
<path fill-rule="evenodd" clip-rule="evenodd" d="M9.59254 3.5C7.58754 3.5 5.95654 5.131 5.95654 7.135C5.95654 9.139 7.58754 10.77 9.59254 10.77H9.62354C10.5875 10.766 11.4955 10.387 12.1765 9.7C12.8585 9.015 13.2315 8.104 13.2275 7.138C13.2275 5.131 11.5965 3.5 9.59254 3.5V3.5ZM9.59254 12.27C6.76054 12.27 4.45654 9.966 4.45654 7.135C4.45654 4.304 6.76054 2 9.59254 2C12.4235 2 14.7275 4.304 14.7275 7.135C14.7335 8.499 14.2045 9.787 13.2405 10.757C12.2785 11.728 10.9935 12.265 9.62654 12.27H9.59254Z" fill="#646693"/>
<path fill-rule="evenodd" clip-rule="evenodd" d="M16.4831 11.1318C16.1151 11.1318 15.7941 10.8608 15.7411 10.4858C15.6841 10.0758 15.9691 9.69577 16.3791 9.63877C17.6271 9.46377 18.5691 8.38077 18.5711 7.11877C18.5711 5.86477 17.6731 4.80677 16.4381 4.60477C16.0291 4.53677 15.7521 4.15177 15.8191 3.74277C15.8861 3.33377 16.2731 3.05877 16.6801 3.12377C18.6451 3.44577 20.0711 5.12677 20.0711 7.11977C20.0671 9.12477 18.5701 10.8468 16.5881 11.1248C16.5531 11.1298 16.5181 11.1318 16.4831 11.1318" fill="#646693"/>
<mask id="mask1_2339_3294" style="mask-type:luminance" maskUnits="userSpaceOnUse" x="17" y="13" width="5" height="6">
<path fill-rule="evenodd" clip-rule="evenodd" d="M17.8462 13.4834H21.98V18.4609H17.8462V13.4834Z" fill="white"/>
</mask>
<g mask="url(#mask1_2339_3294)">
<path fill-rule="evenodd" clip-rule="evenodd" d="M19.8965 18.4609C19.5935 18.4609 19.3085 18.2759 19.1955 17.9769C19.0485 17.5899 19.2435 17.1559 19.6305 17.0099C20.4805 16.6879 20.4805 16.2949 20.4805 16.1269C20.4805 15.5599 19.8095 15.1719 18.4865 14.9749C18.0765 14.9129 17.7935 14.5309 17.8545 14.1219C17.9165 13.7119 18.3055 13.4369 18.7075 13.4899C21.4135 13.8949 21.9805 15.1479 21.9805 16.1269C21.9805 16.8559 21.6655 17.8429 20.1625 18.4119C20.0755 18.4449 19.9855 18.4609 19.8965 18.4609" fill="#646693"/>
</g>
</svg>
