<svg width="25" height="24" viewBox="0 0 25 24" fill="none" xmlns="http://www.w3.org/2000/svg">
<path fill-rule="evenodd" clip-rule="evenodd" d="M22.0185 14.7984H18.2903C16.5431 14.7984 15.121 13.3773 15.1201 11.631C15.1201 9.88293 16.5422 8.46088 18.2903 8.45996H22.0185C22.3998 8.45996 22.7093 8.76942 22.7093 9.15072C22.7093 9.53202 22.3998 9.84148 22.0185 9.84148H18.2903C17.3038 9.84241 16.5016 10.6446 16.5016 11.6301C16.5016 12.6147 17.3048 13.4169 18.2903 13.4169H22.0185C22.3998 13.4169 22.7093 13.7263 22.7093 14.1076C22.7093 14.4889 22.3998 14.7984 22.0185 14.7984Z" fill="white"/>
<path fill-rule="evenodd" clip-rule="evenodd" d="M18.7105 12.2634H18.4232C18.0419 12.2634 17.7324 11.9539 17.7324 11.5726C17.7324 11.1913 18.0419 10.8818 18.4232 10.8818H18.7105C19.0918 10.8818 19.4013 11.1913 19.4013 11.5726C19.4013 11.9539 19.0918 12.2634 18.7105 12.2634Z" fill="white"/>
<mask id="mask0_4207_8622" style="mask-type:luminance" maskUnits="userSpaceOnUse" x="3" y="2" width="20" height="19">
<path fill-rule="evenodd" clip-rule="evenodd" d="M3.7002 2.9209H22.7087V20.5794H3.7002V2.9209Z" fill="white"/>
</mask>
<g mask="url(#mask0_4207_8622)">
<path fill-rule="evenodd" clip-rule="evenodd" d="M9.22525 4.30243C6.94113 4.30243 5.08252 6.16104 5.08252 8.44516V15.0553C5.08252 17.3394 6.94113 19.198 9.22525 19.198H17.1865C19.4706 19.198 21.3283 17.3394 21.3283 15.0553V8.44516C21.3283 6.16104 19.4706 4.30243 17.1865 4.30243H9.22525ZM17.1857 20.5795H9.22445C6.17865 20.5795 3.7002 18.1011 3.7002 15.0553V8.44515C3.7002 5.39843 6.17865 2.9209 9.22445 2.9209H17.1857C20.2315 2.9209 22.709 5.39843 22.709 8.44515V15.0553C22.709 18.1011 20.2315 20.5795 17.1857 20.5795Z" fill="white"/>
</g>
<path fill-rule="evenodd" clip-rule="evenodd" d="M13.5403 8.48211H8.56772C8.18641 8.48211 7.87695 8.17265 7.87695 7.79135C7.87695 7.41005 8.18641 7.10059 8.56772 7.10059H13.5403C13.9216 7.10059 14.231 7.41005 14.231 7.79135C14.231 8.17265 13.9216 8.48211 13.5403 8.48211Z" fill="white"/>
</svg>
