<svg width="69" height="70" viewBox="0 0 69 70" fill="none" xmlns="http://www.w3.org/2000/svg">
<rect opacity="0.8" y="14.533" width="56" height="56" rx="8" transform="rotate(-15 0 14.533)" fill="#AA33B5"/>
<g filter="url(#filter0_bii_21:531)">
<rect x="12.9219" y="13.9609" width="56" height="56" rx="8" fill="#AA33B5" fill-opacity="0.2"/>
</g>
<path d="M40.8369 46.1941C35.0869 46.1941 30.2354 47.1337 30.2354 50.7599C30.2354 54.3876 35.1183 55.2942 40.8369 55.2942C46.5869 55.2942 51.4385 54.3546 51.4385 50.7284C51.4385 47.1006 46.5556 46.1941 40.8369 46.1941Z" fill="white"/>
<path d="M40.8368 42.7392C44.7303 42.7392 47.8522 39.5993 47.8522 35.6834C47.8522 31.766 44.7303 28.6275 40.8368 28.6275C36.9433 28.6275 33.8213 31.766 33.8213 35.6834C33.8213 39.5993 36.9433 42.7392 40.8368 42.7392Z" fill="white"/>
<path opacity="0.6" d="M56.0685 37.3263C57.0758 33.3639 54.1225 29.8052 50.3618 29.8052C49.9529 29.8052 49.5619 29.8502 49.1799 29.9267C49.1291 29.9387 49.0724 29.9643 49.0426 30.0093C49.0082 30.0663 49.0336 30.1429 49.0709 30.1924C50.2006 31.7864 50.8498 33.7271 50.8498 35.8104C50.8498 37.8066 50.2543 39.6678 49.2097 41.2122C49.1023 41.3713 49.1978 41.5859 49.3873 41.619C49.6499 41.6655 49.9186 41.6895 50.1932 41.697C52.9316 41.769 55.3895 39.9965 56.0685 37.3263Z" fill="white"/>
<path opacity="0.6" d="M58.9371 46.6558C58.4356 45.5811 57.2254 44.8441 55.3853 44.4824C54.5168 44.2693 52.1663 43.9691 49.9801 44.0096C49.9472 44.0141 49.9293 44.0366 49.9263 44.0517C49.9219 44.0727 49.9308 44.1087 49.9741 44.1312C50.9844 44.634 54.8898 46.8209 54.3989 51.4332C54.378 51.6328 54.5377 51.8054 54.7361 51.7754C55.6972 51.6373 58.17 51.103 58.9371 49.4385C59.3609 48.5589 59.3609 47.5368 58.9371 46.6558Z" fill="white"/>
<path opacity="0.6" d="M32.663 29.9272C32.2825 29.8491 31.89 29.8056 31.4811 29.8056C27.7204 29.8056 24.7671 33.3643 25.7759 37.3267C26.4534 39.9969 28.9113 41.7695 31.6497 41.6974C31.9243 41.6899 32.1944 41.6644 32.4556 41.6194C32.6451 41.5864 32.7406 41.3717 32.6332 41.2126C31.5885 39.6667 30.9931 37.807 30.9931 35.8108C30.9931 33.726 31.6437 31.7853 32.7734 30.1928C32.8093 30.1433 32.8361 30.0668 32.8003 30.0097C32.7705 29.9632 32.7152 29.9392 32.663 29.9272Z" fill="white"/>
<path opacity="0.6" d="M26.4576 44.482C24.6176 44.8437 23.4088 45.5807 22.9074 46.6553C22.482 47.5364 22.482 48.5585 22.9074 49.4395C23.6744 51.1026 26.1472 51.6384 27.1083 51.775C27.3068 51.805 27.465 51.6339 27.4441 51.4328C26.9531 46.8219 30.8585 44.6351 31.8703 44.1323C31.9121 44.1083 31.9211 44.0737 31.9166 44.0512C31.9136 44.0362 31.8972 44.0137 31.8644 44.0107C29.6766 43.9687 27.3277 44.2688 26.4576 44.482Z" fill="white"/>
<defs>
<filter id="filter0_bii_21:531" x="5.45521" y="6.49419" width="70.9333" height="70.9333" filterUnits="userSpaceOnUse" color-interpolation-filters="sRGB">
<feFlood flood-opacity="0" result="BackgroundImageFix"/>
<feGaussianBlur in="BackgroundImage" stdDeviation="3.73333"/>
<feComposite in2="SourceAlpha" operator="in" result="effect1_backgroundBlur_21:531"/>
<feBlend mode="normal" in="SourceGraphic" in2="effect1_backgroundBlur_21:531" result="shape"/>
<feColorMatrix in="SourceAlpha" type="matrix" values="0 0 0 0 0 0 0 0 0 0 0 0 0 0 0 0 0 0 127 0" result="hardAlpha"/>
<feOffset dx="-3.73333" dy="3.73333"/>
<feGaussianBlur stdDeviation="1.86667"/>
<feComposite in2="hardAlpha" operator="arithmetic" k2="-1" k3="1"/>
<feColorMatrix type="matrix" values="0 0 0 0 1 0 0 0 0 1 0 0 0 0 1 0 0 0 0.1 0"/>
<feBlend mode="normal" in2="shape" result="effect2_innerShadow_21:531"/>
<feColorMatrix in="SourceAlpha" type="matrix" values="0 0 0 0 0 0 0 0 0 0 0 0 0 0 0 0 0 0 127 0" result="hardAlpha"/>
<feOffset dx="3.73333" dy="-3.73333"/>
<feGaussianBlur stdDeviation="1.86667"/>
<feComposite in2="hardAlpha" operator="arithmetic" k2="-1" k3="1"/>
<feColorMatrix type="matrix" values="0 0 0 0 0.366588 0 0 0 0 0.372549 0 0 0 0 0.53051 0 0 0 0.1 0"/>
<feBlend mode="normal" in2="effect2_innerShadow_21:531" result="effect3_innerShadow_21:531"/>
</filter>
</defs>
</svg>
