
<svg width="69" height="70" fill="none" xmlns="http://www.w3.org/2000/svg">
	
	<rect opacity=".8" y="14.533" width="56" height="56" rx="8" transform="rotate(-15 0 14.533)" fill="#AA33B5"></rect>

	<g filter="url(#a)"><rect x="12.922" y="13.961" width="56" height="56" rx="8" fill="#AA33B5" fill-opacity=".2"></rect></g>


	<path fill="#FFF"  d="M42.4,58c-9.3,0-16.8-7.5-16.8-16.8c0-9.3,7.5-16.8,16.8-16.8c9.3,0,16.8,7.5,16.8,16.8
	C59.1,50.5,51.6,58,42.4,58z M47.7,47.4c0.2,0.1,0.4,0.2,0.7,0.2c0.4,0,0.8-0.2,1.1-0.6c0.4-0.6,0.2-1.4-0.4-1.7l-6-3.6V34
	c0-0.7-0.6-1.3-1.3-1.3c-0.7,0-1.3,0.6-1.3,1.3v8.5c0,0.4,0.2,0.8,0.6,1.1L47.7,47.4z"/>

	<defs><filter id="a" x="5.455" y="6.494" width="70.933" height="70.933" filterUnits="userSpaceOnUse" color-interpolation-filters="sRGB"><feFlood flood-opacity="0" result="BackgroundImageFix"></feFlood><feGaussianBlur in="BackgroundImage" stdDeviation="3.733"></feGaussianBlur><feComposite in2="SourceAlpha" operator="in" result="effect1_backgroundBlur_21:531"></feComposite><feBlend in="SourceGraphic" in2="effect1_backgroundBlur_21:531" result="shape"></feBlend><feColorMatrix in="SourceAlpha" values="0 0 0 0 0 0 0 0 0 0 0 0 0 0 0 0 0 0 127 0" result="hardAlpha"></feColorMatrix><feOffset dx="-3.733" dy="3.733"></feOffset><feGaussianBlur stdDeviation="1.867"></feGaussianBlur><feComposite in2="hardAlpha" operator="arithmetic" k2="-1" k3="1"></feComposite><feColorMatrix values="0 0 0 0 1 0 0 0 0 1 0 0 0 0 1 0 0 0 0.1 0"></feColorMatrix><feBlend in2="shape" result="effect2_innerShadow_21:531"></feBlend><feColorMatrix in="SourceAlpha" values="0 0 0 0 0 0 0 0 0 0 0 0 0 0 0 0 0 0 127 0" result="hardAlpha"></feColorMatrix><feOffset dx="3.733" dy="-3.733"></feOffset><feGaussianBlur stdDeviation="1.867"></feGaussianBlur><feComposite in2="hardAlpha" operator="arithmetic" k2="-1" k3="1"></feComposite><feColorMatrix values="0 0 0 0 0.366588 0 0 0 0 0.372549 0 0 0 0 0.53051 0 0 0 0.1 0"></feColorMatrix><feBlend in2="effect2_innerShadow_21:531" result="effect3_innerShadow_21:531"></feBlend></filter></defs>

</svg>