<svg width="40" height="40" viewBox="0 0 40 40" fill="none" xmlns="http://www.w3.org/2000/svg">
<rect width="40" height="40" rx="8" fill="white"/>
<path fill-rule="evenodd" clip-rule="evenodd" d="M21.5583 32.3407C21.5597 32.3408 21.5612 32.3408 21.5626 32.3408H22.2251H22.7246H22.789H32.1882C32.5578 32.3408 32.8574 32.0412 32.8574 31.6716V22.3731V22.3141V21.8282V21.1523C32.8574 20.5578 32.1399 20.2585 31.7174 20.6768L31.2371 21.1523L30.8918 21.4941L30.8499 21.5356L26.429 25.9123L9.15056 8.63392L9.10695 8.59031L8.75857 8.24193L8.2854 7.76876C7.86385 7.34721 7.14307 7.64577 7.14307 8.24193V8.91109V9.40378V9.46545V31.6716C7.14307 32.0412 7.44266 32.3407 7.81223 32.3407H21.5583ZM30.8499 30.3332V24.3605L27.8485 27.3318L30.8499 30.3332ZM26.4218 28.7442L28.0109 30.3333L24.8167 30.3333L26.4218 28.7442ZM25.0023 27.3247L21.9633 30.3333L9.15056 30.3333V11.4729L25.0023 27.3247Z" fill="url(#paint0_linear_21_339)"/>
<defs>
<linearGradient id="paint0_linear_21_339" x1="1.01712" y1="14.0553" x2="25.8083" y2="39.7922" gradientUnits="userSpaceOnUse">
<stop offset="9.43019e-07" stop-color="#FF4681"/>
<stop offset="0.7392" stop-color="#9B44F6"/>
</linearGradient>
</defs>
</svg>
