<svg width="20" height="20" viewBox="0 0 20 20" fill="none" xmlns="http://www.w3.org/2000/svg">
<path d="M15.8808 5.58925C15.8808 5.58925 14.1951 4.26972 12.2052 4.11902L12.0258 4.47812C13.8246 4.91883 14.6502 5.54882 15.5132 6.32437C14.0257 5.56499 12.558 4.85414 9.99984 4.85414C7.44164 4.85414 5.97398 5.56499 4.48647 6.32437C5.3495 5.54882 6.33161 4.84826 7.97386 4.47812L7.79449 4.11902C5.70677 4.31566 4.11892 5.58925 4.11892 5.58925C4.11892 5.58925 2.23666 8.31874 1.91357 13.6755C3.81017 15.8636 6.69182 15.8809 6.69182 15.8809L7.29462 15.0781C6.27134 14.7223 5.11721 14.0876 4.11892 12.9404C5.30907 13.8409 7.10532 14.7782 9.99984 14.7782C12.8944 14.7782 14.6906 13.8409 15.8808 12.9404C14.8828 14.0876 13.7287 14.7223 12.7051 15.0781L13.3079 15.8809C13.3079 15.8809 16.1895 15.8636 18.0861 13.6755C17.763 8.31873 15.8808 5.58925 15.8808 5.58925ZM7.61072 12.2053C6.89986 12.2053 6.32427 11.5474 6.32427 10.7351C6.32427 9.92276 6.89986 9.26483 7.61072 9.26483C8.32157 9.26483 8.89717 9.92276 8.89717 10.7351C8.89717 11.5474 8.32157 12.2053 7.61072 12.2053ZM12.389 12.2053C11.6781 12.2053 11.1025 11.5474 11.1025 10.7351C11.1025 9.92276 11.6781 9.26483 12.389 9.26483C13.0998 9.26483 13.6754 9.92276 13.6754 10.7351C13.6754 11.5474 13.0998 12.2053 12.389 12.2053Z" fill="white"/>
</svg>
