<svg width="20" height="20" fill="none" xmlns="http://www.w3.org/2000/svg"><path class="st0" d="M10,0C4.477,0,0,4.477,0,10c0,4.686,3.227,8.607,7.577,9.692C7.53,19.557,7.5,19.4,7.5,19.206v-1.709
	c-0.406,0-1.086,0-1.257,0c-0.684,0-1.292-0.294-1.587-0.841c-0.327-0.608-0.384-1.537-1.196-2.105
	c-0.241-0.189-0.057-0.405,0.22-0.376c0.513,0.145,0.938,0.497,1.338,1.018c0.398,0.523,0.586,0.641,1.33,0.641
	c0.361,0,0.901-0.021,1.409-0.101C8.03,15.039,8.502,14.4,9.08,14.098c-3.33-0.342-4.919-1.999-4.919-4.248
	c0-0.968,0.412-1.905,1.113-2.694c-0.23-0.783-0.519-2.381,0.088-2.989c1.498,0,2.404,0.972,2.622,1.234
	C8.731,5.145,9.551,5,10.413,5c0.863,0,1.687,0.145,2.435,0.402c0.215-0.261,1.122-1.236,2.623-1.236
	c0.61,0.609,0.318,2.213,0.085,2.995c0.697,0.787,1.107,1.722,1.107,2.688c0,2.248-1.587,3.903-4.912,4.248
	c0.915,0.477,1.583,1.819,1.583,2.83v2.278c0,0.087-0.019,0.149-0.029,0.223C17.201,18.063,20,14.363,20,10C20,4.477,15.523,0,10,0z
	" fill="#fff"></path></svg>

