<svg width="20" height="20" viewBox="0 0 20 20" fill="none" xmlns="http://www.w3.org/2000/svg">
<path d="M13.3335 6.66663C14.6596 6.66663 15.9313 7.19341 16.869 8.13109C17.8067 9.06877 18.3335 10.3405 18.3335 11.6666V17.5H15.0002V11.6666C15.0002 11.2246 14.8246 10.8007 14.512 10.4881C14.1994 10.1756 13.7755 9.99996 13.3335 9.99996C12.8915 9.99996 12.4675 10.1756 12.155 10.4881C11.8424 10.8007 11.6668 11.2246 11.6668 11.6666V17.5H8.3335V11.6666C8.3335 10.3405 8.86028 9.06877 9.79796 8.13109C10.7356 7.19341 12.0074 6.66663 13.3335 6.66663Z" fill="white"/>
<path d="M4.99984 7.5H1.6665V17.5H4.99984V7.5Z" fill="white"/>
<path d="M3.33317 4.99996C4.25365 4.99996 4.99984 4.25377 4.99984 3.33329C4.99984 2.41282 4.25365 1.66663 3.33317 1.66663C2.4127 1.66663 1.6665 2.41282 1.6665 3.33329C1.6665 4.25377 2.4127 4.99996 3.33317 4.99996Z" fill="white"/>
</svg>
