<svg width="20" height="20" viewBox="0 0 20 20" fill="none" xmlns="http://www.w3.org/2000/svg">
<circle cx="10" cy="10" r="10" fill="#F43942"/>
<path d="M13.2915 6.29166C13.1665 6.29166 13.0832 6.33332 13.0415 6.37499L9.95817 9.45832L6.9165 6.41666C6.87484 6.33332 6.74984 6.29166 6.6665 6.33332C6.49984 6.33332 6.33317 6.49999 6.2915 6.70832C6.2915 6.83332 6.33317 6.91666 6.37484 6.95832L9.45817 10.0417L6.4165 13.0833C6.37484 13.125 6.2915 13.25 6.33317 13.3333C6.33317 13.4583 6.37484 13.5417 6.4165 13.5833C6.45817 13.625 6.58317 13.7083 6.6665 13.6667C6.7915 13.6667 6.87484 13.625 6.9165 13.5833L9.99984 10.5L13.0832 13.5833C13.1248 13.625 13.2498 13.7083 13.3332 13.6667C13.4582 13.6667 13.5415 13.625 13.5832 13.5833C13.6248 13.5417 13.7082 13.4167 13.6665 13.3333C13.6665 13.2083 13.6248 13.125 13.5832 13.0833L10.4998 9.99999L13.5832 6.91666C13.6248 6.87499 13.7082 6.74999 13.6665 6.66666C13.6665 6.54166 13.6248 6.45832 13.5832 6.41666C13.4998 6.33332 13.4165 6.29166 13.2915 6.29166Z" fill="white"/>
</svg>
