<svg width="24" height="24" viewBox="0 0 24 24" fill="none" xmlns="http://www.w3.org/2000/svg">
<path fill-rule="evenodd" clip-rule="evenodd" d="M9.60229 15.1367C9.41029 15.1367 9.21829 15.0637 9.07229 14.9167C8.77929 14.6237 8.77929 14.1497 9.07229 13.8567L13.8643 9.06471C14.1573 8.77171 14.6313 8.77171 14.9243 9.06471C15.2173 9.35771 15.2173 9.83171 14.9243 10.1247L10.1323 14.9167C9.98629 15.0637 9.79429 15.1367 9.60229 15.1367" fill="#F84960"/>
<path fill-rule="evenodd" clip-rule="evenodd" d="M14.3963 15.1396C14.2043 15.1396 14.0123 15.0666 13.8663 14.9196L9.07034 10.1226C8.77734 9.8296 8.77734 9.3556 9.07034 9.0626C9.36434 8.7696 9.83834 8.7696 10.1303 9.0626L14.9263 13.8596C15.2193 14.1526 15.2193 14.6266 14.9263 14.9196C14.7803 15.0666 14.5873 15.1396 14.3963 15.1396" fill="#F84960"/>
<path fill-rule="evenodd" clip-rule="evenodd" d="M7.665 3.5C5.135 3.5 3.5 5.233 3.5 7.916V16.084C3.5 18.767 5.135 20.5 7.665 20.5H16.333C18.864 20.5 20.5 18.767 20.5 16.084V7.916C20.5 5.233 18.864 3.5 16.334 3.5H7.665ZM16.333 22H7.665C4.276 22 2 19.622 2 16.084V7.916C2 4.378 4.276 2 7.665 2H16.334C19.723 2 22 4.378 22 7.916V16.084C22 19.622 19.723 22 16.333 22V22Z" fill="#F84960"/>
</svg>
