<svg width="20" height="20" viewBox="0 0 20 20" fill="none" xmlns="http://www.w3.org/2000/svg">
<circle cx="10" cy="10" r="10" fill="#FFB342"/>
<path fill-rule="evenodd" clip-rule="evenodd" d="M9.99997 4C13.35 4 16.1 6.7 16.1 10.05C16.1 13.4 13.35 16.15 9.99997 16.15C7.04997 16.15 4.54997 14.05 4.04997 11.2C3.99997 11 4.14997 10.8 4.34997 10.8C4.54997 10.75 4.69997 10.9 4.74997 11.1C5.19997 13.65 7.44997 15.5 10.05 15.5C13 15.5 15.45 13.1 15.45 10.1C15.45 7.1 13 4.7 9.99997 4.7C8.24997 4.7 6.69997 5.5 5.64997 6.9H7.39997C7.59997 6.9 7.74997 7.05 7.74997 7.25C7.74997 7.45 7.59997 7.6 7.39997 7.6H4.94997C4.74997 7.6 4.59997 7.45 4.59997 7.25V4.65C4.59997 4.45 4.74997 4.3 4.94997 4.3C5.14997 4.3 5.29997 4.45 5.29997 4.65V6.2C6.49997 4.8 8.19997 4 9.99997 4ZM12.1 10.45H9.99996C9.79996 10.45 9.64996 10.3 9.64996 10.1V6.69998C9.64996 6.49998 9.79996 6.34998 9.99996 6.34998C10.2 6.34998 10.35 6.49998 10.35 6.69998V9.74998H12.1C12.3 9.74998 12.45 9.89998 12.45 10.1C12.45 10.3 12.3 10.45 12.1 10.45Z" fill="white"/>
</svg>
