<svg width="224" height="30" viewBox="0 0 224 30" fill="none" xmlns="http://www.w3.org/2000/svg">
<path d="M28 24.331C28 26.3586 26.3586 28 24.331 28H3.66897C1.64138 28 0 26.3586 0 24.331V3.66897C0 1.64138 1.64138 0 3.66897 0H24.331C26.3586 0 28 1.64138 28 3.66897V24.331Z" fill="white"/>
<path d="M23.6552 23.5585H14L23.6552 13.9999V23.5585Z" fill="url(#paint0_linear_271_1253)"/>
<path opacity="0.14" d="M23.6552 23.5585L18.8276 18.7309L19.6966 17.9585L23.6552 23.5585Z" fill="url(#paint1_linear_271_1253)"/>
<path d="M23.6552 23.5585H4.44141V4.34473L23.6552 23.5585Z" fill="url(#paint2_linear_271_1253)"/>
<path d="M52.124 4.34485H55.3102V23.5586H52.124V4.34485Z" fill="white"/>
<path d="M110 9.55872H105.993H103V12.2622V23.5587H105.993V12.2622H110V9.55872Z" fill="white"/>
<path d="M71.9034 17.5724H61.1862C61.3793 18.5379 61.8621 19.4069 62.6345 19.9862C63.4069 20.5655 64.3724 20.8552 65.6276 20.8552C67.1724 20.8552 68.331 20.3724 69.3931 19.4069L71.2276 21.2414C70.6483 22.0138 69.6828 22.6896 68.8138 23.0758C67.8483 23.462 66.7862 23.6552 65.6276 23.6552C64.0828 23.6552 62.8276 23.3655 61.669 22.7862C60.5103 22.2069 59.6414 21.3379 58.9655 20.2758C58.3862 19.2138 58 17.9586 58 16.6069C58 15.2552 58.2897 14.0965 58.869 13.0345C59.4483 11.9724 60.3172 11.1034 61.3793 10.5241C62.4414 9.94481 63.6966 9.65515 65.0483 9.65515C66.4 9.65515 67.5586 9.94481 68.6207 10.5241C69.6828 11.1034 70.4552 11.9724 71.131 13.0345C71.7103 14.0965 72 15.3517 72 16.7034C72 16.8 72 17.1862 71.9034 17.5724ZM62.4414 13.0345C61.7655 13.6138 61.2828 14.4827 61.1862 15.4483H69.0069C68.9103 14.4827 68.4276 13.6138 67.7517 13.0345C67.0759 12.4552 66.2069 12.0689 65.1448 12.0689C63.9862 12.0689 63.1172 12.3586 62.4414 13.0345Z" fill="white"/>
<path d="M100.903 17.5724H90.1862C90.3793 18.5379 90.8621 19.4069 91.6345 19.9862C92.4069 20.5655 93.3724 20.8552 94.6276 20.8552C96.1724 20.8552 97.331 20.3724 98.3931 19.4069L100.228 21.2414C99.6483 22.0138 98.6828 22.6896 97.8138 23.0758C96.8483 23.462 95.7862 23.6552 94.6276 23.6552C93.0828 23.6552 91.8276 23.3655 90.669 22.7862C89.5103 22.2069 88.6414 21.3379 87.9655 20.2758C87.3862 19.2138 87 17.9586 87 16.6069C87 15.2552 87.2897 14.0965 87.869 13.0345C88.4483 11.9724 89.3172 11.1034 90.3793 10.5241C91.4414 9.94481 92.6966 9.65515 94.0483 9.65515C95.4 9.65515 96.5586 9.94481 97.6207 10.5241C98.6828 11.1034 99.4552 11.9724 100.131 13.0345C100.71 14.0965 101 15.3517 101 16.7034C101 16.8 101 17.1862 100.903 17.5724ZM91.4414 13.0345C90.7655 13.6138 90.2828 14.4827 90.1862 15.4483H98.0069C97.9103 14.4827 97.4276 13.6138 96.7517 13.0345C96.0759 12.4552 95.2069 12.0689 94.1448 12.0689C93.0828 12.0689 92.1172 12.3586 91.4414 13.0345Z" fill="white"/>
<path d="M87.2692 9.55859L81.1864 23.6551H78.0002L71.9175 9.55859H75.2968L79.7382 19.8896L84.2761 9.55859H87.2692Z" fill="white"/>
<path d="M45.4622 9.55859H49.4209L40.7312 18.2482L38.7036 16.2207L45.4622 9.55859Z" fill="white"/>
<path d="M38.7036 16.2207L40.7312 14.2897L50.0002 23.5586H46.0415L38.7036 16.2207Z" fill="white"/>
<path d="M39.1862 4.34485H36V23.5586H39.1862V4.34485Z" fill="white"/>
<path d="M133 20.88V24H119.992V7.2H132.688V10.32H123.856V13.968H131.656V16.992H123.856V20.88H133ZM143.874 24L141.042 20.04L138.114 24H134.034L139.002 17.496L134.202 11.088H138.402L141.138 14.856L143.946 11.088H147.93L143.13 17.4L148.122 24H143.874ZM157.571 10.896C158.771 10.896 159.859 11.176 160.835 11.736C161.827 12.28 162.603 13.056 163.163 14.064C163.723 15.056 164.003 16.216 164.003 17.544C164.003 18.872 163.723 20.04 163.163 21.048C162.603 22.04 161.827 22.816 160.835 23.376C159.859 23.92 158.771 24.192 157.571 24.192C155.923 24.192 154.627 23.672 153.683 22.632V28.656H149.939V11.088H153.515V12.576C154.443 11.456 155.795 10.896 157.571 10.896ZM156.923 21.12C157.883 21.12 158.667 20.8 159.275 20.16C159.899 19.504 160.211 18.632 160.211 17.544C160.211 16.456 159.899 15.592 159.275 14.952C158.667 14.296 157.883 13.968 156.923 13.968C155.963 13.968 155.171 14.296 154.547 14.952C153.939 15.592 153.635 16.456 153.635 17.544C153.635 18.632 153.939 19.504 154.547 20.16C155.171 20.8 155.963 21.12 156.923 21.12ZM166.509 6.192H170.253V24H166.509V6.192ZM179.872 24.192C178.512 24.192 177.288 23.912 176.2 23.352C175.128 22.776 174.288 21.984 173.68 20.976C173.072 19.968 172.768 18.824 172.768 17.544C172.768 16.264 173.072 15.12 173.68 14.112C174.288 13.104 175.128 12.32 176.2 11.76C177.288 11.184 178.512 10.896 179.872 10.896C181.232 10.896 182.448 11.184 183.52 11.76C184.592 12.32 185.432 13.104 186.04 14.112C186.648 15.12 186.952 16.264 186.952 17.544C186.952 18.824 186.648 19.968 186.04 20.976C185.432 21.984 184.592 22.776 183.52 23.352C182.448 23.912 181.232 24.192 179.872 24.192ZM179.872 21.12C180.832 21.12 181.616 20.8 182.224 20.16C182.848 19.504 183.16 18.632 183.16 17.544C183.16 16.456 182.848 15.592 182.224 14.952C181.616 14.296 180.832 13.968 179.872 13.968C178.912 13.968 178.12 14.296 177.496 14.952C176.872 15.592 176.56 16.456 176.56 17.544C176.56 18.632 176.872 19.504 177.496 20.16C178.12 20.8 178.912 21.12 179.872 21.12ZM193.031 12.792C193.479 12.168 194.079 11.696 194.831 11.376C195.599 11.056 196.479 10.896 197.471 10.896V14.352C197.055 14.32 196.775 14.304 196.631 14.304C195.559 14.304 194.719 14.608 194.111 15.216C193.503 15.808 193.199 16.704 193.199 17.904V24H189.455V11.088H193.031V12.792ZM212.228 17.592C212.228 17.64 212.204 17.976 212.156 18.6H202.388C202.564 19.4 202.98 20.032 203.636 20.496C204.292 20.96 205.108 21.192 206.084 21.192C206.756 21.192 207.348 21.096 207.86 20.904C208.388 20.696 208.876 20.376 209.324 19.944L211.316 22.104C210.1 23.496 208.324 24.192 205.988 24.192C204.532 24.192 203.244 23.912 202.124 23.352C201.004 22.776 200.14 21.984 199.532 20.976C198.924 19.968 198.62 18.824 198.62 17.544C198.62 16.28 198.916 15.144 199.508 14.136C200.116 13.112 200.94 12.32 201.98 11.76C203.036 11.184 204.212 10.896 205.508 10.896C206.772 10.896 207.916 11.168 208.94 11.712C209.964 12.256 210.764 13.04 211.34 14.064C211.932 15.072 212.228 16.248 212.228 17.592ZM205.532 13.728C204.684 13.728 203.972 13.968 203.396 14.448C202.82 14.928 202.468 15.584 202.34 16.416H208.7C208.572 15.6 208.22 14.952 207.644 14.472C207.068 13.976 206.364 13.728 205.532 13.728ZM218.296 12.792C218.744 12.168 219.344 11.696 220.096 11.376C220.864 11.056 221.744 10.896 222.736 10.896V14.352C222.32 14.32 222.04 14.304 221.896 14.304C220.824 14.304 219.984 14.608 219.376 15.216C218.768 15.808 218.464 16.704 218.464 17.904V24H214.72V11.088H218.296V12.792Z" fill="url(#paint3_linear_271_1253)"/>
<defs>
<linearGradient id="paint0_linear_271_1253" x1="18.8276" y1="13.9556" x2="18.8276" y2="23.5777" gradientUnits="userSpaceOnUse">
<stop offset="2.71717e-07" stop-color="#FF4681"/>
<stop offset="1" stop-color="#9B44F6"/>
</linearGradient>
<linearGradient id="paint1_linear_271_1253" x1="21.1564" y1="18.5887" x2="19.802" y2="22.1648" gradientUnits="userSpaceOnUse">
<stop offset="9.43019e-07"/>
<stop offset="1"/>
</linearGradient>
<linearGradient id="paint2_linear_271_1253" x1="-0.135918" y1="9.3743" x2="19.1083" y2="28.6185" gradientUnits="userSpaceOnUse">
<stop offset="9.43019e-07" stop-color="#FF4681"/>
<stop offset="0.7392" stop-color="#9B44F6"/>
</linearGradient>
<linearGradient id="paint3_linear_271_1253" x1="92.7475" y1="8.5913" x2="107.534" y2="62.6378" gradientUnits="userSpaceOnUse">
<stop offset="9.43019e-07" stop-color="#FF4681"/>
<stop offset="0.7392" stop-color="#9B44F6"/>
</linearGradient>
</defs>
</svg>
