<svg width="110" height="28" viewBox="0 0 110 28" fill="none" xmlns="http://www.w3.org/2000/svg">
<path d="M28 24.331C28 26.3586 26.3586 28 24.331 28H3.66897C1.64138 28 0 26.3586 0 24.331V3.66897C0 1.64138 1.64138 0 3.66897 0H24.331C26.3586 0 28 1.64138 28 3.66897V24.331Z" fill="white"/>
<path d="M23.6552 23.5585H14L23.6552 13.9999V23.5585Z" fill="url(#paint0_linear)"/>
<path opacity="0.14" d="M23.6552 23.5585L18.8276 18.7309L19.6965 17.9585L23.6552 23.5585Z" fill="url(#paint1_linear)"/>
<path d="M23.6552 23.5585H4.44141V4.34473L23.6552 23.5585Z" fill="url(#paint2_linear)"/>
<path d="M51.1241 4.34482H54.3103V23.5586H51.1241V4.34482Z" fill="#fff"/>
<path d="M109.055 9.55869H105.386H102.393V12.2621V23.5587H105.386V12.2621H109.055V9.55869Z" fill="#fff"/>
<path d="M71.2069 17.5724H60.4897C60.6828 18.5379 61.1655 19.4069 61.9379 19.9862C62.7104 20.5655 63.6759 20.8552 64.9311 20.8552C66.4759 20.8552 67.6345 20.3724 68.6966 19.4069L70.5311 21.2414C69.9517 22.0138 68.9862 22.6896 68.1173 23.0759C67.1517 23.4621 66.0897 23.6552 64.9311 23.6552C63.3862 23.6552 62.1311 23.3655 60.9724 22.7862C59.8138 22.2069 58.9448 21.3379 58.269 20.2759C57.6897 19.2138 57.3035 17.9586 57.3035 16.6069C57.3035 15.2552 57.5931 14.0965 58.1724 13.0345C58.7517 11.9724 59.6207 11.1034 60.6828 10.5241C61.7448 9.94482 63 9.65517 64.3517 9.65517C65.7035 9.65517 66.8621 9.94482 67.9242 10.5241C68.9862 11.1034 69.7586 11.9724 70.4345 13.0345C71.0138 14.0965 71.3035 15.3517 71.3035 16.7034C71.3035 16.8 71.3035 17.1862 71.2069 17.5724ZM61.7448 13.0345C61.069 13.6138 60.5862 14.4828 60.4897 15.4483H68.3104C68.2138 14.4828 67.7311 13.6138 67.0552 13.0345C66.3793 12.4552 65.5104 12.069 64.4483 12.069C63.2897 12.069 62.4207 12.3586 61.7448 13.0345Z" fill="#fff"/>
<path d="M100.076 17.5724H89.3586C89.5517 18.5379 90.0345 19.4069 90.8069 19.9862C91.5793 20.5655 92.5448 20.8552 93.8 20.8552C95.3448 20.8552 96.5035 20.3724 97.5655 19.4069L99.4 21.2414C98.8207 22.0138 97.8552 22.6896 96.9862 23.0759C96.0207 23.4621 94.9586 23.6552 93.8 23.6552C92.2552 23.6552 91 23.3655 89.8414 22.7862C88.6828 22.2069 87.8138 21.3379 87.1379 20.2759C86.5586 19.2138 86.1724 17.9586 86.1724 16.6069C86.1724 15.2552 86.4621 14.0965 87.0414 13.0345C87.6207 11.9724 88.4897 11.1034 89.5517 10.5241C90.6138 9.94482 91.869 9.65517 93.2207 9.65517C94.5724 9.65517 95.731 9.94482 96.7931 10.5241C97.8552 11.1034 98.6276 11.9724 99.3034 13.0345C99.8828 14.0965 100.172 15.3517 100.172 16.7034C100.172 16.8 100.172 17.1862 100.076 17.5724ZM90.6138 13.0345C89.9379 13.6138 89.4552 14.4828 89.3586 15.4483H97.1793C97.0828 14.4828 96.6 13.6138 95.9241 13.0345C95.2483 12.4552 94.3793 12.069 93.3172 12.069C92.2552 12.069 91.2897 12.3586 90.6138 13.0345Z" fill="#fff"/>
<path d="M86.269 9.55861L80.1862 23.6552H77L70.9173 9.55861H74.2966L78.738 19.8896L83.2759 9.55861H86.269Z" fill="#fff"/>
<path d="M44.4621 9.55861H48.4207L39.731 18.2483L37.7034 16.2207L44.4621 9.55861Z" fill="#fff"/>
<path d="M37.7034 16.2207L39.731 14.2897L49 23.5586H45.0414L37.7034 16.2207Z" fill="#fff"/>
<path d="M38.1862 4.34482H35V23.5586H38.1862V4.34482Z" fill="#fff"/>
<defs>
<linearGradient id="paint0_linear" x1="18.8276" y1="13.9556" x2="18.8276" y2="23.5777" gradientUnits="userSpaceOnUse">
<stop offset="2.71717e-07" stop-color="#FF4681"/>
<stop offset="1" stop-color="#9B44F6"/>
</linearGradient>
<linearGradient id="paint1_linear" x1="21.1563" y1="18.5887" x2="19.8019" y2="22.1648" gradientUnits="userSpaceOnUse">
<stop offset="9.43019e-07"/>
<stop offset="1"/>
</linearGradient>
<linearGradient id="paint2_linear" x1="-0.135918" y1="9.3743" x2="19.1083" y2="28.6185" gradientUnits="userSpaceOnUse">
<stop offset="9.43019e-07" stop-color="#FF4681"/>
<stop offset="0.7392" stop-color="#9B44F6"/>
</linearGradient>
</defs>
</svg>
