<svg width="122" height="44" viewBox="0 0 3367 1048" fill="none" xmlns="http://www.w3.org/2000/svg">
<path d="M786.5 786H524.5L786.5 524V786Z" fill="url(#paint0_linear_201:2)"/>
<path opacity="0.14" d="M786.5 786L655.5 655L677.24 633.26L786.5 786Z" fill="url(#paint1_linear_201:2)"/>
<path d="M786.5 786H262.5V262L786.5 786Z" fill="url(#paint2_linear_201:2)"/>
<path d="M1487.48 261.96H1574.91V786H1487.48V261.96Z" fill="white"/>
<path d="M2035.31 622.14H1742.28C1747.4 649.66 1760.82 671.44 1782.5 687.54C1804.18 703.64 1831.1 711.66 1863.27 711.66C1904.29 711.66 1938.1 698.13 1964.67 671.11L2014.89 721.54C1998.1 741.6 1973.51 760.17 1947.87 770.43C1922.23 780.69 1893.33 785.81 1861.16 785.81C1820.12 785.81 1783.99 777.66 1752.77 761.33C1721.53 745.03 1697.4 722.29 1680.38 693.13C1663.36 663.99 1654.84 631 1654.84 594.17C1654.84 557.81 1663.12 525.05 1679.66 495.91C1696.2 466.77 1719.19 444.04 1748.55 427.71C1777.92 411.41 1811.01 403.23 1847.87 403.23C1884.23 403.23 1916.76 411.28 1945.44 427.35C1974.11 443.45 1996.49 466.05 2012.58 495.19C2028.67 524.33 2036.7 558.01 2036.7 596.25C2036.73 602.34 2036.26 610.95 2035.31 622.14ZM1776.89 498.01C1757.53 514.57 1745.77 536.58 1741.58 564.1H1953.48C1949.75 537.07 1938.33 515.14 1919.2 498.37C1900.07 481.58 1876.31 473.19 1847.86 473.19C1819.91 473.16 1796.26 481.44 1776.89 498.01Z" fill="white"/>
<path d="M2822.04 622.14H2529.01C2534.13 649.66 2547.55 671.44 2569.23 687.54C2590.91 703.64 2617.83 711.66 2650 711.66C2691.02 711.66 2724.83 698.13 2751.4 671.11L2801.62 721.54C2784.83 741.6 2760.24 760.17 2734.6 770.43C2708.96 780.69 2680.06 785.81 2647.89 785.81C2606.85 785.81 2570.72 777.66 2539.5 761.33C2508.25 745.03 2484.13 722.29 2467.11 693.13C2450.09 663.99 2441.57 631 2441.57 594.17C2441.57 557.81 2449.85 525.05 2466.39 495.91C2482.93 466.77 2505.92 444.04 2535.28 427.71C2564.65 411.41 2597.74 403.23 2634.6 403.23C2670.96 403.23 2703.49 411.28 2732.17 427.35C2760.84 443.45 2783.22 466.05 2799.31 495.19C2815.41 524.33 2823.43 558.01 2823.43 596.25C2823.46 602.34 2822.97 610.95 2822.04 622.14ZM2563.62 498.01C2544.26 514.57 2532.5 536.58 2528.31 564.1H2740.21C2736.48 537.07 2725.06 515.14 2705.93 498.37C2686.8 481.58 2663.04 473.19 2634.59 473.19C2606.65 473.16 2582.99 481.44 2563.62 498.01Z" fill="white"/>
<path d="M2446.15 403.09L2280.46 786H2194.13L2027.67 403.09H2118.6L2238.67 684.4L2362.24 403.09H2446.15Z" fill="white"/>
<path d="M1306.42 403.09H1414.55L1177.45 641.17L1122.88 586.6L1306.42 403.09Z" fill="white"/>
<path d="M1123.14 586.37L1176.78 532.7L1429.42 786H1322.28L1122.88 586.6L1123.14 586.37Z" fill="white"/>
<path d="M1135.79 262.22H1048.48V786H1135.79V262.22Z" fill="white"/>
<path d="M3104.95 403.09V487.49C3097.27 486.07 3090.3 485.36 3084.07 485.36C3049.03 485.36 3021.67 495.41 3001.99 515.5C2982.3 535.6 2972.47 564.56 2972.47 602.39V786.09H2882.47V403.22H2968.15V462.67C2994.07 422.95 3039.67 403.09 3104.95 403.09Z" fill="white"/>
<defs>
<linearGradient id="paint0_linear_201:2" x1="655.5" y1="524" x2="655.5" y2="786" gradientUnits="userSpaceOnUse">
<stop offset="2.71717e-07" stop-color="#FF4681"/>
<stop offset="1" stop-color="#9B44F6"/>
</linearGradient>
<linearGradient id="paint1_linear_201:2" x1="718.669" y1="650.373" x2="681.784" y2="747.76" gradientUnits="userSpaceOnUse">
<stop offset="9.43019e-07"/>
<stop offset="1"/>
</linearGradient>
<linearGradient id="paint2_linear_201:2" x1="138.012" y1="399.512" x2="662.012" y2="923.512" gradientUnits="userSpaceOnUse">
<stop offset="9.43019e-07" stop-color="#FF4681"/>
<stop offset="0.7392" stop-color="#9B44F6"/>
</linearGradient>
</defs>
</svg>
