<svg width="215" height="29" viewBox="0 0 215 29" fill="none" xmlns="http://www.w3.org/2000/svg">
<path d="M19 23H10L19 14V23Z" fill="url(#paint0_linear_13:4547)"/>
<path opacity="0.14" d="M19.0001 23L14.3862 18.6897L15.0001 18L19.0001 23Z" fill="black"/>
<path d="M47.6826 4.00009H50.8688V23.2139H47.6826V4.00009Z" fill="#C6C7EB"/>
<path d="M105.559 9.21396H101.552H98.5586V11.9174V23.214H101.552V11.9174H105.559V9.21396Z" fill="#C6C7EB"/>
<path d="M67.462 17.2277H56.7448C56.9379 18.1932 57.4207 19.0621 58.1931 19.6415C58.9655 20.2208 59.931 20.5104 61.1862 20.5104C62.731 20.5104 63.8896 20.0277 64.9517 19.0621L66.7862 20.8966C66.2069 21.669 65.2414 22.3449 64.3724 22.7311C63.4069 23.1173 62.3448 23.3104 61.1862 23.3104C59.6413 23.3104 58.3862 23.0208 57.2276 22.4415C56.0689 21.8621 55.2 20.9932 54.5241 19.9311C53.9448 18.869 53.5586 17.6139 53.5586 16.2621C53.5586 14.9104 53.8482 13.7518 54.4276 12.6897C55.0069 11.6277 55.8758 10.7587 56.9379 10.1794C58 9.60008 59.2551 9.31042 60.6069 9.31042C61.9586 9.31042 63.1172 9.60008 64.1793 10.1794C65.2413 10.7587 66.0138 11.6277 66.6896 12.6897C67.2689 13.7518 67.5586 15.007 67.5586 16.3587C67.5586 16.4553 67.5586 16.8415 67.462 17.2277ZM58 12.6897C57.3241 13.269 56.8414 14.138 56.7448 15.1035H64.5655C64.4689 14.138 63.9862 13.269 63.3103 12.6897C62.6345 12.1104 61.7655 11.7242 60.7034 11.7242C59.5448 11.7242 58.6758 12.0139 58 12.6897Z" fill="#C6C7EB"/>
<path d="M96.462 17.2277H85.7448C85.9379 18.1932 86.4207 19.0621 87.1931 19.6415C87.9655 20.2208 88.931 20.5104 90.1862 20.5104C91.731 20.5104 92.8896 20.0277 93.9517 19.0621L95.7862 20.8966C95.2069 21.669 94.2414 22.3449 93.3724 22.7311C92.4069 23.1173 91.3448 23.3104 90.1862 23.3104C88.6414 23.3104 87.3862 23.0208 86.2276 22.4415C85.0689 21.8621 84.2 20.9932 83.5241 19.9311C82.9448 18.869 82.5586 17.6139 82.5586 16.2621C82.5586 14.9104 82.8483 13.7518 83.4276 12.6897C84.0069 11.6277 84.8758 10.7587 85.9379 10.1794C87 9.60008 88.2551 9.31042 89.6069 9.31042C90.9586 9.31042 92.1172 9.60008 93.1793 10.1794C94.2413 10.7587 95.0138 11.6277 95.6896 12.6897C96.2689 13.7518 96.5586 15.007 96.5586 16.3587C96.5586 16.4553 96.5586 16.8415 96.462 17.2277ZM87 12.6897C86.3241 13.269 85.8414 14.138 85.7448 15.1035H93.5655C93.4689 14.138 92.9862 13.269 92.3103 12.6897C91.6344 12.1104 90.7655 11.7242 89.7034 11.7242C88.6414 11.7242 87.6758 12.0139 87 12.6897Z" fill="#C6C7EB"/>
<path d="M82.8278 9.21387L76.745 23.3104H73.5588L67.4761 9.21387H70.8554L75.2968 19.5449L79.8347 9.21387H82.8278Z" fill="#C6C7EB"/>
<path d="M41.0208 9.21387H44.9794L36.2898 17.9035L34.2622 15.8759L41.0208 9.21387Z" fill="#C6C7EB"/>
<path d="M34.2622 15.876L36.2898 13.9449L45.5588 23.2139H41.6001L34.2622 15.876Z" fill="#C6C7EB"/>
<path d="M34.7448 4.00009H31.5586V23.2139H34.7448V4.00009Z" fill="#C6C7EB"/>
<path d="M19 23H0V4L19 23Z" fill="url(#paint1_linear_13:4547)"/>
<path d="M124 19.88V23H110.992V6.2H123.688V9.32H114.856V12.968H122.656V15.992H114.856V19.88H124ZM134.874 23L132.042 19.04L129.114 23H125.034L130.002 16.496L125.202 10.088H129.402L132.138 13.856L134.946 10.088H138.93L134.13 16.4L139.122 23H134.874ZM148.571 9.896C149.771 9.896 150.859 10.176 151.835 10.736C152.827 11.28 153.603 12.056 154.163 13.064C154.723 14.056 155.003 15.216 155.003 16.544C155.003 17.872 154.723 19.04 154.163 20.048C153.603 21.04 152.827 21.816 151.835 22.376C150.859 22.92 149.771 23.192 148.571 23.192C146.923 23.192 145.627 22.672 144.683 21.632V27.656H140.939V10.088H144.515V11.576C145.443 10.456 146.795 9.896 148.571 9.896ZM147.923 20.12C148.883 20.12 149.667 19.8 150.275 19.16C150.899 18.504 151.211 17.632 151.211 16.544C151.211 15.456 150.899 14.592 150.275 13.952C149.667 13.296 148.883 12.968 147.923 12.968C146.963 12.968 146.171 13.296 145.547 13.952C144.939 14.592 144.635 15.456 144.635 16.544C144.635 17.632 144.939 18.504 145.547 19.16C146.171 19.8 146.963 20.12 147.923 20.12ZM157.509 5.192H161.253V23H157.509V5.192ZM170.872 23.192C169.512 23.192 168.288 22.912 167.2 22.352C166.128 21.776 165.288 20.984 164.68 19.976C164.072 18.968 163.768 17.824 163.768 16.544C163.768 15.264 164.072 14.12 164.68 13.112C165.288 12.104 166.128 11.32 167.2 10.76C168.288 10.184 169.512 9.896 170.872 9.896C172.232 9.896 173.448 10.184 174.52 10.76C175.592 11.32 176.432 12.104 177.04 13.112C177.648 14.12 177.952 15.264 177.952 16.544C177.952 17.824 177.648 18.968 177.04 19.976C176.432 20.984 175.592 21.776 174.52 22.352C173.448 22.912 172.232 23.192 170.872 23.192ZM170.872 20.12C171.832 20.12 172.616 19.8 173.224 19.16C173.848 18.504 174.16 17.632 174.16 16.544C174.16 15.456 173.848 14.592 173.224 13.952C172.616 13.296 171.832 12.968 170.872 12.968C169.912 12.968 169.12 13.296 168.496 13.952C167.872 14.592 167.56 15.456 167.56 16.544C167.56 17.632 167.872 18.504 168.496 19.16C169.12 19.8 169.912 20.12 170.872 20.12ZM184.031 11.792C184.479 11.168 185.079 10.696 185.831 10.376C186.599 10.056 187.479 9.896 188.471 9.896V13.352C188.055 13.32 187.775 13.304 187.631 13.304C186.559 13.304 185.719 13.608 185.111 14.216C184.503 14.808 184.199 15.704 184.199 16.904V23H180.455V10.088H184.031V11.792ZM203.228 16.592C203.228 16.64 203.204 16.976 203.156 17.6H193.388C193.564 18.4 193.98 19.032 194.636 19.496C195.292 19.96 196.108 20.192 197.084 20.192C197.756 20.192 198.348 20.096 198.86 19.904C199.388 19.696 199.876 19.376 200.324 18.944L202.316 21.104C201.1 22.496 199.324 23.192 196.988 23.192C195.532 23.192 194.244 22.912 193.124 22.352C192.004 21.776 191.14 20.984 190.532 19.976C189.924 18.968 189.62 17.824 189.62 16.544C189.62 15.28 189.916 14.144 190.508 13.136C191.116 12.112 191.94 11.32 192.98 10.76C194.036 10.184 195.212 9.896 196.508 9.896C197.772 9.896 198.916 10.168 199.94 10.712C200.964 11.256 201.764 12.04 202.34 13.064C202.932 14.072 203.228 15.248 203.228 16.592ZM196.532 12.728C195.684 12.728 194.972 12.968 194.396 13.448C193.82 13.928 193.468 14.584 193.34 15.416H199.7C199.572 14.6 199.22 13.952 198.644 13.472C198.068 12.976 197.364 12.728 196.532 12.728ZM209.296 11.792C209.744 11.168 210.344 10.696 211.096 10.376C211.864 10.056 212.744 9.896 213.736 9.896V13.352C213.32 13.32 213.04 13.304 212.896 13.304C211.824 13.304 210.984 13.608 210.376 14.216C209.768 14.808 209.464 15.704 209.464 16.904V23H205.72V10.088H209.296V11.792Z" fill="url(#paint2_linear_13:4547)"/>
<defs>
<linearGradient id="paint0_linear_13:4547" x1="14.5" y1="13.9583" x2="14.5" y2="23.0181" gradientUnits="userSpaceOnUse">
<stop offset="2.71717e-07" stop-color="#FF4681"/>
<stop offset="1" stop-color="#9B44F6"/>
</linearGradient>
<linearGradient id="paint1_linear_13:4547" x1="-4.52639" y1="8.97361" x2="14.5037" y2="28.0037" gradientUnits="userSpaceOnUse">
<stop offset="9.43019e-07" stop-color="#FF4681"/>
<stop offset="0.7392" stop-color="#9B44F6"/>
</linearGradient>
<linearGradient id="paint2_linear_13:4547" x1="83.7475" y1="7.5913" x2="98.5338" y2="61.6378" gradientUnits="userSpaceOnUse">
<stop offset="9.43019e-07" stop-color="#FF4681"/>
<stop offset="0.7392" stop-color="#9B44F6"/>
</linearGradient>
</defs>
</svg>
