<svg width="565" height="384" viewBox="0 0 565 384" fill="none" xmlns="http://www.w3.org/2000/svg">
<path d="M549.895 383.342H482.678C469.666 383.342 463.15 367.61 472.351 358.409L539.568 291.192C548.768 281.992 564.5 288.508 564.5 301.52V368.736C564.5 376.803 557.961 383.342 549.895 383.342Z" stroke="url(#paint0_linear_305_70)"/>
<path opacity="0.14" d="M508.136 323.171C510.252 320.793 513.999 320.892 515.988 323.377C519.969 328.354 513.124 334.694 508.466 330.343C506.428 328.438 506.281 325.255 508.136 323.171Z" stroke="url(#paint1_linear_305_70)"/>
<mask id="path-3-inside-1_305_70" fill="white">
<path d="M539.213 358.056C548.729 367.571 541.989 383.842 528.532 383.842H329.328C320.985 383.842 314.223 377.079 314.223 368.736V169.532C314.223 156.075 330.493 149.336 340.009 158.851L539.213 358.056Z"/>
</mask>
<path d="M528.532 382.842H329.328V384.842H528.532V382.842ZM315.223 368.736V169.532H313.223V368.736H315.223ZM339.301 159.558L538.506 358.763L539.92 357.348L340.716 158.144L339.301 159.558ZM315.223 169.532C315.223 156.966 330.416 150.673 339.301 159.558L340.716 158.144C330.57 147.998 313.223 155.184 313.223 169.532H315.223ZM329.328 382.842C321.538 382.842 315.223 376.526 315.223 368.736H313.223C313.223 377.631 320.433 384.842 329.328 384.842V382.842ZM528.532 384.842C542.88 384.842 550.066 367.494 539.92 357.348L538.506 358.763C547.392 367.648 541.098 382.842 528.532 382.842V384.842Z" fill="url(#paint2_linear_305_70)" mask="url(#path-3-inside-1_305_70)"/>
<g opacity="0.6">
<path d="M515.069 357.762H447.852C434.841 357.762 428.324 342.03 437.525 332.83L504.742 265.613C513.942 256.412 529.674 262.928 529.674 275.94V343.157C529.674 351.223 523.135 357.762 515.069 357.762Z" stroke="url(#paint3_linear_305_70)"/>
<path opacity="0.14" d="M473.31 297.591C475.426 295.214 479.173 295.312 481.162 297.798C485.143 302.775 478.298 309.114 473.641 304.763C471.602 302.859 471.455 299.675 473.31 297.591Z" stroke="url(#paint4_linear_305_70)"/>
<mask id="path-7-inside-2_305_70" fill="white">
<path d="M504.388 332.476C513.904 341.992 507.164 358.262 493.707 358.262H294.503C286.16 358.262 279.398 351.499 279.398 343.157V143.953C279.398 130.495 295.668 123.756 305.184 133.272L504.388 332.476Z"/>
</mask>
<path d="M493.707 357.262H294.503V359.262H493.707V357.262ZM280.398 343.157V143.953H278.398V343.157H280.398ZM304.476 133.979L503.681 333.183L505.095 331.769L305.891 132.565L304.476 133.979ZM280.398 143.953C280.398 131.386 295.591 125.093 304.476 133.979L305.891 132.565C295.745 122.419 278.398 129.604 278.398 143.953H280.398ZM294.503 357.262C286.713 357.262 280.398 350.947 280.398 343.157H278.398C278.398 352.052 285.608 359.262 294.503 359.262V357.262ZM493.707 359.262C508.055 359.262 515.241 341.915 505.095 331.769L503.681 333.183C512.566 342.069 506.273 357.262 493.707 357.262V359.262Z" fill="url(#paint5_linear_305_70)" mask="url(#path-7-inside-2_305_70)"/>
</g>
<g opacity="0.5">
<path d="M480.244 332.182H413.027C400.015 332.182 393.499 316.451 402.7 307.25L469.917 240.033C479.117 230.833 494.849 237.349 494.849 250.361V317.577C494.849 325.644 488.31 332.182 480.244 332.182Z" stroke="url(#paint6_linear_305_70)"/>
<path opacity="0.14" d="M438.485 272.012C440.601 269.634 444.348 269.732 446.336 272.218C450.318 277.195 443.473 283.535 438.815 279.184C436.777 277.279 436.63 274.096 438.485 272.012Z" stroke="url(#paint7_linear_305_70)"/>
<mask id="path-11-inside-3_305_70" fill="white">
<path d="M469.562 306.896C479.078 316.412 472.338 332.682 458.881 332.682H259.677C251.335 332.682 244.572 325.92 244.572 317.577V118.373C244.572 104.916 260.842 98.1764 270.358 107.692L469.562 306.896Z"/>
</mask>
<path d="M458.881 331.682H259.677V333.682H458.881V331.682ZM245.572 317.577V118.373H243.572V317.577H245.572ZM269.651 108.399L468.855 307.604L470.269 306.189L271.065 106.985L269.651 108.399ZM245.572 118.373C245.572 105.807 260.765 99.5135 269.651 108.399L271.065 106.985C260.919 96.8393 243.572 104.025 243.572 118.373H245.572ZM259.677 331.682C251.887 331.682 245.572 325.367 245.572 317.577H243.572C243.572 326.472 250.782 333.682 259.677 333.682V331.682ZM458.881 333.682C473.229 333.682 480.415 316.335 470.269 306.189L468.855 307.604C477.741 316.489 471.447 331.682 458.881 331.682V333.682Z" fill="url(#paint8_linear_305_70)" mask="url(#path-11-inside-3_305_70)"/>
</g>
<g opacity="0.4">
<path d="M445.419 306.603H378.202C365.19 306.603 358.674 290.871 367.875 281.671L435.091 214.454C444.292 205.253 460.024 211.769 460.024 224.781V291.998C460.024 300.064 453.485 306.603 445.419 306.603Z" stroke="url(#paint9_linear_305_70)"/>
<path opacity="0.14" d="M403.66 246.432C405.776 244.054 409.523 244.153 411.511 246.639C415.493 251.616 408.648 257.955 403.99 253.604C401.951 251.7 401.805 248.516 403.66 246.432Z" stroke="url(#paint10_linear_305_70)"/>
<mask id="path-15-inside-4_305_70" fill="white">
<path d="M434.737 281.317C444.253 290.833 437.514 307.103 424.057 307.103H224.852C216.51 307.103 209.747 300.34 209.747 291.998V92.7934C209.747 79.3362 226.017 72.5969 235.533 82.1125L434.737 281.317Z"/>
</mask>
<path d="M424.057 306.103H224.852V308.103H424.057V306.103ZM210.747 291.998V92.7934H208.747V291.998H210.747ZM234.826 82.8196L434.03 282.024L435.445 280.61L236.24 81.4054L234.826 82.8196ZM210.747 92.7934C210.747 80.2272 225.94 73.9339 234.826 82.8196L236.24 81.4054C226.095 71.2598 208.747 78.4453 208.747 92.7934H210.747ZM224.852 306.103C217.062 306.103 210.747 299.788 210.747 291.998H208.747C208.747 300.892 215.958 308.103 224.852 308.103V306.103ZM424.057 308.103C438.405 308.103 445.59 290.755 435.445 280.61L434.03 282.024C442.916 290.91 436.623 306.103 424.057 306.103V308.103Z" fill="url(#paint11_linear_305_70)" mask="url(#path-15-inside-4_305_70)"/>
</g>
<g opacity="0.3">
<path d="M410.592 281.023H343.375C330.364 281.023 323.847 265.292 333.048 256.091L400.265 188.874C409.465 179.673 425.197 186.19 425.197 199.201V266.418C425.197 274.484 418.658 281.023 410.592 281.023Z" stroke="url(#paint12_linear_305_70)"/>
<path opacity="0.14" d="M368.833 220.853C370.949 218.475 374.696 218.573 376.685 221.059C380.666 226.036 373.821 232.376 369.164 228.025C367.125 226.12 366.978 222.937 368.833 220.853Z" stroke="url(#paint13_linear_305_70)"/>
<mask id="path-19-inside-5_305_70" fill="white">
<path d="M399.911 255.737C409.427 265.253 402.687 281.523 389.23 281.523H190.026C181.683 281.523 174.921 274.761 174.921 266.418V67.2138C174.921 53.7567 191.191 47.0173 200.707 56.5329L399.911 255.737Z"/>
</mask>
<path d="M389.23 280.523H190.026V282.523H389.23V280.523ZM175.921 266.418V67.2138H173.921V266.418H175.921ZM199.999 57.2401L399.204 256.444L400.618 255.03L201.414 55.8258L199.999 57.2401ZM175.921 67.2138C175.921 54.6476 191.114 48.3544 199.999 57.2401L201.414 55.8258C191.268 45.6802 173.921 52.8657 173.921 67.2138H175.921ZM190.026 280.523C182.236 280.523 175.921 274.208 175.921 266.418H173.921C173.921 275.313 181.131 282.523 190.026 282.523V280.523ZM389.23 282.523C403.578 282.523 410.764 265.176 400.618 255.03L399.204 256.444C408.089 265.33 401.796 280.523 389.23 280.523V282.523Z" fill="url(#paint14_linear_305_70)" mask="url(#path-19-inside-5_305_70)"/>
</g>
<g opacity="0.2">
<path d="M375.767 255.444H308.55C295.538 255.444 289.022 239.712 298.223 230.511L365.439 163.294C374.64 154.094 390.372 160.61 390.372 173.622V240.839C390.372 248.905 383.833 255.444 375.767 255.444Z" stroke="url(#paint15_linear_305_70)"/>
<path opacity="0.14" d="M334.008 195.273C336.124 192.895 339.871 192.994 341.859 195.479C345.841 200.456 338.996 206.796 334.338 202.445C332.3 200.54 332.153 197.357 334.008 195.273Z" stroke="url(#paint16_linear_305_70)"/>
<mask id="path-23-inside-6_305_70" fill="white">
<path d="M365.086 230.158C374.601 239.673 367.862 255.944 354.405 255.944H155.201C146.858 255.944 140.095 249.181 140.095 240.839V41.6342C140.095 28.177 156.366 21.4376 165.881 30.9533L365.086 230.158Z"/>
</mask>
<path d="M354.405 254.944H155.201V256.944H354.405V254.944ZM141.095 240.839V41.6342H139.095V240.839H141.095ZM165.174 31.6604L364.379 230.865L365.793 229.451L166.589 30.2462L165.174 31.6604ZM141.095 41.6342C141.095 29.0679 156.289 22.7747 165.174 31.6604L166.589 30.2462C156.443 20.1006 139.095 27.2861 139.095 41.6342H141.095ZM155.201 254.944C147.411 254.944 141.095 248.629 141.095 240.839H139.095C139.095 249.733 146.306 256.944 155.201 256.944V254.944ZM354.405 256.944C368.753 256.944 375.939 239.596 365.793 229.451L364.379 230.865C373.264 239.75 366.971 254.944 354.405 254.944V256.944Z" fill="url(#paint17_linear_305_70)" mask="url(#path-23-inside-6_305_70)"/>
</g>
<g opacity="0.1">
<path d="M340.942 229.864H273.725C260.713 229.864 254.197 214.132 263.398 204.932L330.615 137.715C339.815 128.514 355.547 135.031 355.547 148.042V215.259C355.547 223.325 349.008 229.864 340.942 229.864Z" stroke="url(#paint18_linear_305_70)"/>
<path opacity="0.14" d="M299.183 169.693C301.299 167.316 305.046 167.414 307.035 169.9C311.016 174.877 304.171 181.216 299.513 176.865C297.475 174.961 297.328 171.777 299.183 169.693Z" stroke="url(#paint19_linear_305_70)"/>
<mask id="path-27-inside-7_305_70" fill="white">
<path d="M330.261 204.578C339.776 214.094 333.037 230.364 319.58 230.364H120.375C112.033 230.364 105.27 223.601 105.27 215.259V16.0547C105.27 2.59747 121.541 -4.14189 131.056 5.37377L330.261 204.578Z"/>
</mask>
<path d="M319.58 229.364H120.375V231.364H319.58V229.364ZM106.27 215.259V16.0547H104.27V215.259H106.27ZM130.349 6.08087L329.553 205.285L330.968 203.871L131.763 4.66666L130.349 6.08087ZM106.27 16.0547C106.27 3.48838 121.463 -2.80482 130.349 6.08087L131.763 4.66666C121.618 -5.47896 104.27 1.70657 104.27 16.0547H106.27ZM120.375 229.364C112.585 229.364 106.27 223.049 106.27 215.259H104.27C104.27 224.154 111.481 231.364 120.375 231.364V229.364ZM319.58 231.364C333.928 231.364 341.113 214.017 330.968 203.871L329.553 205.285C338.439 214.171 332.146 229.364 319.58 229.364V231.364Z" fill="url(#paint20_linear_305_70)" mask="url(#path-27-inside-7_305_70)"/>
</g>
<g opacity="0.1">
<path d="M307.983 254.952H240.766C227.754 254.952 221.238 239.22 230.438 230.019L297.655 162.803C306.856 153.602 322.588 160.118 322.588 173.13V240.347C322.588 248.413 316.049 254.952 307.983 254.952Z" stroke="url(#paint21_linear_305_70)"/>
<path opacity="0.14" d="M266.223 194.781C268.34 192.403 272.087 192.502 274.075 194.987C278.057 199.964 271.211 206.304 266.554 201.953C264.515 200.048 264.369 196.865 266.223 194.781Z" stroke="url(#paint22_linear_305_70)"/>
<mask id="path-31-inside-8_305_70" fill="white">
<path d="M297.301 229.666C306.817 239.181 300.078 255.452 286.621 255.452H87.4162C79.0739 255.452 72.3111 248.689 72.3111 240.347V41.1423C72.3111 27.6851 88.5814 20.9458 98.0971 30.4614L297.301 229.666Z"/>
</mask>
<path d="M286.621 254.452H87.4162V256.452H286.621V254.452ZM73.3111 240.347V41.1423H71.3111V240.347H73.3111ZM97.39 31.1685L296.594 230.373L298.009 228.959L98.8042 29.7543L97.39 31.1685ZM73.3111 41.1423C73.3111 28.576 88.5043 22.2828 97.39 31.1685L98.8042 29.7543C88.6586 19.6087 71.3111 26.7942 71.3111 41.1423H73.3111ZM87.4162 254.452C79.6262 254.452 73.3111 248.137 73.3111 240.347H71.3111C71.3111 249.241 78.5216 256.452 87.4162 256.452V254.452ZM286.621 256.452C300.969 256.452 308.154 239.104 298.009 228.959L296.594 230.373C305.48 239.259 299.187 254.452 286.621 254.452V256.452Z" fill="url(#paint23_linear_305_70)" mask="url(#path-31-inside-8_305_70)"/>
</g>
<g opacity="0.1">
<path d="M281.42 283.975H214.203C201.191 283.975 194.675 268.243 203.876 259.042L271.092 191.825C280.293 182.625 296.025 189.141 296.025 202.153V269.37C296.025 277.436 289.486 283.975 281.42 283.975Z" stroke="url(#paint24_linear_305_70)"/>
<path opacity="0.14" d="M239.661 223.804C241.777 221.426 245.524 221.525 247.512 224.01C251.494 228.987 244.649 235.327 239.991 230.976C237.952 229.071 237.806 225.888 239.661 223.804Z" stroke="url(#paint25_linear_305_70)"/>
<mask id="path-35-inside-9_305_70" fill="white">
<path d="M270.738 258.689C280.254 268.204 273.515 284.475 260.058 284.475H60.8532C52.5109 284.475 45.7481 277.712 45.7481 269.37V70.1652C45.7481 56.7081 62.0184 49.9687 71.5341 59.4844L270.738 258.689Z"/>
</mask>
<path d="M260.058 283.475H60.8532V285.475H260.058V283.475ZM46.7481 269.37V70.1652H44.7481V269.37H46.7481ZM70.827 60.1915L270.031 259.396L271.446 257.982L72.2412 58.7773L70.827 60.1915ZM46.7481 70.1652C46.7481 57.599 61.9413 51.3058 70.827 60.1915L72.2412 58.7773C62.0956 48.6316 44.7481 55.8172 44.7481 70.1652H46.7481ZM60.8532 283.475C53.0632 283.475 46.7481 277.16 46.7481 269.37H44.7481C44.7481 278.264 51.9586 285.475 60.8532 285.475V283.475ZM260.058 285.475C274.406 285.475 281.591 268.127 271.446 257.982L270.031 259.396C278.917 268.282 272.624 283.475 260.058 283.475V285.475Z" fill="url(#paint26_linear_305_70)" mask="url(#path-35-inside-9_305_70)"/>
</g>
<g opacity="0.1">
<path d="M257.316 310.538H190.099C177.087 310.538 170.571 294.807 179.771 285.606L246.988 218.389C256.189 209.188 271.921 215.705 271.921 228.716V295.933C271.921 303.999 265.382 310.538 257.316 310.538Z" stroke="url(#paint27_linear_305_70)"/>
<path opacity="0.14" d="M215.557 250.367C217.673 247.99 221.42 248.088 223.408 250.574C227.39 255.551 220.544 261.891 215.887 257.539C213.848 255.635 213.702 252.452 215.557 250.367Z" stroke="url(#paint28_linear_305_70)"/>
<mask id="path-39-inside-10_305_70" fill="white">
<path d="M246.634 285.252C256.15 294.768 249.411 311.038 235.953 311.038H36.7491C28.4068 311.038 21.644 304.275 21.644 295.933V96.7287C21.644 83.2715 37.9143 76.5322 47.43 86.0478L246.634 285.252Z"/>
</mask>
<path d="M235.953 310.038H36.7491V312.038H235.953V310.038ZM22.644 295.933V96.7287H20.644V295.933H22.644ZM46.7229 86.7549L245.927 285.959L247.341 284.545L48.1371 85.3407L46.7229 86.7549ZM22.644 96.7287C22.644 84.1625 37.8372 77.8692 46.7229 86.7549L48.1371 85.3407C37.9915 75.1951 20.644 82.3806 20.644 96.7287H22.644ZM36.7491 310.038C28.9591 310.038 22.644 303.723 22.644 295.933H20.644C20.644 304.828 27.8545 312.038 36.7491 312.038V310.038ZM235.953 312.038C250.302 312.038 257.487 294.691 247.341 284.545L245.927 285.959C254.813 294.845 248.52 310.038 235.953 310.038V312.038Z" fill="url(#paint29_linear_305_70)" mask="url(#path-39-inside-10_305_70)"/>
</g>
<g opacity="0.1">
<path d="M235.672 332.182H168.455C155.443 332.182 148.927 316.451 158.127 307.25L225.344 240.033C234.545 230.833 250.277 237.349 250.277 250.361V317.577C250.277 325.644 243.738 332.182 235.672 332.182Z" stroke="url(#paint30_linear_305_70)"/>
<path opacity="0.14" d="M193.913 272.012C196.029 269.634 199.776 269.732 201.764 272.218C205.746 277.195 198.9 283.535 194.243 279.184C192.204 277.279 192.058 274.096 193.913 272.012Z" stroke="url(#paint31_linear_305_70)"/>
<mask id="path-43-inside-11_305_70" fill="white">
<path d="M224.99 306.896C234.506 316.412 227.767 332.682 214.309 332.682H15.1051C6.76277 332.682 0 325.92 0 317.577V118.373C0 104.916 16.2703 98.1764 25.786 107.692L224.99 306.896Z"/>
</mask>
<path d="M214.309 331.682H15.1051V333.682H214.309V331.682ZM1 317.577V118.373H-1V317.577H1ZM25.0789 108.399L224.283 307.604L225.697 306.189L26.4931 106.985L25.0789 108.399ZM1 118.373C1 105.807 16.1932 99.5135 25.0789 108.399L26.4931 106.985C16.3474 96.8393 -1 104.025 -1 118.373H1ZM15.1051 331.682C7.31505 331.682 1 325.367 1 317.577H-1C-1 326.472 6.21049 333.682 15.1051 333.682V331.682ZM214.309 333.682C228.658 333.682 235.843 316.335 225.697 306.189L224.283 307.604C233.169 316.489 226.876 331.682 214.309 331.682V333.682Z" fill="url(#paint32_linear_305_70)" mask="url(#path-43-inside-11_305_70)"/>
</g>
<defs>
<linearGradient id="paint0_linear_305_70" x1="417.912" y1="296.148" x2="536.889" y2="415.125" gradientUnits="userSpaceOnUse">
<stop offset="9.43019e-07" stop-color="#FF4681"/>
<stop offset="0.7392" stop-color="#9B44F6"/>
</linearGradient>
<linearGradient id="paint1_linear_305_70" x1="489.595" y1="335.123" x2="555.48" y2="395.92" gradientUnits="userSpaceOnUse">
<stop offset="9.43019e-07" stop-color="#FF4681"/>
<stop offset="0.7392" stop-color="#9B44F6"/>
</linearGradient>
<linearGradient id="paint2_linear_305_70" x1="259.562" y1="214.458" x2="489.37" y2="444.266" gradientUnits="userSpaceOnUse">
<stop offset="9.43019e-07" stop-color="#FF4681"/>
<stop offset="0.7392" stop-color="#9B44F6"/>
</linearGradient>
<linearGradient id="paint3_linear_305_70" x1="383.086" y1="270.568" x2="502.063" y2="389.545" gradientUnits="userSpaceOnUse">
<stop offset="9.43019e-07" stop-color="#FF4681"/>
<stop offset="0.7392" stop-color="#9B44F6"/>
</linearGradient>
<linearGradient id="paint4_linear_305_70" x1="454.769" y1="309.543" x2="520.654" y2="370.34" gradientUnits="userSpaceOnUse">
<stop offset="9.43019e-07" stop-color="#FF4681"/>
<stop offset="0.7392" stop-color="#9B44F6"/>
</linearGradient>
<linearGradient id="paint5_linear_305_70" x1="224.737" y1="188.879" x2="454.545" y2="418.687" gradientUnits="userSpaceOnUse">
<stop offset="9.43019e-07" stop-color="#FF4681"/>
<stop offset="0.7392" stop-color="#9B44F6"/>
</linearGradient>
<linearGradient id="paint6_linear_305_70" x1="348.261" y1="244.989" x2="467.238" y2="363.966" gradientUnits="userSpaceOnUse">
<stop offset="9.43019e-07" stop-color="#FF4681"/>
<stop offset="0.7392" stop-color="#9B44F6"/>
</linearGradient>
<linearGradient id="paint7_linear_305_70" x1="419.944" y1="283.964" x2="485.829" y2="344.76" gradientUnits="userSpaceOnUse">
<stop offset="9.43019e-07" stop-color="#FF4681"/>
<stop offset="0.7392" stop-color="#9B44F6"/>
</linearGradient>
<linearGradient id="paint8_linear_305_70" x1="189.911" y1="163.299" x2="419.719" y2="393.107" gradientUnits="userSpaceOnUse">
<stop offset="9.43019e-07" stop-color="#FF4681"/>
<stop offset="0.7392" stop-color="#9B44F6"/>
</linearGradient>
<linearGradient id="paint9_linear_305_70" x1="313.436" y1="219.409" x2="432.413" y2="338.386" gradientUnits="userSpaceOnUse">
<stop offset="9.43019e-07" stop-color="#FF4681"/>
<stop offset="0.7392" stop-color="#9B44F6"/>
</linearGradient>
<linearGradient id="paint10_linear_305_70" x1="385.119" y1="258.384" x2="451.004" y2="319.181" gradientUnits="userSpaceOnUse">
<stop offset="9.43019e-07" stop-color="#FF4681"/>
<stop offset="0.7392" stop-color="#9B44F6"/>
</linearGradient>
<linearGradient id="paint11_linear_305_70" x1="155.086" y1="137.72" x2="384.894" y2="367.528" gradientUnits="userSpaceOnUse">
<stop offset="9.43019e-07" stop-color="#FF4681"/>
<stop offset="0.7392" stop-color="#9B44F6"/>
</linearGradient>
<linearGradient id="paint12_linear_305_70" x1="278.609" y1="193.83" x2="397.586" y2="312.807" gradientUnits="userSpaceOnUse">
<stop offset="9.43019e-07" stop-color="#FF4681"/>
<stop offset="0.7392" stop-color="#9B44F6"/>
</linearGradient>
<linearGradient id="paint13_linear_305_70" x1="350.292" y1="232.805" x2="416.177" y2="293.601" gradientUnits="userSpaceOnUse">
<stop offset="9.43019e-07" stop-color="#FF4681"/>
<stop offset="0.7392" stop-color="#9B44F6"/>
</linearGradient>
<linearGradient id="paint14_linear_305_70" x1="120.26" y1="112.14" x2="350.068" y2="341.948" gradientUnits="userSpaceOnUse">
<stop offset="9.43019e-07" stop-color="#FF4681"/>
<stop offset="0.7392" stop-color="#9B44F6"/>
</linearGradient>
<linearGradient id="paint15_linear_305_70" x1="243.784" y1="168.25" x2="362.761" y2="287.227" gradientUnits="userSpaceOnUse">
<stop offset="9.43019e-07" stop-color="#FF4681"/>
<stop offset="0.7392" stop-color="#9B44F6"/>
</linearGradient>
<linearGradient id="paint16_linear_305_70" x1="315.467" y1="207.225" x2="381.352" y2="268.022" gradientUnits="userSpaceOnUse">
<stop offset="9.43019e-07" stop-color="#FF4681"/>
<stop offset="0.7392" stop-color="#9B44F6"/>
</linearGradient>
<linearGradient id="paint17_linear_305_70" x1="85.4346" y1="86.5603" x2="315.243" y2="316.368" gradientUnits="userSpaceOnUse">
<stop offset="9.43019e-07" stop-color="#FF4681"/>
<stop offset="0.7392" stop-color="#9B44F6"/>
</linearGradient>
<linearGradient id="paint18_linear_305_70" x1="208.959" y1="142.671" x2="327.936" y2="261.647" gradientUnits="userSpaceOnUse">
<stop offset="9.43019e-07" stop-color="#FF4681"/>
<stop offset="0.7392" stop-color="#9B44F6"/>
</linearGradient>
<linearGradient id="paint19_linear_305_70" x1="280.642" y1="181.645" x2="346.527" y2="242.442" gradientUnits="userSpaceOnUse">
<stop offset="9.43019e-07" stop-color="#FF4681"/>
<stop offset="0.7392" stop-color="#9B44F6"/>
</linearGradient>
<linearGradient id="paint20_linear_305_70" x1="50.6093" y1="60.9808" x2="280.417" y2="290.789" gradientUnits="userSpaceOnUse">
<stop offset="9.43019e-07" stop-color="#FF4681"/>
<stop offset="0.7392" stop-color="#9B44F6"/>
</linearGradient>
<linearGradient id="paint21_linear_305_70" x1="176" y1="167.758" x2="294.976" y2="286.735" gradientUnits="userSpaceOnUse">
<stop offset="9.43019e-07" stop-color="#FF4681"/>
<stop offset="0.7392" stop-color="#9B44F6"/>
</linearGradient>
<linearGradient id="paint22_linear_305_70" x1="247.683" y1="206.733" x2="313.568" y2="267.53" gradientUnits="userSpaceOnUse">
<stop offset="9.43019e-07" stop-color="#FF4681"/>
<stop offset="0.7392" stop-color="#9B44F6"/>
</linearGradient>
<linearGradient id="paint23_linear_305_70" x1="17.6502" y1="86.0685" x2="247.458" y2="315.876" gradientUnits="userSpaceOnUse">
<stop offset="9.43019e-07" stop-color="#FF4681"/>
<stop offset="0.7392" stop-color="#9B44F6"/>
</linearGradient>
<linearGradient id="paint24_linear_305_70" x1="149.437" y1="196.781" x2="268.414" y2="315.758" gradientUnits="userSpaceOnUse">
<stop offset="9.43019e-07" stop-color="#FF4681"/>
<stop offset="0.7392" stop-color="#9B44F6"/>
</linearGradient>
<linearGradient id="paint25_linear_305_70" x1="221.12" y1="235.756" x2="287.005" y2="296.553" gradientUnits="userSpaceOnUse">
<stop offset="9.43019e-07" stop-color="#FF4681"/>
<stop offset="0.7392" stop-color="#9B44F6"/>
</linearGradient>
<linearGradient id="paint26_linear_305_70" x1="-8.91276" y1="115.091" x2="220.895" y2="344.899" gradientUnits="userSpaceOnUse">
<stop offset="9.43019e-07" stop-color="#FF4681"/>
<stop offset="0.7392" stop-color="#9B44F6"/>
</linearGradient>
<linearGradient id="paint27_linear_305_70" x1="125.333" y1="223.345" x2="244.31" y2="342.322" gradientUnits="userSpaceOnUse">
<stop offset="9.43019e-07" stop-color="#FF4681"/>
<stop offset="0.7392" stop-color="#9B44F6"/>
</linearGradient>
<linearGradient id="paint28_linear_305_70" x1="197.016" y1="262.32" x2="262.901" y2="323.116" gradientUnits="userSpaceOnUse">
<stop offset="9.43019e-07" stop-color="#FF4681"/>
<stop offset="0.7392" stop-color="#9B44F6"/>
</linearGradient>
<linearGradient id="paint29_linear_305_70" x1="-33.0169" y1="141.655" x2="196.791" y2="371.463" gradientUnits="userSpaceOnUse">
<stop offset="9.43019e-07" stop-color="#FF4681"/>
<stop offset="0.7392" stop-color="#9B44F6"/>
</linearGradient>
<linearGradient id="paint30_linear_305_70" x1="103.689" y1="244.989" x2="222.666" y2="363.966" gradientUnits="userSpaceOnUse">
<stop offset="9.43019e-07" stop-color="#FF4681"/>
<stop offset="0.7392" stop-color="#9B44F6"/>
</linearGradient>
<linearGradient id="paint31_linear_305_70" x1="175.372" y1="283.964" x2="241.257" y2="344.76" gradientUnits="userSpaceOnUse">
<stop offset="9.43019e-07" stop-color="#FF4681"/>
<stop offset="0.7392" stop-color="#9B44F6"/>
</linearGradient>
<linearGradient id="paint32_linear_305_70" x1="-54.6609" y1="163.299" x2="175.147" y2="393.107" gradientUnits="userSpaceOnUse">
<stop offset="9.43019e-07" stop-color="#FF4681"/>
<stop offset="0.7392" stop-color="#9B44F6"/>
</linearGradient>
</defs>
</svg>
