<svg width="24" height="24" viewBox="0 0 24 24" fill="none" xmlns="http://www.w3.org/2000/svg">
<path d="M11.9255 21.3C11.3255 21.3 10.7255 21.225 10.1255 21.075C8.32546 20.7 6.67546 19.8 5.40046 18.525C4.12546 17.325 3.22546 15.675 2.85046 13.8C2.55046 11.925 2.70046 10.05 3.37546 8.4C4.05046 6.675 5.25046 5.175 6.75046 4.2C8.32546 3.15 10.1255 2.625 12.0005 2.625C14.4755 2.625 16.8005 3.6 18.6005 5.325C20.4005 7.2 21.3755 9.525 21.3005 11.925C21.3005 13.8 20.7755 15.6 19.7255 17.175C18.7505 18.675 17.2505 19.875 15.5255 20.625C14.3255 21.075 13.1255 21.3 11.9255 21.3ZM12.0005 4.5C10.1255 4.5 8.25046 5.325 6.67546 6.75C5.32546 8.025 4.50046 9.975 4.50046 12C4.50046 13.425 4.87546 14.775 5.70046 16.125C6.45046 17.325 7.57546 18.3 9.07546 18.9C10.0505 19.275 11.0255 19.5 12.0005 19.5C12.4505 19.5 12.9755 19.425 13.4255 19.35C14.9255 19.05 16.2005 18.375 17.2505 17.25C18.3755 16.2 19.0505 14.925 19.3505 13.5C19.6505 12 19.5005 10.5 18.9005 9.15C18.3755 7.875 17.4005 6.675 16.1255 5.775C14.9255 4.95 13.5005 4.5 12.0005 4.5Z" fill="#C6C7EB"/>
<path d="M10.4258 13.6499C10.4258 13.1249 10.5008 12.6749 10.7258 12.2999C10.9508 11.9249 11.2508 11.5499 11.7008 11.2499C11.7758 11.1749 11.8508 11.1749 11.9258 11.0999C12.0008 11.0249 12.0758 11.0249 12.0758 10.9499C12.4508 10.7249 12.7508 10.4999 12.9008 10.3499C13.0508 10.1999 13.1258 9.97495 13.1258 9.67495C13.1258 9.37495 12.9758 9.07494 12.7508 8.92495C12.4508 8.77495 12.0758 8.62495 11.5508 8.62495C11.1008 8.62495 10.6508 8.69995 10.2008 8.77495C9.75078 8.84995 9.30078 8.99995 8.92578 9.22495V7.42494C9.82578 7.04994 10.7258 6.82495 11.7758 6.82495C12.9008 6.82495 13.8758 7.04995 14.4758 7.57495C15.1508 8.02495 15.4508 8.77495 15.4508 9.59995C15.4508 9.97495 15.3758 10.2749 15.3008 10.4999C15.1508 10.7249 15.0008 10.9499 14.8508 11.1749C14.6258 11.3999 14.3258 11.6249 13.9508 11.8499C13.5758 12.1499 13.2758 12.3749 13.1258 12.5249C12.9758 12.6749 12.8258 12.8249 12.7508 12.9749C12.6758 13.1249 12.6008 13.3499 12.6008 13.6499V13.9499H10.5008V13.6499H10.4258ZM10.6508 17.0249C10.4258 16.7999 10.2758 16.4999 10.2758 16.1999C10.2758 15.8999 10.4258 15.5999 10.6508 15.3749C10.8758 15.1499 11.1758 15.0749 11.4758 15.0749C11.7758 15.0749 12.0758 15.2249 12.3008 15.4499C12.5258 15.6749 12.6758 15.9749 12.6758 16.2749C12.6758 16.5749 12.5258 16.8749 12.3008 17.0999C12.0758 17.3249 11.7758 17.4749 11.4758 17.4749C11.1008 17.3999 10.8758 17.2499 10.6508 17.0249Z" fill="#C6C7EB"/>
</svg>
