<svg width="40" height="40" viewBox="0 0 40 40" fill="none" xmlns="http://www.w3.org/2000/svg">
<path d="M20 -0.000396729C31.03 -0.000396729 40 8.9716 40 19.9996C40 31.0276 31.03 39.9996 20 39.9996C8.972 39.9996 0 31.0276 0 19.9996C0 8.9716 8.972 -0.000396729 20 -0.000396729Z" fill="#AA33B5"/>
<path d="M17.115 11.5582C17.497 11.5582 17.881 11.7042 18.173 11.9962L25.147 18.9362C25.429 19.2182 25.587 19.6002 25.587 20.0002C25.587 20.3982 25.429 20.7802 25.147 21.0622L18.173 28.0062C17.587 28.5902 16.639 28.5902 16.053 28.0022C15.469 27.4142 15.471 26.4642 16.057 25.8802L21.963 20.0002L16.057 14.1202C15.471 13.5362 15.469 12.5882 16.053 12.0002C16.345 11.7042 16.731 11.5582 17.115 11.5582Z" fill="white"/>
</svg>
