<svg width="40" height="40" viewBox="0 0 40 40" fill="none" xmlns="http://www.w3.org/2000/svg">
<path d="M20 40.0004C8.97 40.0004 0 31.0284 0 20.0004C0 8.9724 8.97 0.000396729 20 0.000396729C31.028 0.000396729 40 8.9724 40 20.0004C40 31.0284 31.028 40.0004 20 40.0004Z" fill="#AA33B5"/>
<path d="M22.885 28.4418C22.503 28.4418 22.119 28.2958 21.827 28.0038L14.853 21.0638C14.571 20.7818 14.413 20.3998 14.413 19.9998C14.413 19.6018 14.571 19.2198 14.853 18.9378L21.827 11.9938C22.413 11.4098 23.361 11.4098 23.947 11.9978C24.531 12.5858 24.529 13.5358 23.943 14.1198L18.037 19.9998L23.943 25.8798C24.529 26.4638 24.531 27.4118 23.947 27.9998C23.655 28.2958 23.269 28.4418 22.885 28.4418Z" fill="white"/>
</svg>
